SplineFontDB: 3.0
FontName: Exo-Black
FullName: Exo Black
FamilyName: Exo
Weight: Black
Copyright: Copyright (c) 2011 Natanael Gama (exo@ndiscovered.com), with Reserved Font Name "Exo"
Version: 1.00
ItalicAngle: 0
UnderlinePosition: -100
UnderlineWidth: 50
Ascent: 800
Descent: 200
sfntRevision: 0x00010000
LayerCount: 2
Layer: 0 1 "Back"  1
Layer: 1 1 "Fore"  0
XUID: [1021 128 613502314 5854895]
FSType: 0
OS2Version: 4
OS2_WeightWidthSlopeOnly: 0
OS2_UseTypoMetrics: 1
CreationTime: 1265665101
ModificationTime: 1328305020
PfmFamily: 17
TTFWeight: 900
TTFWidth: 5
LineGap: 0
VLineGap: 0
Panose: 2 0 10 3 0 0 0 0 0 0
OS2TypoAscent: 202
OS2TypoAOffset: 1
OS2TypoDescent: -127
OS2TypoDOffset: 1
OS2TypoLinegap: 0
OS2WinAscent: 0
OS2WinAOffset: 1
OS2WinDescent: 11
OS2WinDOffset: 1
HheadAscent: 0
HheadAOffset: 1
HheadDescent: -11
HheadDOffset: 1
OS2SubXSize: 650
OS2SubYSize: 700
OS2SubXOff: 0
OS2SubYOff: 140
OS2SupXSize: 650
OS2SupYSize: 700
OS2SupXOff: 0
OS2SupYOff: 480
OS2StrikeYSize: 49
OS2StrikeYPos: 258
OS2Vendor: 'PfEd'
OS2CodePages: 20000093.00000000
OS2UnicodeRanges: a00000ef.4000204b.00000000.00000000
Lookup: 4 0 0 "'ordn' Ordinals lookup 0"  {"'ordn' Ordinals lookup 0 subtable"  } ['ordn' ('DFLT' <'dflt' > 'grek' <'dflt' > 'latn' <'dflt' > ) ]
Lookup: 1 0 0 "'smcp' Lowercase to Small Capitals lookup 1"  {"'smcp' Lowercase to Small Capitals lookup 1 subtable"  } ['smcp' ('DFLT' <'dflt' > 'grek' <'dflt' > 'latn' <'FRA ' 'dflt' > ) ]
Lookup: 1 0 0 "'c2sc' Capitals to Small Capitals in Latin lookup 2"  {"'c2sc' Capitals to Small Capitals in Latin lookup 2 subtable"  } ['c2sc' ('latn' <'dflt' > ) ]
Lookup: 4 0 0 "'dlig' Discretionary Ligatures lookup 3"  {"'dlig' Discretionary Ligatures lookup 3 subtable"  } ['dlig' ('DFLT' <'dflt' > 'grek' <'dflt' > 'latn' <'dflt' > ) ]
Lookup: 4 0 1 "'liga' Standard Ligatures lookup 4"  {"'liga' Standard Ligatures lookup 4 subtable"  } ['liga' ('DFLT' <'dflt' > 'grek' <'dflt' > 'latn' <'FRA ' 'dflt' > ) ]

StartChar: .notdef
Encoding: 0 -1 0
AltUni2: 000000.ffffffff.0
Width: 670
Flags: W
LayerCount: 2
Fore
SplineSet
600 506 m 1,0,-1
 348 266 l 1,1,-1
 600 25 l 1,2,-1
 600 506 l 1,0,-1
83 13 m 1,3,-1
 590 13 l 1,4,-1
 337 256 l 1,5,-1
 83 13 l 1,3,-1
70 22 m 1,6,-1
 326 266 l 1,7,-1
 70 507 l 1,8,-1
 70 22 l 1,6,-1
591 518 m 1,9,-1
 80 518 l 1,10,-1
 337 276 l 1,11,-1
 591 518 l 1,9,-1
56 0 m 1,12,-1
 56 531 l 1,13,-1
 614 531 l 1,14,-1
 614 0 l 1,15,-1
 56 0 l 1,12,-1
EndSplineSet
EndChar

StartChar: exclam
Encoding: 33 33 4
Width: 277
GlyphClass: 2
Flags: W
LayerCount: 2
Fore
SplineSet
54 23 m 2,0,-1
 54 140 l 2,1,2
 54 165 54 165 78 165 c 2,3,-1
 193 165 l 2,4,5
 216 165 216 165 216 140 c 2,6,-1
 216 23 l 2,7,8
 216 0 216 0 193 0 c 2,9,-1
 78 0 l 2,10,11
 54 0 54 0 54 23 c 2,0,-1
46 731 m 1,12,-1
 230 731 l 1,13,-1
 209 196 l 1,14,-1
 63 196 l 1,15,-1
 46 731 l 1,12,-1
EndSplineSet
Substitution2: "'smcp' Lowercase to Small Capitals lookup 1 subtable" exclam.smcp
EndChar

StartChar: quotedbl
Encoding: 34 34 5
Width: 497
GlyphClass: 2
Flags: W
LayerCount: 2
Fore
SplineSet
48 732 m 1,0,-1
 232 732 l 1,1,-1
 232 665 l 1,2,-1
 222 531 l 1,3,-1
 60 531 l 1,4,-1
 48 665 l 1,5,-1
 48 732 l 1,0,-1
266 732 m 1,6,-1
 450 732 l 1,7,-1
 450 665 l 1,8,-1
 440 531 l 1,9,-1
 276 531 l 1,10,-1
 266 665 l 1,11,-1
 266 732 l 1,6,-1
EndSplineSet
Substitution2: "'smcp' Lowercase to Small Capitals lookup 1 subtable" quotedbl.smcp
EndChar

StartChar: numbersign
Encoding: 35 35 6
Width: 749
GlyphClass: 2
Flags: W
LayerCount: 2
Fore
SplineSet
11 192 m 1,0,-1
 31 324 l 1,1,-1
 178 324 l 1,2,-1
 194 409 l 1,3,-1
 45 409 l 1,4,-1
 66 541 l 1,5,-1
 220 541 l 1,6,-1
 257 732 l 1,7,-1
 389 732 l 1,8,-1
 352 541 l 1,9,-1
 440 541 l 1,10,-1
 476 732 l 1,11,-1
 608 732 l 1,12,-1
 572 541 l 1,13,-1
 739 541 l 1,14,-1
 720 409 l 1,15,-1
 552 409 l 1,16,-1
 536 323 l 1,17,-1
 704 323 l 1,18,-1
 686 191 l 1,19,-1
 506 191 l 1,20,-1
 469 0 l 1,21,-1
 337 0 l 1,22,-1
 374 191 l 1,23,-1
 285 192 l 1,24,-1
 248 0 l 1,25,-1
 116 0 l 1,26,-1
 153 192 l 1,27,-1
 11 192 l 1,0,-1
310 324 m 1,28,-1
 404 323 l 1,29,-1
 420 409 l 1,30,-1
 326 409 l 1,31,-1
 310 324 l 1,28,-1
EndSplineSet
Substitution2: "'smcp' Lowercase to Small Capitals lookup 1 subtable" numbersign.smcp
EndChar

StartChar: dollar
Encoding: 36 36 7
Width: 566
GlyphClass: 2
Flags: W
LayerCount: 2
Fore
SplineSet
31 479 m 2,0,-1
 31 540 l 2,1,2
 31 641 31 641 86 688 c 128,-1,3
 141 735 141 735 233 738 c 1,4,-1
 233 824 l 1,5,-1
 341 824 l 1,6,-1
 341 738 l 1,7,8
 427 734 427 734 509 705 c 1,9,-1
 509 554 l 1,10,11
 418 564 418 564 336.5 564 c 128,-1,12
 255 564 255 564 240 557 c 128,-1,13
 225 550 225 550 225 520 c 2,14,-1
 225 509 l 2,15,16
 225 483 225 483 236 472 c 128,-1,17
 247 461 247 461 285 461 c 2,18,-1
 349 461 l 2,19,20
 468 461 468 461 514 358 c 0,21,22
 536 308 536 308 536 249 c 2,23,-1
 536 216 l 2,24,25
 536 -4 536 -4 341 -8 c 1,26,-1
 341 -90 l 1,27,-1
 233 -90 l 1,28,-1
 233 -8 l 1,29,30
 200 -8 200 -8 180 -6 c 128,-1,31
 160 -4 160 -4 154.5 -3.5 c 128,-1,32
 149 -3 149 -3 139.5 -0.5 c 128,-1,33
 130 2 130 2 126 3 c 128,-1,34
 122 4 122 4 110 7.5 c 128,-1,35
 98 11 98 11 94.5 12.5 c 128,-1,36
 91 14 91 14 75.5 19 c 128,-1,37
 60 24 60 24 54 26 c 1,38,-1
 54 177 l 1,39,40
 164 166 164 166 283 166 c 0,41,42
 315 166 315 166 328.5 175.5 c 128,-1,43
 342 185 342 185 342 207 c 2,44,-1
 342 223 l 2,45,46
 342 246 342 246 331 256.5 c 128,-1,47
 320 267 320 267 289 267 c 2,48,-1
 229 267 l 2,49,50
 175 267 175 267 135.5 285 c 128,-1,51
 96 303 96 303 77 327 c 128,-1,52
 58 351 58 351 46 384 c 1,53,54
 31 430 31 430 31 479 c 2,0,-1
EndSplineSet
Substitution2: "'smcp' Lowercase to Small Capitals lookup 1 subtable" dollar.smcp
EndChar

StartChar: percent
Encoding: 37 37 8
Width: 968
GlyphClass: 2
Flags: W
LayerCount: 2
Fore
SplineSet
24 484 m 2,0,-1
 24 597 l 2,1,2
 24 663 24 663 57 697.5 c 128,-1,3
 90 732 90 732 163 732 c 2,4,-1
 264 732 l 2,5,6
 401 732 401 732 401 597 c 2,7,-1
 401 484 l 2,8,9
 401 418 401 418 368 383.5 c 128,-1,10
 335 349 335 349 262 349 c 2,11,-1
 161 349 l 2,12,13
 24 349 24 349 24 484 c 2,0,-1
149 514 m 2,14,15
 149 494 149 494 156 484 c 128,-1,16
 163 474 163 474 186 474 c 2,17,-1
 237 474 l 2,18,19
 260 474 260 474 268 484.5 c 128,-1,20
 276 495 276 495 276 514 c 2,21,-1
 276 567 l 2,22,23
 276 591 276 591 267.5 599 c 128,-1,24
 259 607 259 607 239 607 c 2,25,-1
 188 607 l 2,26,27
 169 607 169 607 159 599 c 128,-1,28
 149 591 149 591 149 567 c 2,29,-1
 149 514 l 2,14,15
192 0 m 1,30,-1
 646 732 l 1,31,-1
 770 732 l 1,32,-1
 323 0 l 1,33,-1
 192 0 l 1,30,-1
568 138 m 2,34,-1
 568 251 l 2,35,36
 568 317 568 317 600.5 351.5 c 128,-1,37
 633 386 633 386 706 386 c 2,38,-1
 808 386 l 2,39,40
 945 386 945 386 945 251 c 2,41,-1
 945 138 l 2,42,43
 945 72 945 72 912 37.5 c 128,-1,44
 879 3 879 3 806 3 c 2,45,-1
 704 3 l 2,46,47
 568 3 568 3 568 138 c 2,34,-1
693 168 m 2,48,49
 693 148 693 148 700 138 c 128,-1,50
 707 128 707 128 730 128 c 2,51,-1
 780 128 l 2,52,53
 820 128 820 128 820 168 c 2,54,-1
 820 221 l 2,55,56
 820 245 820 245 811 253 c 128,-1,57
 802 261 802 261 782 261 c 2,58,-1
 732 261 l 2,59,60
 713 261 713 261 703 253 c 128,-1,61
 693 245 693 245 693 221 c 2,62,-1
 693 168 l 2,48,49
EndSplineSet
Substitution2: "'smcp' Lowercase to Small Capitals lookup 1 subtable" percent.smcp
EndChar

StartChar: ampersand
Encoding: 38 38 9
Width: 715
GlyphClass: 2
Flags: W
LayerCount: 2
Fore
SplineSet
493 710 m 1,0,-1
 493 566 l 1,1,-1
 360 566 l 2,2,3
 327 566 327 566 317.5 555.5 c 128,-1,4
 308 545 308 545 314.5 530 c 128,-1,5
 321 515 321 515 340 488 c 2,6,-1
 454 328 l 1,7,-1
 582 438 l 1,8,-1
 652 350 l 1,9,-1
 585 242 l 1,10,-1
 550 199 l 1,11,-1
 703 0 l 1,12,-1
 475 0 l 1,13,-1
 414 84 l 1,14,-1
 354 33 l 2,15,16
 323 7 323 7 269 -3 c 0,17,18
 251 -6 251 -6 223 -6 c 128,-1,19
 195 -6 195 -6 153 8 c 0,20,21
 91 28 91 28 55 82 c 1,22,23
 19 142 19 142 19 199 c 0,24,25
 19 294 19 294 106 372 c 2,26,-1
 162 422 l 1,27,-1
 120 487 l 1,28,29
 87 535 87 535 87 580 c 0,30,31
 87 638 87 638 125 680 c 128,-1,32
 163 722 163 722 202 729 c 0,33,34
 256 738 256 738 317.5 738 c 128,-1,35
 379 738 379 738 493 710 c 1,0,-1
224 261 m 2,36,37
 202 240 202 240 202 223.5 c 128,-1,38
 202 207 202 207 216 189.5 c 128,-1,39
 230 172 230 172 248 172 c 128,-1,40
 266 172 266 172 284 190 c 2,41,-1
 310 217 l 1,42,-1
 254 290 l 1,43,-1
 224 261 l 2,36,37
EndSplineSet
AlternateSubs2: "'salt' Stylistic Alternatives in Latin lookup 16 subtable" ampersand.salt
Substitution2: "'smcp' Lowercase to Small Capitals lookup 1 subtable" ampersand.smcp
EndChar

StartChar: quotesingle
Encoding: 39 39 10
Width: 256
GlyphClass: 2
Flags: W
LayerCount: 2
Fore
SplineSet
31 732 m 1,0,-1
 226 732 l 1,1,-1
 226 665 l 1,2,-1
 216 531 l 1,3,-1
 42 531 l 1,4,-1
 31 665 l 1,5,-1
 31 732 l 1,0,-1
EndSplineSet
Substitution2: "'smcp' Lowercase to Small Capitals lookup 1 subtable" quotesingle.smcp
EndChar

StartChar: parenleft
Encoding: 40 40 11
Width: 413
GlyphClass: 2
Flags: W
LayerCount: 2
Fore
SplineSet
62.5 118 m 128,-1,1
 42 215 42 215 42 321.5 c 128,-1,2
 42 428 42 428 61.5 521 c 128,-1,3
 81 614 81 614 108 673 c 0,4,5
 165 794 165 794 212 840 c 1,6,-1
 231 860 l 1,7,-1
 402 860 l 1,8,9
 381 829 381 829 348.5 763.5 c 128,-1,10
 316 698 316 698 294 638.5 c 128,-1,11
 272 579 272 579 254 493 c 128,-1,12
 236 407 236 407 236 322.5 c 128,-1,13
 236 238 236 238 253 150 c 128,-1,14
 270 62 270 62 294 0 c 0,15,16
 345 -128 345 -128 385 -186 c 2,17,-1
 402 -210 l 1,18,-1
 231 -210 l 1,19,20
 223 -204 223 -204 210.5 -192.5 c 128,-1,21
 198 -181 198 -181 165.5 -135.5 c 128,-1,22
 133 -90 133 -90 108 -34.5 c 128,-1,0
 83 21 83 21 62.5 118 c 128,-1,1
EndSplineSet
Substitution2: "'case' Case-Sensitive Forms lookup 18 subtable" parenleft.alt
Substitution2: "'c2sc' Capitals to Small Capitals in Latin lookup 2 subtable" parenleft.smcp
Substitution2: "'smcp' Lowercase to Small Capitals lookup 1 subtable" parenleft.smcp
EndChar

StartChar: parenright
Encoding: 41 41 12
Width: 413
GlyphClass: 2
Flags: W
LayerCount: 2
Fore
SplineSet
159 149 m 128,-1,1
 177 238 177 238 177 322.5 c 128,-1,2
 177 407 177 407 160 492 c 128,-1,3
 143 577 143 577 118 640 c 0,4,5
 68 769 68 769 28 833 c 2,6,-1
 11 860 l 1,7,-1
 182 860 l 1,8,9
 207 838 207 838 243.5 783.5 c 128,-1,10
 280 729 280 729 305 672.5 c 128,-1,11
 330 616 330 616 350.5 522 c 128,-1,12
 371 428 371 428 371 336.5 c 128,-1,13
 371 245 371 245 360.5 171.5 c 128,-1,14
 350 98 350 98 333.5 45.5 c 128,-1,15
 317 -7 317 -7 297 -51.5 c 128,-1,16
 277 -96 277 -96 256 -124 c 1,17,18
 213 -185 213 -185 192 -202 c 2,19,-1
 182 -210 l 1,20,-1
 11 -210 l 1,21,22
 33 -182 33 -182 65 -120 c 128,-1,23
 97 -58 97 -58 119 1 c 128,-1,0
 141 60 141 60 159 149 c 128,-1,1
EndSplineSet
Substitution2: "'case' Case-Sensitive Forms lookup 18 subtable" parenright.alt
Substitution2: "'c2sc' Capitals to Small Capitals in Latin lookup 2 subtable" parenright.smcp
Substitution2: "'smcp' Lowercase to Small Capitals lookup 1 subtable" parenright.smcp
EndChar

StartChar: asterisk
Encoding: 42 42 13
Width: 418
GlyphClass: 2
Flags: W
LayerCount: 2
Fore
SplineSet
28 566 m 1,0,-1
 28 636 l 1,1,-1
 167 655 l 1,2,-1
 172 561 l 1,3,-1
 28 566 l 1,0,-1
76 418 m 1,4,-1
 101 556 l 1,5,-1
 192 532 l 1,6,-1
 143 397 l 1,7,-1
 76 418 l 1,4,-1
157 722 m 1,8,-1
 224 744 l 1,9,-1
 285 618 l 1,10,-1
 197 584 l 1,11,-1
 157 722 l 1,8,-1
176 459 m 1,12,-1
 227 538 l 1,13,-1
 341 449 l 1,14,-1
 299 393 l 1,15,-1
 176 459 l 1,12,-1
230 571 m 1,16,-1
 349 652 l 1,17,-1
 390 595 l 1,18,-1
 289 498 l 1,19,-1
 230 571 l 1,16,-1
EndSplineSet
Substitution2: "'smcp' Lowercase to Small Capitals lookup 1 subtable" asterisk.smcp
EndChar

StartChar: plus
Encoding: 43 43 14
Width: 456
GlyphClass: 2
Flags: W
LayerCount: 2
Fore
SplineSet
20 279 m 1,0,-1
 20 433 l 1,1,-1
 150 433 l 1,2,-1
 150 564 l 1,3,-1
 304 564 l 1,4,-1
 304 433 l 1,5,-1
 436 433 l 1,6,-1
 436 279 l 1,7,-1
 304 279 l 1,8,-1
 304 148 l 1,9,-1
 150 148 l 1,10,-1
 150 279 l 1,11,-1
 20 279 l 1,0,-1
EndSplineSet
EndChar

StartChar: comma
Encoding: 44 44 15
Width: 255
GlyphClass: 2
Flags: W
LayerCount: 2
Fore
SplineSet
48 25 m 2,0,-1
 48 139 l 2,1,2
 48 166 48 166 73 166 c 2,3,-1
 184 166 l 2,4,5
 208 166 208 166 208 139 c 2,6,-1
 208 -11 l 2,7,8
 208 -46 208 -46 192 -66.5 c 128,-1,9
 176 -87 176 -87 154.5 -92 c 128,-1,10
 133 -97 133 -97 122 -97 c 0,11,12
 87 -97 87 -97 69 -92 c 2,13,-1
 53 -88 l 1,14,-1
 53 -26 l 1,15,16
 73 -27 73 -27 78.5 -21 c 128,-1,17
 84 -15 84 -15 84 -5 c 2,18,-1
 84 0 l 1,19,-1
 73 0 l 2,20,21
 48 0 48 0 48 25 c 2,0,-1
EndSplineSet
EndChar

StartChar: hyphen
Encoding: 45 45 16
Width: 354
GlyphClass: 2
Flags: W
LayerCount: 2
Fore
SplineSet
20 213 m 1,0,-1
 20 367 l 1,1,-1
 334 367 l 1,2,-1
 334 213 l 1,3,-1
 20 213 l 1,0,-1
EndSplineSet
Substitution2: "'case' Case-Sensitive Forms lookup 18 subtable" hyphen.alt
Substitution2: "'c2sc' Capitals to Small Capitals in Latin lookup 2 subtable" hyphen.smcp
Substitution2: "'smcp' Lowercase to Small Capitals lookup 1 subtable" hyphen.smcp
EndChar

StartChar: period
Encoding: 46 46 17
Width: 257
GlyphClass: 2
Flags: W
LayerCount: 2
Fore
SplineSet
48 23 m 2,0,-1
 48 140 l 2,1,2
 48 165 48 165 72 165 c 2,3,-1
 185 165 l 2,4,5
 210 165 210 165 210 140 c 2,6,-1
 210 23 l 2,7,8
 210 0 210 0 185 0 c 2,9,-1
 72 0 l 2,10,11
 48 0 48 0 48 23 c 2,0,-1
EndSplineSet
EndChar

StartChar: slash
Encoding: 47 47 18
Width: 502
GlyphClass: 2
Flags: W
LayerCount: 2
Fore
SplineSet
11 -72 m 1,0,-1
 292 770 l 1,1,-1
 491 770 l 1,2,-1
 210 -72 l 1,3,-1
 11 -72 l 1,0,-1
EndSplineSet
Substitution2: "'numr' Numerators in Latin lookup 13 subtable" fraction
Substitution2: "'frac' Diagonal Fractions lookup 6 subtable" fraction
EndChar

StartChar: zero
Encoding: 48 48 19
Width: 621
GlyphClass: 2
Flags: W
LayerCount: 2
Fore
SplineSet
39 192 m 2,0,-1
 39 530 l 2,1,2
 39 628 39 628 89 680 c 128,-1,3
 139 732 139 732 233 732 c 2,4,-1
 397 732 l 2,5,6
 582 732 582 732 582 540 c 2,7,-1
 582 192 l 2,8,9
 582 102 582 102 533.5 51 c 128,-1,10
 485 0 485 0 396 0 c 2,11,-1
 232 0 l 2,12,13
 136 0 136 0 87.5 50 c 128,-1,14
 39 100 39 100 39 192 c 2,0,-1
233 233 m 2,15,16
 233 207 233 207 243.5 193 c 128,-1,17
 254 179 254 179 264.5 176.5 c 128,-1,18
 275 174 275 174 290 174 c 2,19,-1
 332 174 l 2,20,21
 361 174 361 174 374.5 184.5 c 128,-1,22
 388 195 388 195 388 232 c 2,23,-1
 388 500 l 2,24,25
 388 558 388 558 340 558 c 2,26,-1
 283 558 l 2,27,28
 233 558 233 558 233 500 c 2,29,-1
 233 233 l 2,15,16
EndSplineSet
Substitution2: "'dnom' Denominators in Latin lookup 19 subtable" zero.denominator
Substitution2: "'sups' Superscript lookup 17 subtable" zerosuperior
Substitution2: "'onum' Oldstyle Figures in Latin lookup 15 subtable" zero.oldstyle
Substitution2: "'tnum' Tabular Numbers in Latin lookup 14 subtable" zero.tnum
Substitution2: "'numr' Numerators in Latin lookup 13 subtable" zero.numerator
Substitution2: "'zero' Slashed Zero lookup 12 subtable" uni0338
Substitution2: "'sinf' Scientific Inferiors lookup 11 subtable" zeroinferior
Substitution2: "'frac' Diagonal Fractions lookup 5 subtable" zero.numerator
Substitution2: "'smcp' Lowercase to Small Capitals lookup 1 subtable" zero.smcp
EndChar

StartChar: one
Encoding: 49 49 20
Width: 379
GlyphClass: 2
Flags: W
LayerCount: 2
Fore
SplineSet
334 732 m 1,0,-1
 334 0 l 1,1,-1
 140 0 l 1,2,-1
 140 548 l 1,3,-1
 22 528 l 1,4,-1
 22 651 l 1,5,-1
 142 732 l 1,6,-1
 334 732 l 1,0,-1
EndSplineSet
Substitution2: "'dnom' Denominators in Latin lookup 19 subtable" one.denominator
Substitution2: "'sups' Superscript lookup 17 subtable" onesuperior
Substitution2: "'onum' Oldstyle Figures in Latin lookup 15 subtable" one.oldstyle
Substitution2: "'tnum' Tabular Numbers in Latin lookup 14 subtable" one.tnum
Substitution2: "'numr' Numerators in Latin lookup 13 subtable" one.numerator
Substitution2: "'sinf' Scientific Inferiors lookup 11 subtable" oneinferior
Substitution2: "'frac' Diagonal Fractions lookup 5 subtable" one.numerator
Substitution2: "'smcp' Lowercase to Small Capitals lookup 1 subtable" one.smcp
EndChar

StartChar: two
Encoding: 50 50 21
Width: 582
GlyphClass: 2
Flags: W
LayerCount: 2
Fore
SplineSet
22 567 m 1,0,-1
 22 712 l 1,1,2
 159 742 159 742 326 742 c 0,3,4
 439 742 439 742 496.5 677 c 128,-1,5
 554 612 554 612 554 502 c 0,6,7
 554 404 554 404 470 304 c 0,8,9
 430 257 430 257 405 232 c 128,-1,10
 380 207 380 207 344 174 c 1,11,-1
 554 174 l 1,12,-1
 554 0 l 1,13,-1
 30 0 l 1,14,-1
 30 168 l 1,15,16
 118 226 118 226 239 338 c 128,-1,17
 360 450 360 450 360 496 c 128,-1,18
 360 542 360 542 336 554.5 c 128,-1,19
 312 567 312 567 246 567 c 2,20,-1
 22 567 l 1,0,-1
EndSplineSet
Substitution2: "'dnom' Denominators in Latin lookup 19 subtable" two.denominator
Substitution2: "'sups' Superscript lookup 17 subtable" twosuperior
Substitution2: "'onum' Oldstyle Figures in Latin lookup 15 subtable" two.oldstyle
Substitution2: "'tnum' Tabular Numbers in Latin lookup 14 subtable" two.tnum
Substitution2: "'numr' Numerators in Latin lookup 13 subtable" two.numerator
Substitution2: "'sinf' Scientific Inferiors lookup 11 subtable" twoinferior
Substitution2: "'frac' Diagonal Fractions lookup 5 subtable" two.numerator
Substitution2: "'smcp' Lowercase to Small Capitals lookup 1 subtable" two.smcp
EndChar

StartChar: three
Encoding: 51 51 22
Width: 575
GlyphClass: 2
Flags: W
LayerCount: 2
Fore
SplineSet
262 -7 m 0,0,1
 101 -7 101 -7 23 21 c 1,2,-1
 24 168 l 1,3,-1
 242 168 l 2,4,5
 305 168 305 168 322.5 175.5 c 128,-1,6
 340 183 340 183 340 216 c 2,7,-1
 340 225 l 2,8,9
 340 257 340 257 321.5 265 c 128,-1,10
 303 273 303 273 248 276 c 2,11,-1
 85 283 l 1,12,-1
 85 441 l 1,13,-1
 248 451 l 1,14,15
 320 454 320 454 330 464 c 1,16,17
 342 478 342 478 342 500 c 2,18,-1
 342 509 l 2,19,20
 342 545 342 545 314 554 c 1,21,22
 291 560 291 560 248 560 c 2,23,-1
 17 560 l 1,24,-1
 17 706 l 1,25,26
 101 735 101 735 265 735 c 0,27,28
 304 735 304 735 345 734 c 0,29,30
 430 732 430 732 482 684 c 128,-1,31
 534 636 534 636 534 549 c 2,32,-1
 534 510 l 2,33,34
 534 394 534 394 450 364 c 1,35,36
 534 337 534 337 534 210 c 2,37,-1
 534 181 l 2,38,39
 534 91 534 91 482 42 c 128,-1,40
 430 -7 430 -7 338 -7 c 0,41,42
 300 -7 300 -7 262 -7 c 0,0,1
EndSplineSet
Substitution2: "'dnom' Denominators in Latin lookup 19 subtable" three.denominator
Substitution2: "'sups' Superscript lookup 17 subtable" threesuperior
Substitution2: "'onum' Oldstyle Figures in Latin lookup 15 subtable" three.oldstyle
Substitution2: "'tnum' Tabular Numbers in Latin lookup 14 subtable" three.tnum
Substitution2: "'numr' Numerators in Latin lookup 13 subtable" three.numerator
Substitution2: "'sinf' Scientific Inferiors lookup 11 subtable" threeinferior
Substitution2: "'frac' Diagonal Fractions lookup 5 subtable" three.numerator
Substitution2: "'smcp' Lowercase to Small Capitals lookup 1 subtable" three.smcp
EndChar

StartChar: four
Encoding: 52 52 23
Width: 635
GlyphClass: 2
Flags: W
LayerCount: 2
Fore
SplineSet
370 315 m 1,0,-1
 370 449 l 1,1,-1
 397 527 l 1,2,-1
 564 527 l 1,3,-1
 564 315 l 1,4,-1
 624 315 l 1,5,-1
 624 166 l 1,6,-1
 564 137 l 1,7,-1
 564 2 l 1,8,-1
 370 2 l 1,9,-1
 370 137 l 1,10,-1
 45 137 l 1,11,-1
 11 224 l 1,12,-1
 222 732 l 1,13,-1
 430 732 l 1,14,-1
 273 315 l 1,15,-1
 370 315 l 1,0,-1
EndSplineSet
Substitution2: "'dnom' Denominators in Latin lookup 19 subtable" four.denominator
Substitution2: "'sups' Superscript lookup 17 subtable" foursuperior
Substitution2: "'onum' Oldstyle Figures in Latin lookup 15 subtable" four.oldstyle
Substitution2: "'tnum' Tabular Numbers in Latin lookup 14 subtable" four.tnum
Substitution2: "'numr' Numerators in Latin lookup 13 subtable" four.numerator
Substitution2: "'sinf' Scientific Inferiors lookup 11 subtable" fourinferior
Substitution2: "'frac' Diagonal Fractions lookup 5 subtable" four.numerator
Substitution2: "'smcp' Lowercase to Small Capitals lookup 1 subtable" four.smcp
EndChar

StartChar: five
Encoding: 53 53 24
Width: 592
GlyphClass: 2
Flags: W
LayerCount: 2
Fore
SplineSet
251 456 m 1,0,1
 286 478 286 478 354 478 c 1,2,-1
 392 476 l 1,3,4
 476 469 476 469 518 416 c 128,-1,5
 560 363 560 363 560 280 c 2,6,-1
 560 186 l 2,7,8
 560 91 560 91 500 43.5 c 128,-1,9
 440 -4 440 -4 347 -4 c 128,-1,10
 254 -4 254 -4 195.5 0 c 128,-1,11
 137 4 137 4 43 20 c 1,12,-1
 43 175 l 1,13,-1
 307 175 l 2,14,15
 351 175 351 175 360 194 c 0,16,17
 366 207 366 207 366 228 c 2,18,-1
 366 259 l 2,19,20
 366 286 366 286 355.5 299 c 128,-1,21
 345 312 345 312 318 312 c 2,22,-1
 274 312 l 2,23,24
 250 312 250 312 240 301.5 c 128,-1,25
 230 291 230 291 230 267 c 1,26,-1
 44 267 l 1,27,-1
 66 732 l 1,28,-1
 529 732 l 1,29,-1
 529 558 l 1,30,-1
 255 558 l 1,31,-1
 251 456 l 1,0,1
EndSplineSet
Substitution2: "'dnom' Denominators in Latin lookup 19 subtable" five.denominator
Substitution2: "'sups' Superscript lookup 17 subtable" fivesuperior
Substitution2: "'onum' Oldstyle Figures in Latin lookup 15 subtable" five.oldstyle
Substitution2: "'tnum' Tabular Numbers in Latin lookup 14 subtable" five.tnum
Substitution2: "'numr' Numerators in Latin lookup 13 subtable" five.numerator
Substitution2: "'sinf' Scientific Inferiors lookup 11 subtable" fiveinferior
Substitution2: "'frac' Diagonal Fractions lookup 5 subtable" five.numerator
Substitution2: "'smcp' Lowercase to Small Capitals lookup 1 subtable" five.smcp
EndChar

StartChar: six
Encoding: 54 54 25
Width: 597
GlyphClass: 2
Flags: W
LayerCount: 2
Fore
SplineSet
46 223 m 128,-1,1
 37 291 37 291 37 385 c 128,-1,2
 37 479 37 479 51 547.5 c 128,-1,3
 65 616 65 616 90.5 653.5 c 128,-1,4
 116 691 116 691 144 709 c 0,5,6
 192 740 192 740 300.5 740 c 128,-1,7
 409 740 409 740 541 712 c 1,8,-1
 541 564 l 1,9,-1
 322 564 l 2,10,11
 257 564 257 564 242 526 c 0,12,13
 234 506 234 506 232.5 489 c 128,-1,14
 231 472 231 472 231 437 c 1,15,16
 257 451 257 451 287 454.5 c 128,-1,17
 317 458 317 458 384 458 c 0,18,19
 486 458 486 458 525.5 409 c 128,-1,20
 565 360 565 360 565 269 c 2,21,-1
 565 178 l 2,22,23
 565 -1 565 -1 374 -1 c 2,24,-1
 236 -1 l 2,25,26
 197 -1 197 -1 168 8.5 c 128,-1,27
 139 18 139 18 113.5 43.5 c 128,-1,28
 88 69 88 69 71.5 112 c 128,-1,0
 55 155 55 155 46 223 c 128,-1,1
231 294 m 1,29,30
 231 216 231 216 246 194.5 c 128,-1,31
 261 173 261 173 311 173 c 2,32,-1
 328 173 l 2,33,34
 353 173 353 173 362 182.5 c 128,-1,35
 371 192 371 192 371 219 c 2,36,-1
 371 239 l 2,37,38
 371 274 371 274 365 284 c 128,-1,39
 359 294 359 294 333 294 c 2,40,-1
 231 294 l 1,29,30
EndSplineSet
Substitution2: "'dnom' Denominators in Latin lookup 19 subtable" six.denominator
Substitution2: "'sups' Superscript lookup 17 subtable" sixsuperior
Substitution2: "'onum' Oldstyle Figures in Latin lookup 15 subtable" six.oldstyle
Substitution2: "'tnum' Tabular Numbers in Latin lookup 14 subtable" six.tnum
Substitution2: "'numr' Numerators in Latin lookup 13 subtable" six.numerator
Substitution2: "'sinf' Scientific Inferiors lookup 11 subtable" sixinferior
Substitution2: "'frac' Diagonal Fractions lookup 5 subtable" six.numerator
Substitution2: "'smcp' Lowercase to Small Capitals lookup 1 subtable" six.smcp
EndChar

StartChar: seven
Encoding: 55 55 26
Width: 561
GlyphClass: 2
Flags: W
LayerCount: 2
Fore
SplineSet
17 558 m 1,0,-1
 17 732 l 1,1,-1
 498 732 l 1,2,-1
 545 654 l 1,3,-1
 316 0 l 1,4,-1
 110 0 l 1,5,-1
 308 558 l 1,6,-1
 17 558 l 1,0,-1
EndSplineSet
Substitution2: "'dnom' Denominators in Latin lookup 19 subtable" seven.denominator
Substitution2: "'sups' Superscript lookup 17 subtable" sevensuperior
Substitution2: "'onum' Oldstyle Figures in Latin lookup 15 subtable" seven.oldstyle
Substitution2: "'tnum' Tabular Numbers in Latin lookup 14 subtable" seven.tnum
Substitution2: "'numr' Numerators in Latin lookup 13 subtable" seven.numerator
Substitution2: "'sinf' Scientific Inferiors lookup 11 subtable" seveninferior
Substitution2: "'frac' Diagonal Fractions lookup 5 subtable" seven.numerator
Substitution2: "'smcp' Lowercase to Small Capitals lookup 1 subtable" seven.smcp
EndChar

StartChar: eight
Encoding: 56 56 27
Width: 617
GlyphClass: 2
Flags: W
LayerCount: 2
Fore
SplineSet
42 179 m 2,0,-1
 42 232 l 2,1,2
 42 275 42 275 59.5 309 c 128,-1,3
 77 343 77 343 116 349 c 1,4,5
 58 380 58 380 47 432 c 0,6,7
 42 456 42 456 42 499 c 2,8,-1
 42 564 l 2,9,10
 42 737 42 737 238 737 c 2,11,-1
 394 737 l 2,12,13
 486 737 486 737 531 696.5 c 128,-1,14
 576 656 576 656 576 563 c 2,15,-1
 576 519 l 2,16,17
 576 470 576 470 549 432 c 0,18,19
 531 407 531 407 501 403 c 1,20,21
 576 389 576 389 576 261 c 2,22,-1
 576 185 l 2,23,24
 576 67 576 67 520 31 c 0,25,26
 492 13 492 13 463 6.5 c 128,-1,27
 434 0 434 0 393 0 c 2,28,-1
 238 0 l 2,29,30
 126 0 126 0 82 50 c 0,31,32
 55 81 55 81 50 108 c 0,33,34
 42 146 42 146 42 179 c 2,0,-1
236 210 m 2,35,36
 236 184 236 184 246.5 174 c 128,-1,37
 257 164 257 164 283 164 c 2,38,-1
 335 164 l 2,39,40
 365 164 365 164 373.5 174.5 c 128,-1,41
 382 185 382 185 382 210 c 2,42,-1
 382 250 l 2,43,44
 382 273 382 273 373 285 c 128,-1,45
 364 297 364 297 337 297 c 2,46,-1
 283 297 l 2,47,48
 254 297 254 297 245 285.5 c 128,-1,49
 236 274 236 274 236 250 c 2,50,-1
 236 210 l 2,35,36
236 494 m 2,51,52
 236 466 236 466 246 458 c 128,-1,53
 256 450 256 450 283 450 c 2,54,-1
 335 450 l 2,55,56
 366 450 366 450 374 459.5 c 128,-1,57
 382 469 382 469 382 494 c 2,58,-1
 382 524 l 2,59,60
 382 567 382 567 353 572 c 0,61,62
 347 573 347 573 335 573 c 2,63,-1
 283 573 l 2,64,65
 257 573 257 573 246.5 564.5 c 128,-1,66
 236 556 236 556 236 524 c 2,67,-1
 236 494 l 2,51,52
EndSplineSet
Substitution2: "'dnom' Denominators in Latin lookup 19 subtable" eight.denominator
Substitution2: "'sups' Superscript lookup 17 subtable" eightsuperior
Substitution2: "'onum' Oldstyle Figures in Latin lookup 15 subtable" eight.oldstyle
Substitution2: "'tnum' Tabular Numbers in Latin lookup 14 subtable" eight.tnum
Substitution2: "'numr' Numerators in Latin lookup 13 subtable" eight.numerator
Substitution2: "'sinf' Scientific Inferiors lookup 11 subtable" eightinferior
Substitution2: "'frac' Diagonal Fractions lookup 5 subtable" eight.numerator
Substitution2: "'smcp' Lowercase to Small Capitals lookup 1 subtable" eight.smcp
EndChar

StartChar: nine
Encoding: 57 57 28
Width: 597
GlyphClass: 2
Flags: W
LayerCount: 2
Fore
SplineSet
34 463 m 2,0,-1
 34 554 l 2,1,2
 34 733 34 733 225 733 c 2,3,-1
 363 733 l 2,4,5
 402 733 402 733 431 723.5 c 128,-1,6
 460 714 460 714 485.5 688.5 c 128,-1,7
 511 663 511 663 528 620 c 0,8,9
 562 530 562 530 562 348 c 0,10,11
 562 157 562 157 508 78 c 0,12,13
 483 41 483 41 455 23 c 0,14,15
 407 -8 407 -8 298.5 -8 c 128,-1,16
 190 -8 190 -8 58 20 c 1,17,-1
 58 168 l 1,18,-1
 277 168 l 2,19,20
 342 168 342 168 357 206 c 0,21,22
 365 226 365 226 366.5 243 c 128,-1,23
 368 260 368 260 368 295 c 1,24,25
 342 281 342 281 312 277.5 c 128,-1,26
 282 274 282 274 215 274 c 0,27,28
 113 274 113 274 73.5 323 c 128,-1,29
 34 372 34 372 34 463 c 2,0,-1
228 493 m 2,30,31
 228 458 228 458 234 448 c 128,-1,32
 240 438 240 438 266 438 c 2,33,-1
 368 438 l 1,34,35
 368 516 368 516 353 537.5 c 128,-1,36
 338 559 338 559 288 559 c 2,37,-1
 271 559 l 2,38,39
 246 559 246 559 237 549.5 c 128,-1,40
 228 540 228 540 228 513 c 2,41,-1
 228 493 l 2,30,31
EndSplineSet
Substitution2: "'dnom' Denominators in Latin lookup 19 subtable" nine.denominator
Substitution2: "'sups' Superscript lookup 17 subtable" ninesuperior
Substitution2: "'onum' Oldstyle Figures in Latin lookup 15 subtable" nine.oldstyle
Substitution2: "'tnum' Tabular Numbers in Latin lookup 14 subtable" nine.tnum
Substitution2: "'numr' Numerators in Latin lookup 13 subtable" nine.numerator
Substitution2: "'sinf' Scientific Inferiors lookup 11 subtable" nineinferior
Substitution2: "'frac' Diagonal Fractions lookup 5 subtable" nine.numerator
Substitution2: "'smcp' Lowercase to Small Capitals lookup 1 subtable" nine.smcp
EndChar

StartChar: colon
Encoding: 58 58 29
Width: 257
GlyphClass: 2
Flags: W
LayerCount: 2
Fore
SplineSet
48 23 m 2,0,-1
 48 140 l 2,1,2
 48 165 48 165 72 165 c 2,3,-1
 185 165 l 2,4,5
 210 165 210 165 210 140 c 2,6,-1
 210 23 l 2,7,8
 210 0 210 0 185 0 c 2,9,-1
 72 0 l 2,10,11
 48 0 48 0 48 23 c 2,0,-1
48 389 m 2,12,-1
 48 506 l 2,13,14
 48 531 48 531 72 531 c 2,15,-1
 185 531 l 2,16,17
 210 531 210 531 210 506 c 2,18,-1
 210 389 l 2,19,20
 210 366 210 366 185 366 c 2,21,-1
 72 366 l 2,22,23
 48 366 48 366 48 389 c 2,12,-1
EndSplineSet
EndChar

StartChar: semicolon
Encoding: 59 59 30
Width: 257
GlyphClass: 2
Flags: W
LayerCount: 2
Fore
SplineSet
48 25 m 2,0,-1
 48 139 l 2,1,2
 48 166 48 166 73 166 c 2,3,-1
 184 166 l 2,4,5
 208 166 208 166 208 139 c 2,6,-1
 208 -11 l 2,7,8
 208 -46 208 -46 192 -66.5 c 128,-1,9
 176 -87 176 -87 154.5 -92 c 128,-1,10
 133 -97 133 -97 122 -97 c 0,11,12
 87 -97 87 -97 69 -92 c 2,13,-1
 53 -88 l 1,14,-1
 53 -26 l 1,15,16
 73 -27 73 -27 78.5 -21 c 128,-1,17
 84 -15 84 -15 84 -5 c 2,18,-1
 84 0 l 1,19,-1
 73 0 l 2,20,21
 48 0 48 0 48 25 c 2,0,-1
48 389 m 2,22,-1
 48 506 l 2,23,24
 48 531 48 531 72 531 c 2,25,-1
 185 531 l 2,26,27
 210 531 210 531 210 506 c 2,28,-1
 210 389 l 2,29,30
 210 366 210 366 185 366 c 2,31,-1
 72 366 l 2,32,33
 48 366 48 366 48 389 c 2,22,-1
EndSplineSet
EndChar

StartChar: less
Encoding: 60 60 31
Width: 431
GlyphClass: 2
Flags: W
LayerCount: 2
Fore
SplineSet
28 266 m 1,0,-1
 28 436 l 1,1,-1
 403 566 l 1,2,-1
 403 396 l 1,3,-1
 218 353 l 1,4,-1
 403 300 l 1,5,-1
 403 130 l 1,6,-1
 28 266 l 1,0,-1
EndSplineSet
EndChar

StartChar: equal
Encoding: 61 61 32
Width: 467
GlyphClass: 2
Flags: W
LayerCount: 2
Fore
SplineSet
20 162 m 1,0,-1
 20 316 l 1,1,-1
 447 316 l 1,2,-1
 447 162 l 1,3,-1
 20 162 l 1,0,-1
20 381 m 1,4,-1
 20 535 l 1,5,-1
 447 535 l 1,6,-1
 447 381 l 1,7,-1
 20 381 l 1,4,-1
EndSplineSet
EndChar

StartChar: greater
Encoding: 62 62 33
Width: 431
GlyphClass: 2
Flags: W
LayerCount: 2
Fore
SplineSet
28 130 m 1,0,-1
 28 300 l 1,1,-1
 213 353 l 1,2,-1
 28 396 l 1,3,-1
 28 566 l 1,4,-1
 403 436 l 1,5,-1
 403 266 l 1,6,-1
 28 130 l 1,0,-1
EndSplineSet
EndChar

StartChar: question
Encoding: 63 63 34
Width: 544
GlyphClass: 2
Flags: W
LayerCount: 2
Fore
SplineSet
11 564 m 1,0,-1
 11 709 l 1,1,2
 128 740 128 740 251 740 c 0,3,4
 272 740 272 740 293 739 c 1,5,6
 400 739 400 739 461 677 c 128,-1,7
 522 615 522 615 522 534 c 2,8,-1
 522 483 l 2,9,10
 522 375 522 375 476.5 325.5 c 128,-1,11
 431 276 431 276 326 276 c 0,12,13
 318 276 318 276 309 276 c 1,14,-1
 309 195 l 1,15,-1
 164 195 l 1,16,-1
 164 417 l 1,17,-1
 256 417 l 1,18,19
 295 419 295 419 312 434 c 128,-1,20
 329 449 329 449 329 487 c 2,21,-1
 329 502 l 2,22,23
 329 564 329 564 242 564 c 2,24,-1
 11 564 l 1,0,-1
155 23 m 2,25,-1
 155 140 l 2,26,27
 155 165 155 165 179 165 c 2,28,-1
 292 165 l 2,29,30
 317 165 317 165 317 140 c 2,31,-1
 317 23 l 2,32,33
 317 0 317 0 292 0 c 2,34,-1
 179 0 l 2,35,36
 155 0 155 0 155 23 c 2,25,-1
EndSplineSet
Substitution2: "'smcp' Lowercase to Small Capitals lookup 1 subtable" question.smcp
EndChar

StartChar: at
Encoding: 64 64 35
Width: 888
GlyphClass: 2
Flags: W
LayerCount: 2
Fore
SplineSet
37 20 m 2,0,-1
 37 288 l 2,1,2
 37 390 37 390 93.5 451 c 128,-1,3
 150 512 150 512 275 512 c 2,4,-1
 448 512 l 2,5,6
 562 512 562 512 602 470 c 0,7,8
 641 429 641 429 641 342 c 2,9,-1
 641 0 l 1,10,-1
 523 0 l 1,11,-1
 499 54 l 1,12,13
 441 -9 441 -9 369.5 -9 c 128,-1,14
 298 -9 298 -9 266.5 35 c 128,-1,15
 235 79 235 79 235 138 c 2,16,-1
 235 171 l 2,17,18
 235 314 235 314 394 314 c 2,19,-1
 497 314 l 1,20,21
 498 329 498 329 497 330 c 1,22,23
 497 354 497 354 487.5 361 c 128,-1,24
 478 368 478 368 453 368 c 2,25,-1
 275 368 l 2,26,27
 231 368 231 368 206 350 c 128,-1,28
 181 332 181 332 181 278 c 2,29,-1
 181 40 l 2,30,31
 181 -21 181 -21 209.5 -47 c 128,-1,32
 238 -73 238 -73 275 -73 c 2,33,-1
 594 -73 l 2,34,35
 652 -73 652 -73 674.5 -44.5 c 128,-1,36
 697 -16 697 -16 697 40 c 2,37,-1
 697 452 l 2,38,39
 697 509 697 509 669 540 c 128,-1,40
 641 571 641 571 594 571 c 2,41,-1
 190 571 l 1,42,-1
 190 688 l 1,43,44
 322 715 322 715 496 715 c 0,45,46
 502 715 502 715 508 715 c 2,47,-1
 594 715 l 2,48,49
 689 715 689 715 760 660 c 0,50,51
 797 632 797 632 819 578.5 c 128,-1,52
 841 525 841 525 841 452 c 2,53,-1
 841 40 l 2,54,55
 841 -96 841 -96 780 -157 c 128,-1,56
 719 -218 719 -218 604 -218 c 2,57,-1
 275 -218 l 2,58,59
 172 -218 172 -218 104.5 -162 c 128,-1,60
 37 -106 37 -106 37 20 c 2,0,-1
424 135 m 0,61,62
 482 135 482 135 497 169 c 1,63,-1
 497 212 l 1,64,-1
 419 206 l 2,65,66
 402 204 402 204 395.5 199 c 128,-1,67
 389 194 389 194 389 177 c 1,68,69
 388 176 388 176 388 171 c 128,-1,70
 388 166 388 166 389 165 c 1,71,72
 389 149 389 149 396.5 142 c 128,-1,73
 404 135 404 135 424 135 c 0,61,62
EndSplineSet
Substitution2: "'case' Case-Sensitive Forms lookup 18 subtable" at.alt
Substitution2: "'smcp' Lowercase to Small Capitals lookup 1 subtable" at.smcp
EndChar

StartChar: A
Encoding: 65 65 36
Width: 711
GlyphClass: 2
Flags: W
LayerCount: 2
Fore
SplineSet
25 0 m 1,0,-1
 254 732 l 1,1,-1
 483 732 l 1,2,-1
 705 0 l 1,3,-1
 506 0 l 1,4,-1
 463 128 l 1,5,-1
 266 128 l 1,6,-1
 224 0 l 1,7,-1
 25 0 l 1,0,-1
310 293 m 1,8,-1
 424 293 l 1,9,-1
 371 489 l 1,10,-1
 310 293 l 1,8,-1
EndSplineSet
Substitution2: "'c2sc' Capitals to Small Capitals in Latin lookup 2 subtable" a.smcp
EndChar

StartChar: B
Encoding: 66 66 37
Width: 611
GlyphClass: 2
Flags: W
LayerCount: 2
Fore
SplineSet
45 0 m 1,0,-1
 45 732 l 1,1,-1
 363 732 l 2,2,3
 583 732 583 732 583 532 c 0,4,5
 583 479 583 479 554.5 431.5 c 128,-1,6
 526 384 526 384 476 380 c 1,7,8
 531 371 531 371 566 326.5 c 128,-1,9
 601 282 601 282 601 224 c 0,10,11
 601 104 601 104 544 52 c 128,-1,12
 487 0 487 0 368 0 c 2,13,-1
 45 0 l 1,0,-1
239 164 m 1,14,-1
 358 164 l 2,15,16
 385 164 385 164 396 181.5 c 128,-1,17
 407 199 407 199 407 234 c 0,18,19
 407 306 407 306 358 306 c 2,20,-1
 239 306 l 1,21,-1
 239 164 l 1,14,-1
239 460 m 1,22,-1
 348 460 l 2,23,24
 370 460 370 460 381.5 474.5 c 128,-1,25
 393 489 393 489 393 511 c 0,26,27
 393 568 393 568 348 568 c 2,28,-1
 239 568 l 1,29,-1
 239 460 l 1,22,-1
EndSplineSet
Substitution2: "'c2sc' Capitals to Small Capitals in Latin lookup 2 subtable" b.smcp
EndChar

StartChar: C
Encoding: 67 67 38
Width: 567
GlyphClass: 2
Flags: W
LayerCount: 2
Fore
SplineSet
548 549 m 1,0,1
 446 566 446 566 365.5 566 c 128,-1,2
 285 566 285 566 267 555 c 0,3,4
 225 530 225 530 225 366 c 0,5,6
 225 242 225 242 247.5 205 c 128,-1,7
 270 168 270 168 345 168 c 0,8,9
 449 168 449 168 520 174 c 1,10,-1
 548 177 l 1,11,-1
 548 26 l 1,12,13
 500 6 500 6 452 0 c 128,-1,14
 404 -6 404 -6 356 -6 c 128,-1,15
 308 -6 308 -6 284 -6 c 0,16,17
 148 -4 148 -4 89.5 87.5 c 128,-1,18
 31 179 31 179 31 367.5 c 128,-1,19
 31 556 31 556 86.5 648 c 128,-1,20
 142 740 142 740 284 740 c 0,21,22
 388 740 388 740 434.5 732.5 c 128,-1,23
 481 725 481 725 548 700 c 1,24,-1
 548 549 l 1,0,1
EndSplineSet
Substitution2: "'c2sc' Capitals to Small Capitals in Latin lookup 2 subtable" c.smcp
EndChar

StartChar: D
Encoding: 68 68 39
Width: 667
GlyphClass: 2
Flags: W
LayerCount: 2
Fore
SplineSet
45 0 m 1,0,-1
 45 732 l 1,1,-1
 388 732 l 2,2,3
 599 732 599 732 630 482 c 0,4,5
 637 429 637 429 637 363 c 0,6,7
 637 173 637 173 576 86.5 c 128,-1,8
 515 0 515 0 388 0 c 2,9,-1
 45 0 l 1,0,-1
239 164 m 1,10,-1
 368 164 l 2,11,12
 410 164 410 164 426.5 210 c 128,-1,13
 443 256 443 256 443 353.5 c 128,-1,14
 443 451 443 451 433.5 497 c 128,-1,15
 424 543 424 543 409 555.5 c 128,-1,16
 394 568 394 568 368 568 c 2,17,-1
 239 568 l 1,18,-1
 239 164 l 1,10,-1
EndSplineSet
Substitution2: "'c2sc' Capitals to Small Capitals in Latin lookup 2 subtable" d.smcp
EndChar

StartChar: E
Encoding: 69 69 40
Width: 567
GlyphClass: 2
Flags: W
LayerCount: 2
Fore
SplineSet
40 161 m 2,0,-1
 40 562 l 2,1,2
 40 732 40 732 226 732 c 0,3,4
 436 732 436 732 553 716 c 1,5,-1
 553 553 l 1,6,-1
 286 553 l 2,7,8
 262 553 262 553 249.5 543.5 c 128,-1,9
 237 534 237 534 235.5 524.5 c 128,-1,10
 234 515 234 515 234 497 c 2,11,-1
 234 453 l 1,12,-1
 503 442 l 1,13,-1
 503 281 l 1,14,-1
 234 272 l 1,15,-1
 234 228 l 2,16,17
 234 190 234 190 255 182 c 0,18,19
 272 176 272 176 296 176 c 2,20,-1
 553 176 l 1,21,-1
 553 14 l 1,22,23
 452 1 452 1 292 -2 c 2,24,-1
 236 -3 l 2,25,26
 228 -3 228 -3 216.5 -3 c 128,-1,27
 205 -3 205 -3 186.5 -1.5 c 128,-1,28
 168 0 168 0 139.5 10 c 128,-1,29
 111 20 111 20 90 36.5 c 128,-1,30
 69 53 69 53 54.5 85 c 128,-1,31
 40 117 40 117 40 161 c 2,0,-1
EndSplineSet
Substitution2: "'c2sc' Capitals to Small Capitals in Latin lookup 2 subtable" e.smcp
EndChar

StartChar: F
Encoding: 70 70 41
Width: 567
GlyphClass: 2
Flags: W
LayerCount: 2
Fore
SplineSet
40 0 m 1,0,-1
 40 558 l 2,1,2
 40 656 40 656 102 697 c 0,3,4
 154 732 154 732 226 732 c 0,5,6
 436 732 436 732 553 716 c 1,7,-1
 553 553 l 1,8,-1
 286 553 l 2,9,10
 262 553 262 553 249.5 543.5 c 128,-1,11
 237 534 237 534 235.5 524.5 c 128,-1,12
 234 515 234 515 234 497 c 2,13,-1
 234 453 l 1,14,-1
 503 442 l 1,15,-1
 503 281 l 1,16,-1
 234 272 l 1,17,-1
 234 0 l 1,18,-1
 40 0 l 1,0,-1
EndSplineSet
Substitution2: "'c2sc' Capitals to Small Capitals in Latin lookup 2 subtable" f.smcp
EndChar

StartChar: G
Encoding: 71 71 42
Width: 615
GlyphClass: 2
Flags: W
LayerCount: 2
Fore
SplineSet
35.5 249.5 m 128,-1,1
 31 301 31 301 31 380.5 c 128,-1,2
 31 460 31 460 41.5 523 c 128,-1,3
 52 586 52 586 78 638 c 0,4,5
 130 740 130 740 274 740 c 0,6,7
 396 740 396 740 437.5 735 c 128,-1,8
 479 730 479 730 578 703 c 1,9,-1
 578 554 l 1,10,11
 577 554 577 554 563 556.5 c 128,-1,12
 549 559 549 559 525.5 562 c 128,-1,13
 502 565 502 565 474 568 c 0,14,15
 398 576 398 576 332 576 c 128,-1,16
 266 576 266 576 245.5 534.5 c 128,-1,17
 225 493 225 493 225 367 c 128,-1,18
 225 241 225 241 240 207 c 128,-1,19
 255 173 255 173 319 173 c 0,20,21
 347 173 347 173 365 184.5 c 128,-1,22
 383 196 383 196 387 208 c 2,23,-1
 391 219 l 1,24,-1
 391 294 l 1,25,-1
 342 294 l 1,26,-1
 342 414 l 1,27,28
 389 439 389 439 517 439 c 0,29,30
 549 439 549 439 585 436 c 1,31,-1
 585 0 l 1,32,-1
 448 0 l 1,33,-1
 393 49 l 1,34,35
 371 20 371 20 348 10 c 1,36,37
 316 -6 316 -6 258.5 -6 c 128,-1,38
 201 -6 201 -6 161 11.5 c 128,-1,39
 121 29 121 29 95.5 61.5 c 128,-1,40
 70 94 70 94 55 146 c 128,-1,0
 40 198 40 198 35.5 249.5 c 128,-1,1
EndSplineSet
Substitution2: "'c2sc' Capitals to Small Capitals in Latin lookup 2 subtable" g.smcp
EndChar

StartChar: H
Encoding: 72 72 43
Width: 636
GlyphClass: 2
Flags: W
LayerCount: 2
Fore
SplineSet
45 0 m 1,0,-1
 45 732 l 1,1,-1
 239 732 l 1,2,-1
 239 441 l 1,3,-1
 409 441 l 1,4,-1
 409 732 l 1,5,-1
 603 732 l 1,6,-1
 603 0 l 1,7,-1
 409 0 l 1,8,-1
 409 267 l 1,9,-1
 239 267 l 1,10,-1
 239 0 l 1,11,-1
 45 0 l 1,0,-1
EndSplineSet
Substitution2: "'c2sc' Capitals to Small Capitals in Latin lookup 2 subtable" h.smcp
EndChar

StartChar: I
Encoding: 73 73 44
Width: 272
GlyphClass: 2
Flags: W
LayerCount: 2
Fore
SplineSet
45 0 m 1,0,-1
 45 732 l 1,1,-1
 239 732 l 1,2,-1
 239 0 l 1,3,-1
 45 0 l 1,0,-1
EndSplineSet
Substitution2: "'c2sc' Capitals to Small Capitals in Latin lookup 2 subtable" i.smcp
EndChar

StartChar: J
Encoding: 74 74 45
Width: 355
GlyphClass: 2
Flags: W
LayerCount: 2
Fore
SplineSet
268 18 m 1,0,1
 231 -4 231 -4 148 -4 c 128,-1,2
 65 -4 65 -4 20 25 c 1,3,-1
 20 179 l 1,4,5
 60 179 60 179 81.5 182.5 c 128,-1,6
 103 186 103 186 113.5 199.5 c 128,-1,7
 124 213 124 213 126 227.5 c 128,-1,8
 128 242 128 242 128 276 c 2,9,-1
 128 732 l 1,10,-1
 322 732 l 1,11,-1
 322 165 l 2,12,13
 322 53 322 53 268 18 c 1,0,1
EndSplineSet
Substitution2: "'c2sc' Capitals to Small Capitals in Latin lookup 2 subtable" j.smcp
EndChar

StartChar: K
Encoding: 75 75 46
Width: 660
GlyphClass: 2
Flags: W
LayerCount: 2
Fore
SplineSet
45 0 m 1,0,-1
 45 732 l 1,1,-1
 229 732 l 1,2,-1
 229 444 l 1,3,-1
 269 444 l 1,4,-1
 418 732 l 1,5,-1
 641 732 l 1,6,-1
 440 364 l 1,7,-1
 641 0 l 1,8,-1
 418 0 l 1,9,-1
 269 280 l 1,10,-1
 230 280 l 1,11,-1
 230 0 l 1,12,-1
 45 0 l 1,0,-1
EndSplineSet
Substitution2: "'c2sc' Capitals to Small Capitals in Latin lookup 2 subtable" k.smcp
EndChar

StartChar: L
Encoding: 76 76 47
Width: 526
GlyphClass: 2
Flags: W
LayerCount: 2
Fore
SplineSet
45 156 m 2,0,-1
 45 732 l 1,1,-1
 239 732 l 1,2,-1
 239 226 l 2,3,4
 239 188 239 188 260 180 c 0,5,6
 277 174 277 174 301 174 c 2,7,-1
 507 174 l 1,8,-1
 507 0 l 1,9,-1
 211 0 l 2,10,11
 137 0 137 0 91 38 c 128,-1,12
 45 76 45 76 45 156 c 2,0,-1
EndSplineSet
Substitution2: "'c2sc' Capitals to Small Capitals in Latin lookup 2 subtable" l.smcp
EndChar

StartChar: M
Encoding: 77 77 48
Width: 886
GlyphClass: 2
Flags: W
LayerCount: 2
Fore
SplineSet
31 0 m 1,0,-1
 109 732 l 1,1,-1
 379 732 l 1,2,-1
 441 321 l 1,3,-1
 507 732 l 1,4,-1
 777 732 l 1,5,-1
 856 0 l 1,6,-1
 665 0 l 1,7,-1
 615 399 l 1,8,-1
 554 0 l 1,9,-1
 332 0 l 1,10,-1
 268 399 l 1,11,-1
 222 0 l 1,12,-1
 31 0 l 1,0,-1
EndSplineSet
AlternateSubs2: "'salt' Stylistic Alternatives in Latin lookup 16 subtable" M.salt
Substitution2: "'c2sc' Capitals to Small Capitals in Latin lookup 2 subtable" m.smcp
EndChar

StartChar: N
Encoding: 78 78 49
Width: 677
GlyphClass: 2
Flags: W
LayerCount: 2
Fore
SplineSet
45 0 m 1,0,-1
 45 732 l 1,1,-1
 241 732 l 1,2,-1
 450 358 l 1,3,-1
 450 732 l 1,4,-1
 644 732 l 1,5,-1
 644 0 l 1,6,-1
 450 0 l 1,7,-1
 240 364 l 1,8,-1
 240 0 l 1,9,-1
 45 0 l 1,0,-1
EndSplineSet
AlternateSubs2: "'salt' Stylistic Alternatives in Latin lookup 16 subtable" N.salt
Substitution2: "'c2sc' Capitals to Small Capitals in Latin lookup 2 subtable" n.smcp
EndChar

StartChar: O
Encoding: 79 79 50
Width: 667
GlyphClass: 2
Flags: W
LayerCount: 2
Fore
SplineSet
46.5 218.5 m 128,-1,1
 37 279 37 279 37 356 c 128,-1,2
 37 433 37 433 45.5 489.5 c 128,-1,3
 54 546 54 546 67.5 585.5 c 128,-1,4
 81 625 81 625 103.5 653 c 128,-1,5
 126 681 126 681 149.5 697 c 128,-1,6
 173 713 173 713 206 722 c 0,7,8
 258 737 258 737 319.5 737 c 128,-1,9
 381 737 381 737 411.5 734 c 128,-1,10
 442 731 442 731 475.5 722 c 128,-1,11
 509 713 509 713 532.5 697 c 128,-1,12
 556 681 556 681 578 653 c 128,-1,13
 600 625 600 625 614 586 c 0,14,15
 643 499 643 499 643 382.5 c 128,-1,16
 643 266 643 266 628 199 c 128,-1,17
 613 132 613 132 589 93 c 128,-1,18
 565 54 565 54 524 32 c 128,-1,19
 483 10 483 10 441.5 3 c 128,-1,20
 400 -4 400 -4 344.5 -4 c 128,-1,21
 289 -4 289 -4 254.5 0 c 128,-1,22
 220 4 220 4 182 16.5 c 128,-1,23
 144 29 144 29 120 54 c 128,-1,24
 96 79 96 79 76 118.5 c 128,-1,0
 56 158 56 158 46.5 218.5 c 128,-1,1
240.5 494 m 128,-1,26
 231 452 231 452 231 347 c 128,-1,27
 231 242 231 242 250 206 c 128,-1,28
 269 170 269 170 337 170 c 128,-1,29
 405 170 405 170 427 208 c 128,-1,30
 449 246 449 246 449 337 c 128,-1,31
 449 428 449 428 445 465 c 128,-1,32
 441 502 441 502 428.5 525.5 c 128,-1,33
 416 549 416 549 396 556 c 128,-1,34
 376 563 376 563 334.5 563 c 128,-1,35
 293 563 293 563 271.5 549.5 c 128,-1,25
 250 536 250 536 240.5 494 c 128,-1,26
EndSplineSet
Substitution2: "'c2sc' Capitals to Small Capitals in Latin lookup 2 subtable" o.smcp
EndChar

StartChar: P
Encoding: 80 80 51
Width: 620
GlyphClass: 2
Flags: W
LayerCount: 2
Fore
SplineSet
44 0 m 1,0,-1
 44 732 l 1,1,-1
 370 732 l 2,2,3
 493 732 493 732 546 670 c 1,4,5
 568 646 568 646 582 601 c 128,-1,6
 596 556 596 556 596 492 c 128,-1,7
 596 428 596 428 581 379 c 128,-1,8
 566 330 566 330 543.5 304.5 c 128,-1,9
 521 279 521 279 488.5 265 c 128,-1,10
 456 251 456 251 435 249 c 128,-1,11
 414 247 414 247 399 247 c 128,-1,12
 384 247 384 247 363 248.5 c 128,-1,13
 342 250 342 250 292 258 c 128,-1,14
 242 266 242 266 238 268 c 1,15,-1
 238 0 l 1,16,-1
 44 0 l 1,0,-1
238 412 m 1,17,-1
 350 412 l 2,18,19
 401 412 401 412 401 489.5 c 128,-1,20
 401 567 401 567 350 567 c 2,21,-1
 238 567 l 1,22,-1
 238 412 l 1,17,-1
EndSplineSet
Substitution2: "'c2sc' Capitals to Small Capitals in Latin lookup 2 subtable" p.smcp
EndChar

StartChar: Q
Encoding: 81 81 52
Width: 667
GlyphClass: 2
Flags: W
LayerCount: 2
Fore
SplineSet
46.5 218.5 m 128,-1,1
 37 279 37 279 37 356 c 128,-1,2
 37 433 37 433 45.5 489.5 c 128,-1,3
 54 546 54 546 67.5 585.5 c 128,-1,4
 81 625 81 625 103.5 653 c 128,-1,5
 126 681 126 681 149.5 697 c 128,-1,6
 173 713 173 713 206 722 c 0,7,8
 258 737 258 737 319.5 737 c 128,-1,9
 381 737 381 737 411.5 734 c 128,-1,10
 442 731 442 731 475.5 722 c 128,-1,11
 509 713 509 713 532.5 697 c 128,-1,12
 556 681 556 681 578 653 c 128,-1,13
 600 625 600 625 614 586 c 0,14,15
 643 499 643 499 643 361 c 0,16,17
 643 199 643 199 604 123 c 0,18,19
 584 84 584 84 559.5 58.5 c 128,-1,20
 535 33 535 33 498 20 c 0,21,22
 439 -2 439 -2 364 -3 c 128,-1,23
 289 -4 289 -4 254.5 0 c 128,-1,24
 220 4 220 4 182 16.5 c 128,-1,25
 144 29 144 29 120 54 c 128,-1,26
 96 79 96 79 76 118.5 c 128,-1,0
 56 158 56 158 46.5 218.5 c 128,-1,1
240.5 494 m 128,-1,28
 231 452 231 452 231 347 c 128,-1,29
 231 242 231 242 250 206 c 128,-1,30
 269 170 269 170 337 170 c 128,-1,31
 405 170 405 170 427 208 c 128,-1,32
 449 246 449 246 449 337 c 128,-1,33
 449 428 449 428 445 465 c 128,-1,34
 441 502 441 502 428.5 525.5 c 128,-1,35
 416 549 416 549 396 556 c 128,-1,36
 376 563 376 563 334.5 563 c 128,-1,37
 293 563 293 563 271.5 549.5 c 128,-1,27
 250 536 250 536 240.5 494 c 128,-1,28
286 -33 m 1,38,-1
 388 -33 l 1,39,40
 392 -77 392 -77 465 -77 c 0,41,42
 498 -77 498 -77 546 -68 c 1,43,-1
 546 -208 l 1,44,45
 517 -212 517 -212 486 -212 c 0,46,47
 385 -212 385 -212 326 -149 c 0,48,49
 286 -105 286 -105 286 -33 c 1,38,-1
EndSplineSet
Substitution2: "'c2sc' Capitals to Small Capitals in Latin lookup 2 subtable" q.smcp
EndChar

StartChar: R
Encoding: 82 82 53
Width: 619
GlyphClass: 2
Flags: W
LayerCount: 2
Fore
SplineSet
44 0 m 1,0,-1
 44 732 l 1,1,-1
 371 732 l 2,2,3
 477 732 477 732 536 678.5 c 128,-1,4
 595 625 595 625 595 497 c 0,5,6
 595 372 595 372 560 328 c 1,7,8
 541 306 541 306 526.5 296.5 c 128,-1,9
 512 287 512 287 487 277 c 1,10,-1
 613 0 l 1,11,-1
 392 0 l 1,12,-1
 298 259 l 1,13,-1
 238 273 l 1,14,-1
 238 0 l 1,15,-1
 44 0 l 1,0,-1
239 419 m 1,16,-1
 346 419 l 2,17,18
 381 419 381 419 390.5 436 c 128,-1,19
 400 453 400 453 400 493 c 128,-1,20
 400 533 400 533 388.5 550 c 128,-1,21
 377 567 377 567 346 567 c 2,22,-1
 239 567 l 1,23,-1
 239 419 l 1,16,-1
EndSplineSet
Substitution2: "'c2sc' Capitals to Small Capitals in Latin lookup 2 subtable" r.smcp
EndChar

StartChar: S
Encoding: 83 83 54
Width: 596
GlyphClass: 2
Flags: W
LayerCount: 2
Fore
SplineSet
37 479 m 2,0,-1
 37 540 l 2,1,2
 37 634 37 634 91.5 683 c 128,-1,3
 146 732 146 732 235 738 c 0,4,5
 274 741 274 741 311 741 c 0,6,7
 448 741 448 741 545 705 c 1,8,-1
 545 554 l 1,9,10
 454 564 454 564 305 564 c 0,11,12
 261 564 261 564 246 557 c 128,-1,13
 231 550 231 550 231 520 c 2,14,-1
 231 509 l 2,15,16
 231 483 231 483 242 472 c 128,-1,17
 253 461 253 461 291 461 c 2,18,-1
 385 461 l 2,19,20
 504 461 504 461 550 358 c 0,21,22
 572 308 572 308 572 249 c 2,23,-1
 572 216 l 2,24,25
 572 -8 572 -8 369 -8 c 0,26,27
 223 -8 223 -8 178 -3.5 c 128,-1,28
 133 1 133 1 60 26 c 1,29,-1
 60 177 l 1,30,31
 170 166 170 166 319 166 c 0,32,33
 351 166 351 166 364.5 175.5 c 128,-1,34
 378 185 378 185 378 207 c 2,35,-1
 378 223 l 2,36,37
 378 246 378 246 367 256.5 c 128,-1,38
 356 267 356 267 325 267 c 2,39,-1
 235 267 l 2,40,41
 181 267 181 267 141.5 285 c 128,-1,42
 102 303 102 303 83 327 c 128,-1,43
 64 351 64 351 52 384 c 1,44,45
 37 430 37 430 37 479 c 2,0,-1
EndSplineSet
Substitution2: "'c2sc' Capitals to Small Capitals in Latin lookup 2 subtable" s.smcp
EndChar

StartChar: T
Encoding: 84 84 55
Width: 607
GlyphClass: 2
Flags: W
LayerCount: 2
Fore
SplineSet
20 558 m 1,0,-1
 20 732 l 1,1,-1
 588 732 l 1,2,-1
 588 558 l 1,3,-1
 398 558 l 1,4,-1
 398 0 l 1,5,-1
 204 0 l 1,6,-1
 204 558 l 1,7,-1
 20 558 l 1,0,-1
EndSplineSet
Substitution2: "'c2sc' Capitals to Small Capitals in Latin lookup 2 subtable" t.smcp
EndChar

StartChar: U
Encoding: 85 85 56
Width: 655
GlyphClass: 2
Flags: W
LayerCount: 2
Fore
SplineSet
45 320 m 2,0,-1
 45 732 l 1,1,-1
 239 732 l 1,2,-1
 239 320 l 2,3,4
 239 218 239 218 261 194 c 0,5,6
 285 169 285 169 336 169 c 0,7,8
 383 169 383 169 406 196 c 1,9,10
 427 218 427 218 427 320 c 2,11,-1
 427 732 l 1,12,-1
 622 732 l 1,13,-1
 622 320 l 2,14,15
 622 164 622 164 574 92 c 0,16,17
 558 67 558 67 543 51.5 c 128,-1,18
 528 36 528 36 504.5 24.5 c 128,-1,19
 481 13 481 13 464.5 7.5 c 128,-1,20
 448 2 448 2 420 -1 c 0,21,22
 384 -5 384 -5 358.5 -5 c 128,-1,23
 333 -5 333 -5 303 -5 c 128,-1,24
 273 -5 273 -5 244.5 -3 c 128,-1,25
 216 -1 216 -1 171.5 15.5 c 128,-1,26
 127 32 127 32 104 64.5 c 128,-1,27
 81 97 81 97 63 161.5 c 128,-1,28
 45 226 45 226 45 320 c 2,0,-1
EndSplineSet
Substitution2: "'c2sc' Capitals to Small Capitals in Latin lookup 2 subtable" u.smcp
EndChar

StartChar: V
Encoding: 86 86 57
Width: 699
GlyphClass: 2
Flags: W
LayerCount: 2
Fore
SplineSet
25 732 m 1,0,-1
 229 732 l 1,1,-1
 350 238 l 1,2,-1
 481 732 l 1,3,-1
 685 732 l 1,4,-1
 466 0 l 1,5,-1
 232 0 l 1,6,-1
 25 732 l 1,0,-1
EndSplineSet
Substitution2: "'c2sc' Capitals to Small Capitals in Latin lookup 2 subtable" v.smcp
EndChar

StartChar: W
Encoding: 87 87 58
Width: 1018
GlyphClass: 2
Flags: W
LayerCount: 2
Fore
SplineSet
25 732 m 1,0,-1
 229 732 l 1,1,-1
 350 238 l 1,2,-1
 441 732 l 1,3,-1
 645 732 l 1,4,-1
 608 580 l 1,5,-1
 710 238 l 1,6,-1
 801 732 l 1,7,-1
 1005 732 l 1,8,-1
 826 0 l 1,9,-1
 592 0 l 1,10,-1
 525 239 l 1,11,-1
 466 0 l 1,12,-1
 232 0 l 1,13,-1
 25 732 l 1,0,-1
EndSplineSet
Substitution2: "'c2sc' Capitals to Small Capitals in Latin lookup 2 subtable" w.smcp
EndChar

StartChar: X
Encoding: 88 88 59
Width: 679
GlyphClass: 2
Flags: W
LayerCount: 2
Fore
SplineSet
25 732 m 1,0,-1
 240 732 l 1,1,-1
 345 529 l 1,2,-1
 450 732 l 1,3,-1
 665 732 l 1,4,-1
 442 363 l 1,5,-1
 660 0 l 1,6,-1
 445 0 l 1,7,-1
 345 196 l 1,8,-1
 243 0 l 1,9,-1
 28 0 l 1,10,-1
 247 363 l 1,11,-1
 25 732 l 1,0,-1
EndSplineSet
AlternateSubs2: "'salt' Stylistic Alternatives in Latin lookup 16 subtable" X.salt
Substitution2: "'c2sc' Capitals to Small Capitals in Latin lookup 2 subtable" x.smcp
EndChar

StartChar: Y
Encoding: 89 89 60
Width: 679
GlyphClass: 2
Flags: W
LayerCount: 2
Fore
SplineSet
434 0 m 1,0,-1
 240 0 l 1,1,-1
 240 200 l 1,2,-1
 25 732 l 1,3,-1
 236 732 l 1,4,-1
 341 408 l 1,5,-1
 454 732 l 1,6,-1
 665 732 l 1,7,-1
 434 200 l 1,8,-1
 434 0 l 1,0,-1
EndSplineSet
Substitution2: "'c2sc' Capitals to Small Capitals in Latin lookup 2 subtable" y.smcp
EndChar

StartChar: Z
Encoding: 90 90 61
Width: 552
GlyphClass: 2
Flags: W
LayerCount: 2
Fore
SplineSet
20 0 m 1,0,-1
 20 174 l 1,1,-1
 306 558 l 1,2,-1
 20 558 l 1,3,-1
 20 732 l 1,4,-1
 533 732 l 1,5,-1
 533 558 l 1,6,-1
 277 174 l 1,7,-1
 533 174 l 1,8,-1
 533 0 l 1,9,-1
 20 0 l 1,0,-1
EndSplineSet
Substitution2: "'c2sc' Capitals to Small Capitals in Latin lookup 2 subtable" z.smcp
EndChar

StartChar: bracketleft
Encoding: 91 91 62
Width: 344
GlyphClass: 2
Flags: W
LayerCount: 2
Fore
SplineSet
48 12 m 2,0,-1
 48 640 l 2,1,2
 48 741 48 741 95 791.5 c 128,-1,3
 142 842 142 842 244 842 c 2,4,-1
 334 842 l 1,5,-1
 334 688 l 1,6,-1
 304 688 l 2,7,8
 274 688 274 688 258 670.5 c 128,-1,9
 242 653 242 653 242 610 c 2,10,-1
 242 22 l 2,11,12
 242 -21 242 -21 258 -38.5 c 128,-1,13
 274 -56 274 -56 304 -56 c 2,14,-1
 334 -56 l 1,15,-1
 334 -210 l 1,16,-1
 244 -210 l 2,17,18
 48 -210 48 -210 48 12 c 2,0,-1
EndSplineSet
EndChar

StartChar: backslash
Encoding: 92 92 63
Width: 502
GlyphClass: 2
Flags: W
LayerCount: 2
Fore
SplineSet
11 770 m 1,0,-1
 210 770 l 1,1,-1
 491 -72 l 1,2,-1
 292 -72 l 1,3,-1
 11 770 l 1,0,-1
EndSplineSet
EndChar

StartChar: bracketright
Encoding: 93 93 64
Width: 344
GlyphClass: 2
Flags: W
LayerCount: 2
Fore
SplineSet
11 -56 m 1,0,-1
 41 -56 l 2,1,2
 71 -56 71 -56 87 -38.5 c 128,-1,3
 103 -21 103 -21 103 22 c 2,4,-1
 103 610 l 2,5,6
 103 653 103 653 87 670.5 c 128,-1,7
 71 688 71 688 41 688 c 2,8,-1
 11 688 l 1,9,-1
 11 842 l 1,10,-1
 101 842 l 2,11,12
 203 842 203 842 250 791.5 c 128,-1,13
 297 741 297 741 297 640 c 2,14,-1
 297 12 l 2,15,16
 297 -210 297 -210 101 -210 c 2,17,-1
 11 -210 l 1,18,-1
 11 -56 l 1,0,-1
EndSplineSet
EndChar

StartChar: asciicircum
Encoding: 94 94 65
Width: 378
GlyphClass: 2
Flags: W
LayerCount: 2
Fore
SplineSet
28 531 m 1,0,-1
 128 671 l 1,1,-1
 259 671 l 1,2,-1
 350 531 l 1,3,-1
 239 531 l 1,4,-1
 190 582 l 1,5,-1
 140 531 l 1,6,-1
 28 531 l 1,0,-1
EndSplineSet
EndChar

StartChar: underscore
Encoding: 95 95 66
Width: 674
GlyphClass: 2
Flags: W
LayerCount: 2
Fore
SplineSet
20 -1 m 1,0,-1
 20 153 l 1,1,-1
 654 153 l 1,2,-1
 654 -1 l 1,3,-1
 20 -1 l 1,0,-1
EndSplineSet
EndChar

StartChar: grave
Encoding: 96 96 67
Width: 244
GlyphClass: 2
Flags: W
LayerCount: 2
Fore
SplineSet
11 674 m 1,0,-1
 156 674 l 1,1,-1
 233 531 l 1,2,-1
 124 531 l 1,3,-1
 11 674 l 1,0,-1
EndSplineSet
Substitution2: "'smcp' Lowercase to Small Capitals lookup 1 subtable" grave.smcp
EndChar

StartChar: a
Encoding: 97 97 68
Width: 519
GlyphClass: 2
Flags: W
LayerCount: 2
Fore
SplineSet
22 143 m 2,0,-1
 22 184 l 2,1,2
 22 251 22 251 61.5 295.5 c 128,-1,3
 101 340 101 340 196 340 c 0,4,5
 247 340 247 340 272.5 340 c 128,-1,6
 298 340 298 340 298 340 c 1,7,8
 299 346 299 346 298.5 354.5 c 128,-1,9
 298 363 298 363 295 373 c 128,-1,10
 292 383 292 383 288.5 388.5 c 128,-1,11
 285 394 285 394 275 396 c 0,12,13
 260 399 260 399 236 399 c 1,14,-1
 40 388 l 1,15,-1
 40 501 l 1,16,17
 90 525 90 525 139.5 533 c 128,-1,18
 189 541 189 541 268 541 c 0,19,20
 382 541 382 541 437 502 c 128,-1,21
 492 463 492 463 492 357 c 2,22,-1
 492 0 l 1,23,-1
 336 0 l 1,24,-1
 298 54 l 1,25,26
 288 31 288 31 262.5 12.5 c 128,-1,27
 237 -6 237 -6 195 -6 c 0,28,29
 146 -6 146 -6 110 10.5 c 128,-1,30
 74 27 74 27 56 50 c 0,31,32
 22 95 22 95 22 143 c 2,0,-1
248 138 m 2,33,-1
 258 138 l 2,34,35
 276 138 276 138 286 146 c 128,-1,36
 296 154 296 154 297 162 c 2,37,-1
 298 171 l 1,38,-1
 298 231 l 1,39,-1
 246 226 l 2,40,41
 231 225 231 225 224 215.5 c 128,-1,42
 217 206 217 206 216.5 200 c 128,-1,43
 216 194 216 194 216 181 c 2,44,-1
 216 175 l 2,45,46
 216 147 216 147 228 142 c 0,47,48
 231 141 231 141 232 140 c 0,49,50
 236 138 236 138 248 138 c 2,33,-1
EndSplineSet
AlternateSubs2: "'salt' Stylistic Alternatives in Latin lookup 16 subtable" a.salt
Substitution2: "'smcp' Lowercase to Small Capitals lookup 1 subtable" a.smcp
EndChar

StartChar: b
Encoding: 98 98 69
Width: 559
GlyphClass: 2
Flags: W
LayerCount: 2
Fore
SplineSet
34 0 m 1,0,-1
 34 785 l 1,1,-1
 228 785 l 1,2,-1
 228 509 l 1,3,4
 285 539 285 539 360 539 c 0,5,6
 463 539 463 539 497.5 476.5 c 128,-1,7
 532 414 532 414 532 267 c 128,-1,8
 532 120 532 120 491 57 c 128,-1,9
 450 -6 450 -6 360 -6 c 0,10,11
 319 -6 319 -6 291 7.5 c 128,-1,12
 263 21 263 21 229 49 c 1,13,-1
 200 0 l 1,14,-1
 34 0 l 1,0,-1
294 151 m 0,15,16
 318 151 318 151 328 174 c 128,-1,17
 338 197 338 197 338 274.5 c 128,-1,18
 338 352 338 352 328 376 c 128,-1,19
 318 400 318 400 294 400 c 0,20,21
 243 400 243 400 229 385 c 1,22,-1
 229 173 l 1,23,24
 242 151 242 151 294 151 c 0,15,16
EndSplineSet
AlternateSubs2: "'salt' Stylistic Alternatives in Latin lookup 16 subtable" b.salt
Substitution2: "'smcp' Lowercase to Small Capitals lookup 1 subtable" b.smcp
EndChar

StartChar: c
Encoding: 99 99 70
Width: 490
GlyphClass: 2
Flags: W
LayerCount: 2
Fore
SplineSet
303 -6 m 1,0,-1
 203 -5 l 1,1,2
 28 -5 28 -5 28 266 c 0,3,4
 28 413 28 413 74 474.5 c 128,-1,5
 120 536 120 536 203 536 c 0,6,7
 227 536 227 536 252 536 c 0,8,9
 368 536 368 536 461 500 c 1,10,-1
 461 386 l 1,11,12
 401 392 401 392 340.5 392 c 128,-1,13
 280 392 280 392 268 390.5 c 128,-1,14
 256 389 256 389 242.5 377 c 128,-1,15
 229 365 229 365 225.5 339 c 128,-1,16
 222 313 222 313 222 265 c 128,-1,17
 222 217 222 217 225 192.5 c 128,-1,18
 228 168 228 168 240.5 155.5 c 128,-1,19
 253 143 253 143 266.5 141 c 128,-1,20
 280 139 280 139 316 139 c 0,21,22
 394 139 394 139 450 145 c 2,23,-1
 468 147 l 1,24,-1
 468 33 l 1,25,26
 414 -6 414 -6 303 -6 c 1,0,-1
EndSplineSet
Substitution2: "'smcp' Lowercase to Small Capitals lookup 1 subtable" c.smcp
EndChar

StartChar: d
Encoding: 100 100 71
Width: 559
GlyphClass: 2
Flags: W
LayerCount: 2
Fore
SplineSet
68.5 54.5 m 128,-1,1
 28 115 28 115 28 266.5 c 128,-1,2
 28 418 28 418 62 478.5 c 128,-1,3
 96 539 96 539 200 539 c 0,4,5
 275 539 275 539 332 509 c 1,6,-1
 332 785 l 1,7,-1
 526 785 l 1,8,-1
 526 0 l 1,9,-1
 360 0 l 1,10,-1
 331 49 l 1,11,12
 297 21 297 21 269 7.5 c 128,-1,13
 241 -6 241 -6 200 -6 c 0,14,0
 109 -6 109 -6 68.5 54.5 c 128,-1,1
232 376 m 128,-1,16
 222 352 222 352 222 274.5 c 128,-1,17
 222 197 222 197 232 174 c 128,-1,18
 242 151 242 151 266 151 c 0,19,20
 318 151 318 151 331 173 c 1,21,-1
 331 385 l 1,22,23
 317 400 317 400 266 400 c 0,24,15
 242 400 242 400 232 376 c 128,-1,16
EndSplineSet
AlternateSubs2: "'salt' Stylistic Alternatives in Latin lookup 16 subtable" d.salt
Substitution2: "'smcp' Lowercase to Small Capitals lookup 1 subtable" d.smcp
EndChar

StartChar: e
Encoding: 101 101 72
Width: 525
GlyphClass: 2
Flags: W
LayerCount: 2
Fore
SplineSet
493 23 m 1,0,1
 437 -5 437 -5 286 -5 c 0,2,3
 244 -5 244 -5 203 -5 c 0,4,5
 105 -5 105 -5 66.5 60 c 128,-1,6
 28 125 28 125 28 252 c 128,-1,7
 28 379 28 379 51.5 436.5 c 128,-1,8
 75 494 75 494 122 514.5 c 128,-1,9
 169 535 169 535 251 535 c 128,-1,10
 333 535 333 535 374 529 c 128,-1,11
 415 523 415 523 447 502 c 128,-1,12
 479 481 479 481 491 442 c 128,-1,13
 503 403 503 403 503 331 c 128,-1,14
 503 259 503 259 463 227 c 128,-1,15
 423 195 423 195 346 195 c 2,16,-1
 222 195 l 1,17,18
 222 165 222 165 236 148 c 0,19,20
 245 137 245 137 278 137 c 2,21,-1
 343 138 l 1,22,23
 418 138 418 138 493 149 c 1,24,-1
 493 23 l 1,0,1
280 318 m 2,25,26
 293 318 293 318 301 327 c 128,-1,27
 309 336 309 336 309 358 c 128,-1,28
 309 380 309 380 303.5 390.5 c 128,-1,29
 298 401 298 401 269.5 401 c 128,-1,30
 241 401 241 401 231.5 387.5 c 128,-1,31
 222 374 222 374 222 328 c 0,32,33
 222 323 222 323 222 318 c 1,34,-1
 280 318 l 2,25,26
EndSplineSet
Substitution2: "'smcp' Lowercase to Small Capitals lookup 1 subtable" e.smcp
EndChar

StartChar: f
Encoding: 102 102 73
Width: 407
GlyphClass: 2
Flags: W
LayerCount: 2
Fore
SplineSet
11 397 m 1,0,-1
 11 514 l 1,1,-1
 83 531 l 1,2,-1
 83 630 l 2,3,4
 83 717 83 717 127.5 751.5 c 128,-1,5
 172 786 172 786 260.5 786 c 128,-1,6
 349 786 349 786 396 762 c 1,7,-1
 396 651 l 1,8,-1
 323 652 l 2,9,10
 306 652 306 652 296.5 649.5 c 128,-1,11
 287 647 287 647 282 636 c 0,12,13
 277 624 277 624 277 570 c 2,14,-1
 277 531 l 1,15,-1
 375 531 l 1,16,-1
 375 397 l 1,17,-1
 277 397 l 1,18,-1
 277 0 l 1,19,-1
 83 0 l 1,20,-1
 83 397 l 1,21,-1
 11 397 l 1,0,-1
EndSplineSet
AlternateSubs2: "'salt' Stylistic Alternatives in Latin lookup 16 subtable" f.salt
Substitution2: "'smcp' Lowercase to Small Capitals lookup 1 subtable" f.smcp
EndChar

StartChar: g
Encoding: 103 103 74
Width: 566
GlyphClass: 2
Flags: W
LayerCount: 2
Fore
SplineSet
25 92 m 0,0,1
 25 170 25 170 89 196 c 1,2,3
 30 234 30 234 30 344 c 0,4,5
 30 533 30 533 223 533 c 2,6,-1
 555 533 l 1,7,-1
 555 427 l 1,8,-1
 514 409 l 1,9,10
 525 377 525 377 525 307.5 c 128,-1,11
 525 238 525 238 481.5 193.5 c 128,-1,12
 438 149 438 149 330 149 c 0,13,14
 274 149 274 149 245.5 149 c 128,-1,15
 217 149 217 149 212 148.5 c 128,-1,16
 207 148 207 148 204.5 147 c 128,-1,17
 202 146 202 146 199 144 c 0,18,19
 194 141 194 141 194 131 c 128,-1,20
 194 121 194 121 200 116 c 0,21,22
 207 110 207 110 234 110 c 2,23,-1
 356 110 l 2,24,25
 536 110 536 110 536 -63 c 2,26,-1
 536 -116 l 2,27,28
 536 -270 536 -270 356 -270 c 2,29,-1
 206 -270 l 2,30,31
 131 -270 131 -270 83.5 -231 c 128,-1,32
 36 -192 36 -192 36 -116 c 2,33,-1
 36 -63 l 1,34,-1
 88 -28 l 1,35,36
 63 -17 63 -17 44 13.5 c 128,-1,37
 25 44 25 44 25 92 c 0,0,1
231 -85 m 2,38,39
 231 -111 231 -111 239.5 -118.5 c 128,-1,40
 248 -126 248 -126 275 -126 c 2,41,-1
 303 -126 l 2,42,43
 334 -126 334 -126 338 -116 c 0,44,45
 343 -105 343 -105 343 -90 c 2,46,-1
 343 -67 l 2,47,48
 343 -54 343 -54 332.5 -45 c 128,-1,49
 322 -36 322 -36 304 -35 c 1,50,-1
 231 -35 l 1,51,-1
 231 -85 l 2,38,39
231 378.5 m 128,-1,53
 224 368 224 368 224 339 c 128,-1,54
 224 310 224 310 233.5 301.5 c 128,-1,55
 243 293 243 293 266 293 c 2,56,-1
 288 293 l 2,57,58
 314 293 314 293 322.5 301.5 c 128,-1,59
 331 310 331 310 331 341.5 c 128,-1,60
 331 373 331 373 320.5 381 c 128,-1,61
 310 389 310 389 287 389 c 2,62,-1
 263 389 l 2,63,52
 238 389 238 389 231 378.5 c 128,-1,53
EndSplineSet
AlternateSubs2: "'salt' Stylistic Alternatives in Latin lookup 16 subtable" g.salt
Substitution2: "'smcp' Lowercase to Small Capitals lookup 1 subtable" g.smcp
EndChar

StartChar: h
Encoding: 104 104 75
Width: 555
GlyphClass: 2
Flags: W
LayerCount: 2
Fore
SplineSet
34 0 m 1,0,-1
 34 782 l 1,1,-1
 227 782 l 1,2,-1
 227 479 l 1,3,4
 246 498 246 498 261 508.5 c 128,-1,5
 276 519 276 519 306 529.5 c 128,-1,6
 336 540 336 540 380 540 c 128,-1,7
 424 540 424 540 456 525.5 c 128,-1,8
 488 511 488 511 503 481 c 128,-1,9
 518 451 518 451 523 419.5 c 128,-1,10
 528 388 528 388 528 340 c 2,11,-1
 528 0 l 1,12,-1
 334 0 l 1,13,-1
 334 344 l 2,14,15
 334 374 334 374 326 385 c 128,-1,16
 318 396 318 396 301 396 c 0,17,18
 244 396 244 396 228 359 c 1,19,-1
 228 0 l 1,20,-1
 34 0 l 1,0,-1
EndSplineSet
Substitution2: "'smcp' Lowercase to Small Capitals lookup 1 subtable" h.smcp
EndChar

StartChar: i
Encoding: 105 105 76
Width: 252
GlyphClass: 2
Flags: W
LayerCount: 2
Fore
SplineSet
28 604 m 2,0,-1
 28 721 l 2,1,2
 28 746 28 746 52 746 c 2,3,-1
 202 746 l 2,4,5
 224 746 224 746 224 721 c 2,6,-1
 224 604 l 2,7,8
 224 581 224 581 202 581 c 2,9,-1
 52 581 l 2,10,11
 28 581 28 581 28 604 c 2,0,-1
29 0 m 1,12,-1
 29 531 l 1,13,-1
 223 531 l 1,14,-1
 223 0 l 1,15,-1
 29 0 l 1,12,-1
EndSplineSet
Substitution2: "'smcp' Lowercase to Small Capitals lookup 1 subtable" i.smcp
EndChar

StartChar: j
Encoding: 106 106 77
Width: 264
GlyphClass: 2
Flags: W
LayerCount: 2
Fore
SplineSet
34 604 m 2,0,-1
 34 721 l 2,1,2
 34 746 34 746 58 746 c 2,3,-1
 208 746 l 2,4,5
 231 746 231 746 231 721 c 2,6,-1
 231 604 l 2,7,8
 231 581 231 581 208 581 c 2,9,-1
 58 581 l 2,10,11
 34 581 34 581 34 604 c 2,0,-1
36 -270 m 1,12,-1
 36 531 l 1,13,-1
 230 531 l 1,14,-1
 230 -4 l 2,15,16
 230 -11 230 -11 230 -18 c 0,17,18
 230 -190 230 -190 184 -270 c 1,19,-1
 36 -270 l 1,12,-1
EndSplineSet
Substitution2: "'smcp' Lowercase to Small Capitals lookup 1 subtable" j.smcp
EndChar

StartChar: k
Encoding: 107 107 78
Width: 605
GlyphClass: 2
Flags: W
LayerCount: 2
Fore
SplineSet
34 0 m 1,0,-1
 34 782 l 1,1,-1
 228 782 l 1,2,-1
 228 362 l 1,3,-1
 248 362 l 1,4,-1
 356 531 l 1,5,-1
 594 531 l 1,6,-1
 425 295 l 1,7,-1
 594 0 l 1,8,-1
 367 0 l 1,9,-1
 248 228 l 1,10,-1
 228 228 l 1,11,-1
 228 0 l 1,12,-1
 34 0 l 1,0,-1
EndSplineSet
Substitution2: "'smcp' Lowercase to Small Capitals lookup 1 subtable" k.smcp
EndChar

StartChar: l
Encoding: 108 108 79
Width: 325
GlyphClass: 2
Flags: W
LayerCount: 2
Fore
SplineSet
34 189 m 2,0,-1
 34 783 l 1,1,-1
 228 783 l 1,2,-1
 228 229 l 2,3,4
 228 167 228 167 245 148 c 0,5,6
 252 141 252 141 279.5 127 c 128,-1,7
 307 113 307 113 314 113 c 1,8,-1
 314 0 l 1,9,-1
 176 0 l 2,10,11
 103 0 103 0 68.5 43 c 128,-1,12
 34 86 34 86 34 189 c 2,0,-1
EndSplineSet
Substitution2: "'smcp' Lowercase to Small Capitals lookup 1 subtable" l.smcp
EndChar

StartChar: m
Encoding: 109 109 80
Width: 857
GlyphClass: 2
Flags: W
LayerCount: 2
Fore
SplineSet
527 366 m 1,0,-1
 528 340 l 1,1,-1
 528 0 l 1,2,-1
 334 0 l 1,3,-1
 334 344 l 2,4,5
 334 374 334 374 326 385 c 128,-1,6
 318 396 318 396 301 396 c 0,7,8
 244 396 244 396 228 359 c 1,9,-1
 228 0 l 1,10,-1
 34 0 l 1,11,-1
 34 531 l 1,12,-1
 196 531 l 1,13,-1
 228 479 l 1,14,15
 252 501 252 501 265 510.5 c 128,-1,16
 278 520 278 520 307 530 c 128,-1,17
 336 540 336 540 374 540 c 0,18,19
 470 540 470 540 504 479 c 1,20,21
 535 499 535 499 553 508.5 c 128,-1,22
 571 518 571 518 605.5 529 c 128,-1,23
 640 540 640 540 683 540 c 128,-1,24
 726 540 726 540 758 525.5 c 128,-1,25
 790 511 790 511 805 481 c 128,-1,26
 820 451 820 451 825 419.5 c 128,-1,27
 830 388 830 388 830 340 c 2,28,-1
 830 0 l 1,29,-1
 636 0 l 1,30,-1
 636 344 l 2,31,32
 636 374 636 374 628 385 c 128,-1,33
 620 396 620 396 603 396 c 0,34,35
 546 396 546 396 527 366 c 1,0,-1
EndSplineSet
AlternateSubs2: "'salt' Stylistic Alternatives in Latin lookup 16 subtable" m.salt
Substitution2: "'smcp' Lowercase to Small Capitals lookup 1 subtable" m.smcp
EndChar

StartChar: n
Encoding: 110 110 81
Width: 555
GlyphClass: 2
Flags: W
LayerCount: 2
Fore
SplineSet
34 0 m 1,0,-1
 34 531 l 1,1,-1
 196 531 l 1,2,-1
 228 479 l 1,3,4
 250 500 250 500 263.5 510 c 128,-1,5
 277 520 277 520 306.5 530 c 128,-1,6
 336 540 336 540 380 540 c 128,-1,7
 424 540 424 540 456 525.5 c 128,-1,8
 488 511 488 511 503 481 c 128,-1,9
 518 451 518 451 523 419.5 c 128,-1,10
 528 388 528 388 528 340 c 2,11,-1
 528 0 l 1,12,-1
 334 0 l 1,13,-1
 334 344 l 2,14,15
 334 374 334 374 326 385 c 128,-1,16
 318 396 318 396 301 396 c 0,17,18
 244 396 244 396 228 359 c 1,19,-1
 228 0 l 1,20,-1
 34 0 l 1,0,-1
EndSplineSet
AlternateSubs2: "'salt' Stylistic Alternatives in Latin lookup 16 subtable" n.salt
Substitution2: "'smcp' Lowercase to Small Capitals lookup 1 subtable" n.smcp
EndChar

StartChar: o
Encoding: 111 111 82
Width: 554
GlyphClass: 2
Flags: W
LayerCount: 2
Fore
SplineSet
83 54.5 m 128,-1,1
 28 114 28 114 28 266 c 128,-1,2
 28 418 28 418 82.5 477 c 128,-1,3
 137 536 137 536 277 536 c 128,-1,4
 417 536 417 536 471.5 476 c 128,-1,5
 526 416 526 416 526 262.5 c 128,-1,6
 526 109 526 109 472.5 52 c 128,-1,7
 419 -5 419 -5 278.5 -5 c 128,-1,0
 138 -5 138 -5 83 54.5 c 128,-1,1
228.5 372 m 128,-1,9
 222 352 222 352 222 265 c 128,-1,10
 222 178 222 178 230.5 158.5 c 128,-1,11
 239 139 239 139 278 139 c 128,-1,12
 317 139 317 139 324.5 156 c 128,-1,13
 332 173 332 173 332 261.5 c 128,-1,14
 332 350 332 350 324.5 371 c 128,-1,15
 317 392 317 392 276 392 c 128,-1,8
 235 392 235 392 228.5 372 c 128,-1,9
EndSplineSet
Substitution2: "'smcp' Lowercase to Small Capitals lookup 1 subtable" o.smcp
EndChar

StartChar: p
Encoding: 112 112 83
Width: 559
GlyphClass: 2
Flags: W
LayerCount: 2
Fore
SplineSet
34 -270 m 1,0,-1
 34 531 l 1,1,-1
 200 531 l 1,2,-1
 229 482 l 1,3,4
 263 510 263 510 291 523.5 c 128,-1,5
 319 537 319 537 360 537 c 0,6,7
 450 537 450 537 491 473.5 c 128,-1,8
 532 410 532 410 532 268 c 0,9,10
 532 161 532 161 517 112 c 128,-1,11
 502 63 502 63 483 40 c 0,12,13
 442 -8 442 -8 363.5 -8 c 128,-1,14
 285 -8 285 -8 228 22 c 1,15,-1
 228 -270 l 1,16,-1
 34 -270 l 1,0,-1
294 131 m 0,17,18
 318 131 318 131 328 155 c 128,-1,19
 338 179 338 179 338 256.5 c 128,-1,20
 338 334 338 334 328 357 c 128,-1,21
 318 380 318 380 294 380 c 0,22,23
 242 380 242 380 229 358 c 1,24,-1
 229 146 l 1,25,26
 243 131 243 131 294 131 c 0,17,18
EndSplineSet
AlternateSubs2: "'salt' Stylistic Alternatives in Latin lookup 16 subtable" p.salt
Substitution2: "'smcp' Lowercase to Small Capitals lookup 1 subtable" p.smcp
EndChar

StartChar: q
Encoding: 113 113 84
Width: 555
GlyphClass: 2
Flags: W
LayerCount: 2
Fore
SplineSet
73.5 55 m 128,-1,1
 28 120 28 120 28 266 c 128,-1,2
 28 412 28 412 80 474.5 c 128,-1,3
 132 537 132 537 223 537 c 128,-1,4
 314 537 314 537 398.5 527 c 128,-1,5
 483 517 483 517 522 501 c 1,6,-1
 522 -270 l 1,7,-1
 328 -270 l 1,8,-1
 328 29 l 1,9,10
 298 -10 298 -10 231 -10 c 0,11,0
 119 -10 119 -10 73.5 55 c 128,-1,1
223 321.5 m 128,-1,13
 222 305 222 305 222 245.5 c 128,-1,14
 222 186 222 186 232 158 c 128,-1,15
 242 130 242 130 277.5 130 c 128,-1,16
 313 130 313 130 328 149 c 1,17,-1
 328 403 l 1,18,-1
 281 403 l 2,19,20
 240 403 240 403 230 360 c 0,21,12
 224 338 224 338 223 321.5 c 128,-1,13
EndSplineSet
Substitution2: "'smcp' Lowercase to Small Capitals lookup 1 subtable" q.smcp
EndChar

StartChar: r
Encoding: 114 114 85
Width: 410
GlyphClass: 2
Flags: W
LayerCount: 2
Fore
SplineSet
34 0 m 1,0,-1
 34 531 l 1,1,-1
 206 531 l 1,2,-1
 228 464 l 1,3,4
 242 493 242 493 273.5 514.5 c 128,-1,5
 305 536 305 536 339.5 536 c 128,-1,6
 374 536 374 536 390 531 c 1,7,-1
 390 345 l 1,8,-1
 311 345 l 2,9,10
 247 345 247 345 234 320 c 1,11,12
 228 306 228 306 228 285 c 2,13,-1
 228 0 l 1,14,-1
 34 0 l 1,0,-1
EndSplineSet
AlternateSubs2: "'salt' Stylistic Alternatives in Latin lookup 16 subtable" r.salt
Substitution2: "'smcp' Lowercase to Small Capitals lookup 1 subtable" r.smcp
EndChar

StartChar: s
Encoding: 115 115 86
Width: 511
GlyphClass: 2
Flags: W
LayerCount: 2
Fore
SplineSet
22 338 m 2,0,-1
 22 384 l 2,1,2
 22 452 22 452 55 494 c 128,-1,3
 88 536 88 536 160 536 c 0,4,5
 350 536 350 536 398.5 527 c 128,-1,6
 447 518 447 518 462 500 c 1,7,-1
 462 386 l 1,8,-1
 238 386 l 2,9,10
 223 386 223 386 219.5 381.5 c 128,-1,11
 216 377 216 377 216 368 c 2,12,-1
 216 362 l 2,13,14
 216 348 216 348 226 346 c 0,15,16
 230 346 230 346 238 346 c 2,17,-1
 338 346 l 2,18,19
 417 346 417 346 452.5 306.5 c 128,-1,20
 488 267 488 267 488 202 c 2,21,-1
 488 143 l 2,22,23
 488 67 488 67 450 31 c 128,-1,24
 412 -5 412 -5 358 -5 c 0,25,26
 346 -5 346 -5 292 -5 c 128,-1,27
 238 -5 238 -5 196 -4 c 128,-1,28
 154 -3 154 -3 106.5 5.5 c 128,-1,29
 59 14 59 14 44 32 c 1,30,-1
 44 146 l 1,31,-1
 276 146 l 2,32,33
 288 146 288 146 291 150 c 128,-1,34
 294 154 294 154 294 163 c 2,35,-1
 294 168 l 2,36,37
 294 178 294 178 290.5 182 c 128,-1,38
 287 186 287 186 276 186 c 2,39,-1
 180 186 l 2,40,41
 107 186 107 186 64.5 224.5 c 128,-1,42
 22 263 22 263 22 338 c 2,0,-1
EndSplineSet
Substitution2: "'smcp' Lowercase to Small Capitals lookup 1 subtable" s.smcp
EndChar

StartChar: t
Encoding: 116 116 87
Width: 385
GlyphClass: 2
Flags: W
LayerCount: 2
Fore
SplineSet
11 398 m 1,0,-1
 11 494 l 1,1,-1
 86 532 l 1,2,-1
 114 680 l 1,3,-1
 280 680 l 1,4,-1
 280 532 l 1,5,-1
 369 532 l 1,6,-1
 369 398 l 1,7,-1
 280 398 l 1,8,-1
 280 230 l 2,9,10
 280 181 280 181 288.5 162 c 128,-1,11
 297 143 297 143 316 133 c 0,12,13
 358 112 358 112 365 112 c 1,14,-1
 365 -1 l 1,15,-1
 215 -1 l 2,16,17
 152 -1 152 -1 119 43.5 c 128,-1,18
 86 88 86 88 86 190 c 2,19,-1
 86 398 l 1,20,-1
 11 398 l 1,0,-1
EndSplineSet
AlternateSubs2: "'salt' Stylistic Alternatives in Latin lookup 16 subtable" t.salt
Substitution2: "'smcp' Lowercase to Small Capitals lookup 1 subtable" t.smcp
EndChar

StartChar: u
Encoding: 117 117 88
Width: 555
GlyphClass: 2
Flags: W
LayerCount: 2
Fore
SplineSet
28 191 m 2,0,-1
 28 531 l 1,1,-1
 222 531 l 1,2,-1
 222 187 l 2,3,4
 222 157 222 157 230 146 c 128,-1,5
 238 135 238 135 255 135 c 0,6,7
 312 135 312 135 328 172 c 1,8,-1
 328 531 l 1,9,-1
 522 531 l 1,10,-1
 522 0 l 1,11,-1
 360 0 l 1,12,-1
 328 52 l 1,13,14
 318 46 318 46 298 31 c 128,-1,15
 278 16 278 16 267 10 c 0,16,17
 236 -9 236 -9 184 -9 c 128,-1,18
 132 -9 132 -9 100 5.5 c 128,-1,19
 68 20 68 20 53 50 c 128,-1,20
 38 80 38 80 33 111.5 c 128,-1,21
 28 143 28 143 28 191 c 2,0,-1
EndSplineSet
AlternateSubs2: "'salt' Stylistic Alternatives in Latin lookup 16 subtable" u.salt
Substitution2: "'smcp' Lowercase to Small Capitals lookup 1 subtable" u.smcp
EndChar

StartChar: v
Encoding: 118 118 89
Width: 588
GlyphClass: 2
Flags: W
LayerCount: 2
Fore
SplineSet
11 531 m 1,0,-1
 217 531 l 1,1,-1
 292 209 l 1,2,-1
 372 531 l 1,3,-1
 577 531 l 1,4,-1
 401 0 l 1,5,-1
 177 0 l 1,6,-1
 11 531 l 1,0,-1
EndSplineSet
Substitution2: "'smcp' Lowercase to Small Capitals lookup 1 subtable" v.smcp
EndChar

StartChar: w
Encoding: 119 119 90
Width: 847
GlyphClass: 2
Flags: W
LayerCount: 2
Fore
SplineSet
11 531 m 1,0,-1
 217 531 l 1,1,-1
 282 209 l 1,2,-1
 342 531 l 1,3,-1
 530 531 l 1,4,-1
 507 410 l 1,5,-1
 572 209 l 1,6,-1
 630 531 l 1,7,-1
 837 531 l 1,8,-1
 691 0 l 1,9,-1
 467 0 l 1,10,-1
 419 137 l 1,11,-1
 381 0 l 1,12,-1
 157 0 l 1,13,-1
 11 531 l 1,0,-1
EndSplineSet
Substitution2: "'smcp' Lowercase to Small Capitals lookup 1 subtable" w.smcp
EndChar

StartChar: x
Encoding: 120 120 91
Width: 612
GlyphClass: 2
Flags: W
LayerCount: 2
Fore
SplineSet
14 0 m 1,0,-1
 190 266 l 1,1,-1
 14 531 l 1,2,-1
 246 531 l 1,3,-1
 305 409 l 1,4,-1
 366 531 l 1,5,-1
 598 531 l 1,6,-1
 419 263 l 1,7,-1
 590 0 l 1,8,-1
 366 0 l 1,9,-1
 306 121 l 1,10,-1
 246 0 l 1,11,-1
 14 0 l 1,0,-1
EndSplineSet
AlternateSubs2: "'salt' Stylistic Alternatives in Latin lookup 16 subtable" x.salt
Substitution2: "'smcp' Lowercase to Small Capitals lookup 1 subtable" x.smcp
EndChar

StartChar: y
Encoding: 121 121 92
Width: 599
GlyphClass: 2
Flags: W
LayerCount: 2
Fore
SplineSet
12 531 m 1,0,-1
 213 531 l 1,1,-1
 274 195 l 2,2,3
 281 158 281 158 317 156 c 1,4,-1
 386 531 l 1,5,-1
 583 531 l 1,6,-1
 440 -168 l 1,7,-1
 369 -270 l 1,8,-1
 225 -270 l 1,9,-1
 284 0 l 1,10,11
 130 0 130 0 95 156 c 2,12,-1
 12 531 l 1,0,-1
EndSplineSet
Substitution2: "'smcp' Lowercase to Small Capitals lookup 1 subtable" y.smcp
EndChar

StartChar: z
Encoding: 122 122 93
Width: 489
GlyphClass: 2
Flags: W
LayerCount: 2
Fore
SplineSet
17 377 m 1,0,-1
 17 531 l 1,1,-1
 473 531 l 1,2,-1
 473 377 l 1,3,-1
 292 155 l 1,4,-1
 473 155 l 1,5,-1
 473 1 l 1,6,-1
 32 1 l 1,7,-1
 32 153 l 1,8,-1
 229 377 l 1,9,-1
 17 377 l 1,0,-1
EndSplineSet
Substitution2: "'smcp' Lowercase to Small Capitals lookup 1 subtable" z.smcp
EndChar

StartChar: braceleft
Encoding: 123 123 94
Width: 322
GlyphClass: 2
Flags: W
LayerCount: 2
Fore
SplineSet
71 455 m 2,0,-1
 71 656 l 2,1,2
 71 842 71 842 311 842 c 1,3,-1
 311 688 l 1,4,5
 280 688 280 688 272.5 667.5 c 128,-1,6
 265 647 265 647 265 576 c 2,7,-1
 265 440 l 2,8,9
 265 387 265 387 238.5 362.5 c 128,-1,10
 212 338 212 338 160 334 c 1,11,12
 264 313 264 313 264 231 c 2,13,-1
 264 32 l 2,14,15
 264 -24 264 -24 271.5 -45 c 128,-1,16
 279 -66 279 -66 311 -66 c 1,17,-1
 311 -210 l 1,18,19
 179 -210 179 -210 124.5 -170.5 c 128,-1,20
 70 -131 70 -131 70 -38 c 2,21,-1
 70 212 l 2,22,23
 70 265 70 265 18 265 c 0,24,25
 15 265 15 265 11 265 c 1,26,-1
 11 402 l 1,27,28
 71 407 71 407 71 455 c 2,0,-1
EndSplineSet
EndChar

StartChar: bar
Encoding: 124 124 95
Width: 250
GlyphClass: 2
Flags: W
LayerCount: 2
Fore
SplineSet
48 -72 m 1,0,-1
 48 770 l 1,1,-1
 202 770 l 1,2,-1
 202 -72 l 1,3,-1
 48 -72 l 1,0,-1
EndSplineSet
EndChar

StartChar: braceright
Encoding: 125 125 96
Width: 322
GlyphClass: 2
Flags: W
LayerCount: 2
Fore
SplineSet
11 -66 m 1,0,1
 43 -66 43 -66 50.5 -45 c 128,-1,2
 58 -24 58 -24 58 32 c 2,3,-1
 58 231 l 2,4,5
 58 313 58 313 162 334 c 1,6,7
 110 338 110 338 83.5 362.5 c 128,-1,8
 57 387 57 387 57 440 c 2,9,-1
 57 576 l 2,10,11
 57 647 57 647 49.5 667.5 c 128,-1,12
 42 688 42 688 11 688 c 1,13,-1
 11 842 l 1,14,15
 251 842 251 842 251 656 c 2,16,-1
 251 455 l 2,17,18
 251 407 251 407 311 402 c 1,19,-1
 311 265 l 1,20,21
 307 265 307 265 304 265 c 0,22,23
 252 265 252 265 252 212 c 2,24,-1
 252 -38 l 2,25,26
 252 -131 252 -131 197.5 -170.5 c 128,-1,27
 143 -210 143 -210 11 -210 c 1,28,-1
 11 -66 l 1,0,1
EndSplineSet
EndChar

StartChar: asciitilde
Encoding: 126 126 97
Width: 404
GlyphClass: 2
Flags: W
LayerCount: 2
Fore
SplineSet
151 672 m 0,0,1
 174 672 174 672 206 654.5 c 128,-1,2
 238 637 238 637 257 637 c 0,3,4
 260 637 260 637 264 637 c 0,5,6
 312 637 312 637 350 677 c 1,7,-1
 376 603 l 1,8,9
 328 531 328 531 264 531 c 0,10,11
 242 531 242 531 204.5 548.5 c 128,-1,12
 167 566 167 566 148 566 c 0,13,14
 100 566 100 566 55 531 c 1,15,-1
 28 598 l 1,16,17
 79 672 79 672 151 672 c 0,0,1
EndSplineSet
EndChar

StartChar: exclamdown
Encoding: 161 161 98
Width: 282
GlyphClass: 2
Flags: W
LayerCount: 2
Fore
SplineSet
59 323 m 2,0,-1
 59 438 l 2,1,2
 59 459 59 459 83 461 c 1,3,-1
 197 461 l 1,4,5
 206 460 206 460 213.5 452.5 c 128,-1,6
 221 445 221 445 221 435 c 2,7,-1
 221 323 l 2,8,9
 221 296 221 296 199 296 c 2,10,-1
 83 296 l 2,11,12
 59 296 59 296 59 323 c 2,0,-1
47 -270 m 1,13,-1
 67 265 l 1,14,-1
 214 265 l 1,15,-1
 233 -270 l 1,16,-1
 47 -270 l 1,13,-1
EndSplineSet
Substitution2: "'case' Case-Sensitive Forms lookup 18 subtable" exclamdown.alt
Substitution2: "'smcp' Lowercase to Small Capitals lookup 1 subtable" exclamdown.smcp
EndChar

StartChar: cent
Encoding: 162 162 99
Width: 485
GlyphClass: 2
Flags: W
LayerCount: 2
Fore
SplineSet
22 266 m 0,0,1
 22 413 22 413 68.5 474.5 c 128,-1,2
 115 536 115 536 198 536 c 1,3,-1
 198 634 l 1,4,-1
 306 634 l 1,5,-1
 306 534 l 1,6,7
 390 527 390 527 456 500 c 1,8,-1
 456 386 l 1,9,10
 395 392 395 392 334.5 392 c 128,-1,11
 274 392 274 392 262 390.5 c 128,-1,12
 250 389 250 389 236.5 377 c 128,-1,13
 223 365 223 365 219.5 339 c 128,-1,14
 216 313 216 313 216 265 c 128,-1,15
 216 217 216 217 219 192.5 c 128,-1,16
 222 168 222 168 234.5 155.5 c 128,-1,17
 247 143 247 143 260.5 141 c 128,-1,18
 274 139 274 139 310 139 c 0,19,20
 388 139 388 139 444 145 c 2,21,-1
 462 147 l 1,22,-1
 462 33 l 1,23,24
 406 -6 406 -6 302 -6 c 1,25,-1
 302 -95 l 1,26,-1
 194 -95 l 1,27,-1
 194 -5 l 1,28,29
 22 -1 22 -1 22 266 c 0,0,1
EndSplineSet
EndChar

StartChar: sterling
Encoding: 163 163 100
Width: 572
GlyphClass: 2
Flags: W
LayerCount: 2
Fore
SplineSet
28 0 m 1,0,-1
 28 149 l 1,1,-1
 90 174 l 1,2,-1
 90 300 l 1,3,-1
 28 300 l 1,4,-1
 28 395 l 1,5,-1
 90 422 l 1,6,-1
 90 465 l 2,7,8
 90 630 90 630 163 684 c 0,9,10
 201 712 201 712 248.5 722 c 128,-1,11
 296 732 296 732 344 732 c 0,12,13
 418 732 418 732 512 720 c 2,14,-1
 544 716 l 1,15,-1
 544 559 l 1,16,-1
 360 559 l 2,17,18
 314 559 314 559 299 546.5 c 128,-1,19
 284 534 284 534 284 487 c 2,20,-1
 284 422 l 1,21,-1
 465 405 l 1,22,-1
 465 300 l 1,23,-1
 284 300 l 1,24,-1
 284 174 l 1,25,-1
 543 174 l 1,26,-1
 543 0 l 1,27,-1
 28 0 l 1,0,-1
EndSplineSet
Substitution2: "'smcp' Lowercase to Small Capitals lookup 1 subtable" sterling.smcp
EndChar

StartChar: currency
Encoding: 164 164 101
Width: 437
GlyphClass: 2
Flags: W
LayerCount: 2
Fore
SplineSet
133 441 m 1,0,1
 173 468 173 468 219 468 c 128,-1,2
 265 468 265 468 303 444 c 1,3,-1
 348 492 l 1,4,-1
 409 439 l 1,5,-1
 359 387 l 1,6,7
 379 352 379 352 379 304.5 c 128,-1,8
 379 257 379 257 349 216 c 1,9,-1
 394 173 l 1,10,-1
 342 112 l 1,11,-1
 286 165 l 1,12,13
 255 151 255 151 215.5 151 c 128,-1,14
 176 151 176 151 138 175 c 1,15,-1
 92 126 l 1,16,-1
 33 182 l 1,17,-1
 83 233 l 1,18,19
 63 271 63 271 63 310 c 128,-1,20
 63 349 63 349 80 381 c 1,21,-1
 29 429 l 1,22,-1
 84 488 l 1,23,-1
 133 441 l 1,0,1
158 309 m 128,-1,25
 158 283 158 283 176.5 264.5 c 128,-1,26
 195 246 195 246 221 246 c 128,-1,27
 247 246 247 246 265.5 264.5 c 128,-1,28
 284 283 284 283 284 309 c 128,-1,29
 284 335 284 335 265.5 354 c 128,-1,30
 247 373 247 373 221 373 c 128,-1,31
 195 373 195 373 176.5 354 c 128,-1,24
 158 335 158 335 158 309 c 128,-1,25
EndSplineSet
EndChar

StartChar: yen
Encoding: 165 165 102
Width: 662
GlyphClass: 2
Flags: W
LayerCount: 2
Fore
SplineSet
538 351 m 1,0,-1
 538 252 l 1,1,-1
 420 252 l 1,2,-1
 420 227 l 1,3,-1
 538 227 l 1,4,-1
 538 128 l 1,5,-1
 420 128 l 1,6,-1
 420 0 l 1,7,-1
 226 0 l 1,8,-1
 226 128 l 1,9,-1
 111 128 l 1,10,-1
 111 227 l 1,11,-1
 226 227 l 1,12,-1
 226 252 l 1,13,-1
 111 252 l 1,14,-1
 111 351 l 1,15,-1
 165 351 l 1,16,-1
 11 732 l 1,17,-1
 222 732 l 1,18,-1
 327 408 l 1,19,-1
 440 732 l 1,20,-1
 651 732 l 1,21,-1
 485 351 l 1,22,-1
 538 351 l 1,0,-1
EndSplineSet
Substitution2: "'smcp' Lowercase to Small Capitals lookup 1 subtable" yen.smcp
EndChar

StartChar: brokenbar
Encoding: 166 166 103
Width: 250
GlyphClass: 2
Flags: W
LayerCount: 2
Fore
SplineSet
48 -72 m 1,0,-1
 48 256 l 1,1,-1
 202 256 l 1,2,-1
 202 -72 l 1,3,-1
 48 -72 l 1,0,-1
48 429 m 1,4,-1
 48 770 l 1,5,-1
 202 770 l 1,6,-1
 202 429 l 1,7,-1
 48 429 l 1,4,-1
EndSplineSet
EndChar

StartChar: section
Encoding: 167 167 104
Width: 532
GlyphClass: 2
Flags: W
LayerCount: 2
Fore
SplineSet
32 359 m 2,0,1
 32 443 32 443 106 468 c 1,2,3
 31 504 31 504 31 590 c 2,4,-1
 31 620 l 2,5,6
 31 697 31 697 68.5 740.5 c 128,-1,7
 106 784 106 784 181 784 c 0,8,9
 391 784 391 784 465 765 c 1,10,-1
 465 630 l 1,11,-1
 251 630 l 2,12,13
 225 630 225 630 225 606 c 2,14,-1
 225 600 l 2,15,16
 225 575 225 575 253 575 c 2,17,-1
 330 575 l 2,18,19
 417 575 417 575 460 546 c 128,-1,20
 503 517 503 517 503 450 c 2,21,-1
 503 438 l 2,22,23
 503 339 503 339 431 315 c 1,24,25
 459 310 459 310 476.5 288 c 128,-1,26
 494 266 494 266 498 245.5 c 128,-1,27
 502 225 502 225 502 203 c 2,28,-1
 502 160 l 2,29,30
 502 70 502 70 461.5 31 c 128,-1,31
 421 -8 421 -8 364 -8 c 0,32,33
 130 -8 130 -8 68 11 c 1,34,-1
 68 146 l 1,35,-1
 282 146 l 2,36,37
 298 146 298 146 303.5 150.5 c 128,-1,38
 309 155 309 155 309 167 c 2,39,-1
 309 179 l 2,40,41
 309 200 309 200 281 200 c 2,42,-1
 201 200 l 2,43,44
 119 200 119 200 75.5 227.5 c 128,-1,45
 32 255 32 255 32 323 c 2,46,-1
 32 359 l 2,0,1
225 377 m 2,47,48
 225 357 225 357 233.5 350.5 c 128,-1,49
 242 344 242 344 261 344 c 2,50,-1
 271 344 l 2,51,52
 294 344 294 344 301.5 350.5 c 128,-1,53
 309 357 309 357 309 378 c 2,54,-1
 309 396 l 2,55,56
 309 414 309 414 302.5 422 c 128,-1,57
 296 430 296 430 271 430 c 2,58,-1
 261 430 l 2,59,60
 244 430 244 430 235.5 424.5 c 128,-1,61
 227 419 227 419 226 413 c 128,-1,62
 225 407 225 407 225 394 c 2,63,-1
 225 377 l 2,47,48
EndSplineSet
EndChar

StartChar: dieresis
Encoding: 168 168 105
Width: 442
GlyphClass: 2
Flags: W
LayerCount: 2
Fore
SplineSet
28 582 m 128,-1,1
 28 609 28 609 47.5 628 c 128,-1,2
 67 647 67 647 94 647 c 128,-1,3
 121 647 121 647 140 628 c 128,-1,4
 159 609 159 609 159 582 c 128,-1,5
 159 555 159 555 140 535.5 c 128,-1,6
 121 516 121 516 94 516 c 128,-1,7
 67 516 67 516 47.5 535.5 c 128,-1,0
 28 555 28 555 28 582 c 128,-1,1
283 582 m 128,-1,9
 283 609 283 609 302.5 628 c 128,-1,10
 322 647 322 647 349 647 c 128,-1,11
 376 647 376 647 395 628 c 128,-1,12
 414 609 414 609 414 582 c 128,-1,13
 414 555 414 555 395 535.5 c 128,-1,14
 376 516 376 516 349 516 c 128,-1,15
 322 516 322 516 302.5 535.5 c 128,-1,8
 283 555 283 555 283 582 c 128,-1,9
EndSplineSet
Substitution2: "'smcp' Lowercase to Small Capitals lookup 1 subtable" dieresis.smcp
EndChar

StartChar: copyright
Encoding: 169 169 106
Width: 792
GlyphClass: 2
Flags: W
LayerCount: 2
Fore
SplineSet
31 368 m 0,0,1
 31 448 31 448 42.5 508.5 c 128,-1,2
 54 569 54 569 83 622 c 0,3,4
 143 732 143 732 308 732 c 2,5,-1
 508 732 l 2,6,7
 656 732 656 732 712 630 c 0,8,9
 762 537 762 537 762 359 c 128,-1,10
 762 181 762 181 694.5 90.5 c 128,-1,11
 627 0 627 0 508 0 c 2,12,-1
 308 0 l 2,13,14
 168 0 168 0 99.5 97.5 c 128,-1,15
 31 195 31 195 31 368 c 0,0,1
188 572.5 m 128,-1,17
 145 517 145 517 145 380 c 0,18,19
 145 104 145 104 308 104 c 2,20,-1
 498 104 l 2,21,22
 571 104 571 104 609.5 163.5 c 128,-1,23
 648 223 648 223 648 368 c 0,24,25
 648 496 648 496 627 544 c 0,26,27
 617 566 617 566 602 586 c 0,28,29
 573 628 573 628 508 628 c 2,30,-1
 308 628 l 2,31,16
 231 628 231 628 188 572.5 c 128,-1,17
217 365 m 0,32,33
 217 481 217 481 253.5 532 c 128,-1,34
 290 583 290 583 361 583 c 0,35,36
 486 583 486 583 549 559 c 1,37,-1
 549 467 l 1,38,39
 465 479 465 479 401 479 c 0,40,41
 360 479 360 479 345.5 455.5 c 128,-1,42
 331 432 331 432 331 366 c 128,-1,43
 331 300 331 300 349 275.5 c 128,-1,44
 367 251 367 251 408 251 c 0,45,46
 475 251 475 251 555 267 c 1,47,-1
 555 175 l 1,48,49
 511 151 511 151 438 148 c 0,50,51
 415 147 415 147 370 147 c 0,52,53
 217 147 217 147 217 365 c 0,32,33
EndSplineSet
EndChar

StartChar: ordfeminine
Encoding: 170 170 107
Width: 368
GlyphClass: 3
Flags: W
LayerCount: 2
Fore
SplineSet
17 258 m 1,0,-1
 17 336 l 1,1,-1
 352 336 l 1,2,-1
 352 258 l 1,3,-1
 17 258 l 1,0,-1
17 469 m 2,4,-1
 17 495 l 2,5,6
 17 594 17 594 137 594 c 0,7,8
 172 594 172 594 189 594 c 0,9,10
 210 594 210 594 206 598 c 1,11,12
 206 622 206 622 196 626 c 0,13,14
 184 631 184 631 156 631 c 0,15,16
 99 631 99 631 44 624 c 2,17,-1
 29 622 l 1,18,-1
 29 708 l 1,19,20
 85 738 85 738 177.5 738 c 128,-1,21
 270 738 270 738 311 712 c 128,-1,22
 352 686 352 686 352 616 c 2,23,-1
 352 378 l 1,24,-1
 236 378 l 1,25,-1
 206 419 l 1,26,27
 189 374 189 374 135 374 c 0,28,29
 73 374 73 374 45 404.5 c 128,-1,30
 17 435 17 435 17 469 c 2,4,-1
151 503 m 2,31,-1
 151 492 l 2,32,33
 151 482 151 482 155.5 476.5 c 128,-1,34
 160 471 160 471 164 470.5 c 128,-1,35
 168 470 168 470 172 470 c 256,36,37
 176 470 176 470 184 470 c 128,-1,38
 192 470 192 470 199 475 c 128,-1,39
 206 480 206 480 206 485 c 2,40,-1
 206 526 l 1,41,-1
 170 523 l 1,42,43
 151 523 151 523 151 503 c 2,31,-1
EndSplineSet
Substitution2: "'smcp' Lowercase to Small Capitals lookup 1 subtable" ordfeminine.smcp
Ligature2: "'ordn' Ordinals lookup 0 subtable" a
EndChar

StartChar: guillemotleft
Encoding: 171 171 108
Width: 607
GlyphClass: 2
Flags: W
LayerCount: 2
Fore
SplineSet
28 354 m 1,0,-1
 234 557 l 1,1,-1
 331 462 l 1,2,-1
 221 354 l 1,3,-1
 332 244 l 1,4,-1
 239 146 l 1,5,-1
 28 354 l 1,0,-1
275 354 m 1,6,-1
 481 557 l 1,7,-1
 578 462 l 1,8,-1
 468 354 l 1,9,-1
 579 244 l 1,10,-1
 486 146 l 1,11,-1
 275 354 l 1,6,-1
EndSplineSet
EndChar

StartChar: logicalnot
Encoding: 172 172 109
Width: 467
GlyphClass: 2
Flags: W
LayerCount: 2
Fore
SplineSet
20 226 m 1,0,-1
 20 370 l 1,1,-1
 447 370 l 1,2,-1
 447 159 l 1,3,-1
 303 159 l 1,4,-1
 303 226 l 1,5,-1
 20 226 l 1,0,-1
EndSplineSet
EndChar

StartChar: uni00AD
Encoding: 173 173 110
Width: 354
GlyphClass: 2
Flags: W
LayerCount: 2
Fore
SplineSet
20 213 m 1,0,-1
 20 367 l 1,1,-1
 334 367 l 1,2,-1
 334 213 l 1,3,-1
 20 213 l 1,0,-1
EndSplineSet
Substitution2: "'case' Case-Sensitive Forms lookup 18 subtable" uni00AD.alt
Substitution2: "'c2sc' Capitals to Small Capitals in Latin lookup 2 subtable" uni00AD.smcp
Substitution2: "'smcp' Lowercase to Small Capitals lookup 1 subtable" uni00AD.smcp
EndChar

StartChar: registered
Encoding: 174 174 111
Width: 792
GlyphClass: 2
Flags: W
LayerCount: 2
Fore
SplineSet
31 368 m 0,0,1
 31 448 31 448 42.5 508.5 c 128,-1,2
 54 569 54 569 83 622 c 0,3,4
 143 732 143 732 308 732 c 2,5,-1
 508 732 l 2,6,7
 656 732 656 732 712 630 c 0,8,9
 762 537 762 537 762 359 c 128,-1,10
 762 181 762 181 694.5 90.5 c 128,-1,11
 627 0 627 0 508 0 c 2,12,-1
 308 0 l 2,13,14
 168 0 168 0 99.5 97.5 c 128,-1,15
 31 195 31 195 31 368 c 0,0,1
188 572.5 m 128,-1,17
 145 517 145 517 145 380 c 0,18,19
 145 104 145 104 308 104 c 2,20,-1
 498 104 l 2,21,22
 571 104 571 104 609.5 163.5 c 128,-1,23
 648 223 648 223 648 368 c 0,24,25
 648 496 648 496 627 544 c 0,26,27
 617 566 617 566 602 586 c 0,28,29
 573 628 573 628 508 628 c 2,30,-1
 308 628 l 2,31,16
 231 628 231 628 188 572.5 c 128,-1,17
237 153 m 1,32,-1
 237 580 l 1,33,-1
 424 580 l 2,34,35
 558 580 558 580 558 442 c 0,36,37
 558 384 558 384 543 353.5 c 128,-1,38
 528 323 528 323 494 311 c 1,39,-1
 578 153 l 1,40,-1
 457 153 l 1,41,-1
 380 303 l 1,42,-1
 351 315 l 1,43,-1
 351 153 l 1,44,-1
 237 153 l 1,32,-1
351 399 m 1,45,-1
 390 399 l 2,46,47
 428 399 428 399 436 405.5 c 128,-1,48
 444 412 444 412 444 438 c 128,-1,49
 444 464 444 464 434.5 470 c 128,-1,50
 425 476 425 476 390 476 c 2,51,-1
 351 476 l 1,52,-1
 351 399 l 1,45,-1
EndSplineSet
EndChar

StartChar: macron
Encoding: 175 175 112
Width: 348
GlyphClass: 2
Flags: W
LayerCount: 2
Fore
SplineSet
28 531 m 1,0,-1
 28 624 l 1,1,-1
 320 624 l 1,2,-1
 320 531 l 1,3,-1
 28 531 l 1,0,-1
EndSplineSet
Substitution2: "'smcp' Lowercase to Small Capitals lookup 1 subtable" macron.smcp
EndChar

StartChar: degree
Encoding: 176 176 113
Width: 259
GlyphClass: 2
Flags: W
LayerCount: 2
Fore
SplineSet
28 632 m 128,-1,1
 28 675 28 675 58 705 c 128,-1,2
 88 735 88 735 130 735 c 128,-1,3
 172 735 172 735 201.5 705 c 128,-1,4
 231 675 231 675 231 632 c 128,-1,5
 231 589 231 589 201.5 559.5 c 128,-1,6
 172 530 172 530 130 530 c 128,-1,7
 88 530 88 530 58 559.5 c 128,-1,0
 28 589 28 589 28 632 c 128,-1,1
94 632 m 128,-1,9
 94 617 94 617 104.5 607 c 128,-1,10
 115 597 115 597 130 597 c 128,-1,11
 145 597 145 597 155 607 c 128,-1,12
 165 617 165 617 165 632 c 128,-1,13
 165 647 165 647 155 657.5 c 128,-1,14
 145 668 145 668 130 668 c 128,-1,15
 115 668 115 668 104.5 657.5 c 128,-1,8
 94 647 94 647 94 632 c 128,-1,9
EndSplineSet
Substitution2: "'smcp' Lowercase to Small Capitals lookup 1 subtable" degree.smcp
EndChar

StartChar: plusminus
Encoding: 177 177 114
Width: 479
GlyphClass: 2
Flags: W
LayerCount: 2
Fore
SplineSet
32 57 m 1,0,-1
 32 211 l 1,1,-1
 448 211 l 1,2,-1
 448 57 l 1,3,-1
 32 57 l 1,0,-1
32 377 m 1,4,-1
 32 531 l 1,5,-1
 162 531 l 1,6,-1
 162 662 l 1,7,-1
 316 662 l 1,8,-1
 316 531 l 1,9,-1
 448 531 l 1,10,-1
 448 377 l 1,11,-1
 316 377 l 1,12,-1
 316 246 l 1,13,-1
 162 246 l 1,14,-1
 162 377 l 1,15,-1
 32 377 l 1,4,-1
EndSplineSet
EndChar

StartChar: twosuperior
Encoding: 178 178 115
Width: 411
GlyphClass: 2
Flags: W
LayerCount: 2
Fore
SplineSet
17 718 m 1,0,-1
 17 827 l 1,1,2
 113 849 113 849 229 849 c 0,3,4
 308 849 308 849 348 807.5 c 128,-1,5
 388 766 388 766 388 696 c 0,6,7
 388 605 388 605 236 486 c 1,8,-1
 388 486 l 1,9,-1
 388 355 l 1,10,-1
 21 355 l 1,11,-1
 21 481 l 1,12,13
 79 515 79 515 160.5 582 c 128,-1,14
 242 649 242 649 242 676 c 128,-1,15
 242 703 242 703 225.5 710.5 c 128,-1,16
 209 718 209 718 165 718 c 2,17,-1
 17 718 l 1,0,-1
EndSplineSet
EndChar

StartChar: threesuperior
Encoding: 179 179 116
Width: 411
GlyphClass: 2
Flags: W
LayerCount: 2
Fore
SplineSet
170 350 m 0,0,1
 84 350 84 350 21 371 c 1,2,-1
 22 481 l 1,3,-1
 167 481 l 2,4,5
 209 481 209 481 220.5 484 c 128,-1,6
 232 487 232 487 232 503 c 2,7,-1
 232 507 l 2,8,9
 232 522 232 522 219 526 c 128,-1,10
 206 530 206 530 171 531 c 2,11,-1
 63 536 l 1,12,-1
 63 655 l 1,13,-1
 171 662 l 1,14,15
 226 662 226 662 232 672 c 0,16,17
 234 677 234 677 234 685 c 2,18,-1
 234 689 l 2,19,20
 234 705 234 705 219 709 c 128,-1,21
 204 713 204 713 171 713 c 2,22,-1
 17 713 l 1,23,-1
 17 822 l 1,24,25
 77 845 77 845 205 845 c 0,26,27
 225 845 225 845 246 844 c 0,28,29
 305 843 305 843 341.5 810.5 c 128,-1,30
 378 778 378 778 378 720 c 2,31,-1
 378 694 l 2,32,33
 378 618 378 618 315 597 c 1,34,35
 378 580 378 580 378 494 c 2,36,-1
 378 475 l 2,37,38
 378 415 378 415 341.5 382.5 c 128,-1,39
 305 350 305 350 241 350 c 0,40,41
 206 350 206 350 170 350 c 0,0,1
EndSplineSet
EndChar

StartChar: acute
Encoding: 180 180 117
Width: 244
GlyphClass: 2
Flags: W
LayerCount: 2
Fore
SplineSet
11 531 m 1,0,-1
 88 674 l 1,1,-1
 233 674 l 1,2,-1
 120 531 l 1,3,-1
 11 531 l 1,0,-1
EndSplineSet
Substitution2: "'smcp' Lowercase to Small Capitals lookup 1 subtable" acute.smcp
EndChar

StartChar: uni00B5
Encoding: 181 181 118
Width: 584
GlyphClass: 2
Flags: W
LayerCount: 2
Fore
SplineSet
51 -270 m 1,0,-1
 51 531 l 1,1,-1
 245 531 l 1,2,-1
 245 187 l 2,3,4
 245 157 245 157 253 146 c 128,-1,5
 261 135 261 135 278 135 c 0,6,7
 335 135 335 135 351 172 c 1,8,-1
 351 531 l 1,9,-1
 545 531 l 1,10,-1
 545 0 l 1,11,-1
 383 0 l 1,12,-1
 351 52 l 1,13,14
 342 46 342 46 328 36 c 0,15,16
 295 12 295 12 280.5 5 c 128,-1,17
 266 -2 266 -2 245 -6 c 1,18,-1
 245 -270 l 1,19,-1
 51 -270 l 1,0,-1
EndSplineSet
EndChar

StartChar: paragraph
Encoding: 182 182 119
Width: 574
GlyphClass: 2
Flags: W
LayerCount: 2
Fore
SplineSet
22 499 m 2,0,-1
 22 592 l 2,1,2
 22 661 22 661 63.5 696.5 c 128,-1,3
 105 732 105 732 178 732 c 2,4,-1
 564 732 l 1,5,-1
 564 606 l 1,6,-1
 524 606 l 1,7,-1
 524 0 l 1,8,-1
 400 0 l 1,9,-1
 400 608 l 1,10,-1
 356 608 l 1,11,-1
 356 -270 l 1,12,-1
 232 -270 l 1,13,-1
 232 372 l 1,14,15
 231 372 231 372 224 367 c 0,16,17
 207 355 207 355 178 355 c 0,18,19
 98 355 98 355 60 395 c 128,-1,20
 22 435 22 435 22 499 c 2,0,-1
146 519 m 2,21,22
 146 492 146 492 155 485.5 c 128,-1,23
 164 479 164 479 188 479 c 2,24,-1
 232 479 l 1,25,-1
 232 608 l 1,26,-1
 188 608 l 2,27,28
 159 608 159 608 152.5 599.5 c 128,-1,29
 146 591 146 591 146 558 c 2,30,-1
 146 519 l 2,21,22
EndSplineSet
EndChar

StartChar: periodcentered
Encoding: 183 183 120
Width: 257
GlyphClass: 2
Flags: W
LayerCount: 2
Fore
SplineSet
48 328 m 2,0,-1
 48 445 l 2,1,2
 48 470 48 470 72 470 c 2,3,-1
 185 470 l 2,4,5
 210 470 210 470 210 445 c 2,6,-1
 210 328 l 2,7,8
 210 305 210 305 185 305 c 2,9,-1
 72 305 l 2,10,11
 48 305 48 305 48 328 c 2,0,-1
EndSplineSet
Substitution2: "'smcp' Lowercase to Small Capitals lookup 1 subtable" periodcentered.smcp
EndChar

StartChar: cedilla
Encoding: 184 184 121
Width: 238
GlyphClass: 2
Flags: W
LayerCount: 2
Fore
SplineSet
93 -37 m 1,0,-1
 210 -37 l 1,1,2
 210 -115 210 -115 183.5 -149 c 128,-1,3
 157 -183 157 -183 89 -183 c 2,4,-1
 28 -183 l 1,5,-1
 28 -104 l 1,6,-1
 65 -89 l 2,7,8
 86 -80 86 -80 89.5 -73 c 128,-1,9
 93 -66 93 -66 93 -37 c 1,0,-1
EndSplineSet
EndChar

StartChar: onesuperior
Encoding: 185 185 122
Width: 270
GlyphClass: 2
Flags: W
LayerCount: 2
Fore
SplineSet
234 842 m 1,0,-1
 234 355 l 1,1,-1
 88 355 l 1,2,-1
 88 720 l 1,3,-1
 9 707 l 1,4,-1
 9 787 l 1,5,-1
 90 842 l 1,6,-1
 234 842 l 1,0,-1
EndSplineSet
EndChar

StartChar: ordmasculine
Encoding: 186 186 123
Width: 398
GlyphClass: 3
Flags: W
LayerCount: 2
Fore
SplineSet
57 414.5 m 128,-1,1
 17 454 17 454 17 555.5 c 128,-1,2
 17 657 17 657 56.5 696 c 128,-1,3
 96 735 96 735 199 735 c 128,-1,4
 302 735 302 735 342 694.5 c 128,-1,5
 382 654 382 654 382 552.5 c 128,-1,6
 382 451 382 451 342.5 413 c 128,-1,7
 303 375 303 375 200 375 c 128,-1,0
 97 375 97 375 57 414.5 c 128,-1,1
32 258 m 1,8,-1
 32 336 l 1,9,-1
 367 336 l 1,10,-1
 367 258 l 1,11,-1
 32 258 l 1,8,-1
168 614 m 128,-1,13
 163 601 163 601 163 553.5 c 128,-1,14
 163 506 163 506 169 494.5 c 128,-1,15
 175 483 175 483 200 483 c 128,-1,16
 225 483 225 483 230.5 493.5 c 128,-1,17
 236 504 236 504 236 553 c 128,-1,18
 236 602 236 602 231 614.5 c 128,-1,19
 226 627 226 627 199.5 627 c 128,-1,12
 173 627 173 627 168 614 c 128,-1,13
EndSplineSet
Substitution2: "'smcp' Lowercase to Small Capitals lookup 1 subtable" ordmasculine.smcp
Ligature2: "'ordn' Ordinals lookup 0 subtable" o
EndChar

StartChar: guillemotright
Encoding: 187 187 124
Width: 607
GlyphClass: 2
Flags: W
LayerCount: 2
Fore
SplineSet
28 244 m 1,0,-1
 139 354 l 1,1,-1
 29 462 l 1,2,-1
 126 557 l 1,3,-1
 332 354 l 1,4,-1
 121 146 l 1,5,-1
 28 244 l 1,0,-1
275 244 m 1,6,-1
 386 354 l 1,7,-1
 276 462 l 1,8,-1
 373 557 l 1,9,-1
 579 354 l 1,10,-1
 368 146 l 1,11,-1
 275 244 l 1,6,-1
EndSplineSet
EndChar

StartChar: onequarter
Encoding: 188 188 125
Width: 954
GlyphClass: 3
Flags: W
LayerCount: 2
Fore
SplineSet
234 742 m 1,0,-1
 234 255 l 1,1,-1
 88 255 l 1,2,-1
 88 620 l 1,3,-1
 9 607 l 1,4,-1
 9 687 l 1,5,-1
 90 742 l 1,6,-1
 234 742 l 1,0,-1
139 0 m 1,7,-1
 605 770 l 1,8,-1
 736 770 l 1,9,-1
 270 0 l 1,10,-1
 139 0 l 1,7,-1
757 214 m 1,11,-1
 757 301 l 1,12,-1
 778 352 l 1,13,-1
 903 352 l 1,14,-1
 903 214 l 1,15,-1
 943 214 l 1,16,-1
 943 102 l 1,17,-1
 903 80 l 1,18,-1
 903 2 l 1,19,-1
 757 2 l 1,20,-1
 757 80 l 1,21,-1
 535 80 l 1,22,-1
 512 146 l 1,23,-1
 653 487 l 1,24,-1
 802 487 l 1,25,-1
 697 214 l 1,26,-1
 757 214 l 1,11,-1
EndSplineSet
Ligature2: "'frac' Diagonal Fractions lookup 7 subtable" one fraction four
Ligature2: "'frac' Diagonal Fractions lookup 7 subtable" one slash four
EndChar

StartChar: onehalf
Encoding: 189 189 126
Width: 1005
GlyphClass: 3
Flags: W
LayerCount: 2
Fore
SplineSet
234 742 m 1,0,-1
 234 255 l 1,1,-1
 88 255 l 1,2,-1
 88 620 l 1,3,-1
 9 607 l 1,4,-1
 9 687 l 1,5,-1
 90 742 l 1,6,-1
 234 742 l 1,0,-1
129 0 m 1,7,-1
 595 770 l 1,8,-1
 726 770 l 1,9,-1
 260 0 l 1,10,-1
 129 0 l 1,7,-1
606 363 m 1,11,-1
 606 472 l 1,12,13
 704 494 704 494 821 494 c 0,14,15
 901 494 901 494 942 452.5 c 128,-1,16
 983 411 983 411 983 341 c 0,17,18
 983 251 983 251 826 131 c 1,19,-1
 983 131 l 1,20,-1
 983 0 l 1,21,-1
 610 0 l 1,22,-1
 610 127 l 1,23,24
 671 165 671 165 754 234.5 c 128,-1,25
 837 304 837 304 837 335 c 0,26,27
 837 353 837 353 820 358 c 128,-1,28
 803 363 803 363 758 363 c 2,29,-1
 606 363 l 1,11,-1
EndSplineSet
Ligature2: "'frac' Diagonal Fractions lookup 7 subtable" one fraction two
Ligature2: "'frac' Diagonal Fractions lookup 7 subtable" one slash two
EndChar

StartChar: threequarters
Encoding: 190 190 127
Width: 1066
GlyphClass: 3
Flags: W
LayerCount: 2
Fore
SplineSet
173 250 m 0,0,1
 84 250 84 250 21 271 c 1,2,-1
 22 381 l 1,3,-1
 171 381 l 2,4,5
 214 381 214 381 226 384 c 128,-1,6
 238 387 238 387 238 403 c 2,7,-1
 238 407 l 2,8,9
 238 422 238 422 224.5 426 c 128,-1,10
 211 430 211 430 175 431 c 2,11,-1
 63 436 l 1,12,-1
 63 554 l 1,13,-1
 175 562 l 1,14,15
 232 562 232 562 238 572 c 0,16,17
 240 577 240 577 240 585 c 2,18,-1
 240 590 l 2,19,20
 240 606 240 606 224.5 610 c 128,-1,21
 209 614 209 614 175 614 c 2,22,-1
 17 614 l 1,23,-1
 17 723 l 1,24,25
 75 745 75 745 206 745 c 0,26,27
 227 745 227 745 250 744 c 0,28,29
 310 743 310 743 347 710.5 c 128,-1,30
 384 678 384 678 384 620 c 2,31,-1
 384 594 l 2,32,33
 384 518 384 518 321 497 c 1,34,35
 384 480 384 480 384 394 c 2,36,-1
 384 375 l 2,37,38
 384 315 384 315 347.5 282.5 c 128,-1,39
 311 250 311 250 245 250 c 0,40,41
 209 250 209 250 173 250 c 0,0,1
244 0 m 1,42,-1
 710 770 l 1,43,-1
 841 770 l 1,44,-1
 375 0 l 1,45,-1
 244 0 l 1,42,-1
852 214 m 1,46,-1
 852 301 l 1,47,-1
 873 352 l 1,48,-1
 998 352 l 1,49,-1
 998 214 l 1,50,-1
 1038 214 l 1,51,-1
 1038 102 l 1,52,-1
 998 80 l 1,53,-1
 998 2 l 1,54,-1
 852 2 l 1,55,-1
 852 80 l 1,56,-1
 630 80 l 1,57,-1
 607 146 l 1,58,-1
 748 487 l 1,59,-1
 897 487 l 1,60,-1
 792 214 l 1,61,-1
 852 214 l 1,46,-1
EndSplineSet
Ligature2: "'frac' Diagonal Fractions lookup 7 subtable" three fraction four
Ligature2: "'frac' Diagonal Fractions lookup 7 subtable" three slash four
EndChar

StartChar: questiondown
Encoding: 191 191 128
Width: 544
GlyphClass: 2
Flags: W
LayerCount: 2
Fore
SplineSet
22 -11 m 2,0,1
 22 97 22 97 67.5 146.5 c 128,-1,2
 113 196 113 196 218 196 c 0,3,4
 226 196 226 196 235 196 c 1,5,-1
 235 277 l 1,6,-1
 380 277 l 1,7,-1
 380 55 l 1,8,-1
 288 55 l 1,9,10
 249 53 249 53 232 38 c 128,-1,11
 215 23 215 23 215 -15 c 2,12,-1
 215 -30 l 2,13,14
 215 -92 215 -92 302 -92 c 2,15,-1
 533 -92 l 1,16,-1
 533 -237 l 1,17,18
 416 -268 416 -268 293 -268 c 0,19,20
 272 -268 272 -268 251 -267 c 1,21,22
 144 -267 144 -267 83 -205 c 128,-1,23
 22 -143 22 -143 22 -62 c 2,24,-1
 22 -11 l 2,0,1
227 332 m 2,25,-1
 227 449 l 2,26,27
 227 472 227 472 252 472 c 2,28,-1
 365 472 l 2,29,30
 389 472 389 472 389 449 c 2,31,-1
 389 332 l 2,32,33
 389 307 389 307 365 307 c 2,34,-1
 252 307 l 2,35,36
 227 307 227 307 227 332 c 2,25,-1
EndSplineSet
Substitution2: "'case' Case-Sensitive Forms lookup 18 subtable" questiondown.alt
Substitution2: "'smcp' Lowercase to Small Capitals lookup 1 subtable" questiondown.smcp
EndChar

StartChar: Agrave
Encoding: 192 192 129
Width: 711
GlyphClass: 2
Flags: W
LayerCount: 2
Fore
SplineSet
201 940 m 1,0,-1
 346 940 l 1,1,-1
 423 797 l 1,2,-1
 314 797 l 1,3,-1
 201 940 l 1,0,-1
25 0 m 1,4,-1
 254 732 l 1,5,-1
 483 732 l 1,6,-1
 705 0 l 1,7,-1
 506 0 l 1,8,-1
 463 128 l 1,9,-1
 266 128 l 1,10,-1
 224 0 l 1,11,-1
 25 0 l 1,4,-1
310 293 m 1,12,-1
 424 293 l 1,13,-1
 371 489 l 1,14,-1
 310 293 l 1,12,-1
EndSplineSet
Substitution2: "'c2sc' Capitals to Small Capitals in Latin lookup 2 subtable" agrave.smcp
EndChar

StartChar: Aacute
Encoding: 193 193 130
Width: 711
GlyphClass: 2
Flags: W
LayerCount: 2
Fore
SplineSet
314 797 m 1,0,-1
 391 940 l 1,1,-1
 536 940 l 1,2,-1
 423 797 l 1,3,-1
 314 797 l 1,0,-1
25 0 m 1,4,-1
 254 732 l 1,5,-1
 483 732 l 1,6,-1
 705 0 l 1,7,-1
 506 0 l 1,8,-1
 463 128 l 1,9,-1
 266 128 l 1,10,-1
 224 0 l 1,11,-1
 25 0 l 1,4,-1
310 293 m 1,12,-1
 424 293 l 1,13,-1
 371 489 l 1,14,-1
 310 293 l 1,12,-1
EndSplineSet
Substitution2: "'c2sc' Capitals to Small Capitals in Latin lookup 2 subtable" aacute.smcp
EndChar

StartChar: Acircumflex
Encoding: 194 194 131
Width: 711
GlyphClass: 2
Flags: W
LayerCount: 2
Fore
SplineSet
208 797 m 1,0,-1
 308 937 l 1,1,-1
 438 937 l 1,2,-1
 530 797 l 1,3,-1
 418 797 l 1,4,-1
 370 848 l 1,5,-1
 320 797 l 1,6,-1
 208 797 l 1,0,-1
25 0 m 1,7,-1
 254 732 l 1,8,-1
 483 732 l 1,9,-1
 705 0 l 1,10,-1
 506 0 l 1,11,-1
 463 128 l 1,12,-1
 266 128 l 1,13,-1
 224 0 l 1,14,-1
 25 0 l 1,7,-1
310 293 m 1,15,-1
 424 293 l 1,16,-1
 371 489 l 1,17,-1
 310 293 l 1,15,-1
EndSplineSet
Substitution2: "'c2sc' Capitals to Small Capitals in Latin lookup 2 subtable" acircumflex.smcp
EndChar

StartChar: Atilde
Encoding: 195 195 132
Width: 711
GlyphClass: 2
Flags: W
LayerCount: 2
Fore
SplineSet
318 938 m 0,0,1
 340 938 340 938 372 920.5 c 128,-1,2
 404 903 404 903 424 903 c 0,3,4
 427 903 427 903 429 903 c 0,5,6
 478 903 478 903 516 943 c 1,7,-1
 542 869 l 1,8,9
 494 797 494 797 430 797 c 0,10,11
 408 797 408 797 371 814.5 c 128,-1,12
 334 832 334 832 310 832 c 0,13,14
 267 832 267 832 222 797 c 1,15,-1
 194 864 l 1,16,17
 246 938 246 938 318 938 c 0,0,1
25 0 m 1,18,-1
 254 732 l 1,19,-1
 483 732 l 1,20,-1
 705 0 l 1,21,-1
 506 0 l 1,22,-1
 463 128 l 1,23,-1
 266 128 l 1,24,-1
 224 0 l 1,25,-1
 25 0 l 1,18,-1
310 293 m 1,26,-1
 424 293 l 1,27,-1
 371 489 l 1,28,-1
 310 293 l 1,26,-1
EndSplineSet
Substitution2: "'c2sc' Capitals to Small Capitals in Latin lookup 2 subtable" atilde.smcp
EndChar

StartChar: Adieresis
Encoding: 196 196 133
Width: 711
GlyphClass: 2
Flags: W
LayerCount: 2
Fore
SplineSet
176 863 m 128,-1,1
 176 890 176 890 195 909 c 128,-1,2
 214 928 214 928 241 928 c 128,-1,3
 268 928 268 928 287 909 c 128,-1,4
 306 890 306 890 306 863 c 128,-1,5
 306 836 306 836 287 816.5 c 128,-1,6
 268 797 268 797 241 797 c 128,-1,7
 214 797 214 797 195 816.5 c 128,-1,0
 176 836 176 836 176 863 c 128,-1,1
430 863 m 128,-1,9
 430 890 430 890 449.5 909 c 128,-1,10
 469 928 469 928 496.5 928 c 128,-1,11
 524 928 524 928 543 909 c 128,-1,12
 562 890 562 890 562 863 c 128,-1,13
 562 836 562 836 542.5 816.5 c 128,-1,14
 523 797 523 797 496.5 797 c 128,-1,15
 470 797 470 797 450 816.5 c 128,-1,8
 430 836 430 836 430 863 c 128,-1,9
25 0 m 1,16,-1
 254 732 l 1,17,-1
 483 732 l 1,18,-1
 705 0 l 1,19,-1
 506 0 l 1,20,-1
 463 128 l 1,21,-1
 266 128 l 1,22,-1
 224 0 l 1,23,-1
 25 0 l 1,16,-1
310 293 m 1,24,-1
 424 293 l 1,25,-1
 371 489 l 1,26,-1
 310 293 l 1,24,-1
EndSplineSet
Substitution2: "'c2sc' Capitals to Small Capitals in Latin lookup 2 subtable" adieresis.smcp
EndChar

StartChar: Aring
Encoding: 197 197 134
Width: 711
GlyphClass: 2
Flags: W
LayerCount: 2
Fore
SplineSet
280.5 780.5 m 128,-1,1
 294 757 294 757 317.5 743.5 c 128,-1,2
 341 730 341 730 369 730 c 128,-1,3
 397 730 397 730 420 743.5 c 128,-1,4
 443 757 443 757 456.5 780.5 c 128,-1,5
 470 804 470 804 470 839.5 c 128,-1,6
 470 875 470 875 440.5 905 c 128,-1,7
 411 935 411 935 369 935 c 128,-1,8
 327 935 327 935 297 905 c 128,-1,9
 267 875 267 875 267 839.5 c 128,-1,0
 267 804 267 804 280.5 780.5 c 128,-1,1
335 832 m 128,-1,11
 335 846 335 846 345 856 c 128,-1,12
 355 866 355 866 369 866 c 128,-1,13
 383 866 383 866 392.5 856.5 c 128,-1,14
 402 847 402 847 402 832.5 c 128,-1,15
 402 818 402 818 392.5 808.5 c 128,-1,16
 383 799 383 799 369 799 c 128,-1,17
 355 799 355 799 345 808.5 c 128,-1,10
 335 818 335 818 335 832 c 128,-1,11
25 0 m 1,18,-1
 254 732 l 1,19,-1
 483 732 l 1,20,-1
 705 0 l 1,21,-1
 506 0 l 1,22,-1
 463 128 l 1,23,-1
 266 128 l 1,24,-1
 224 0 l 1,25,-1
 25 0 l 1,18,-1
310 293 m 1,26,-1
 424 293 l 1,27,-1
 371 489 l 1,28,-1
 310 293 l 1,26,-1
EndSplineSet
Substitution2: "'c2sc' Capitals to Small Capitals in Latin lookup 2 subtable" aring.smcp
EndChar

StartChar: AE
Encoding: 198 198 135
Width: 981
GlyphClass: 2
Flags: W
LayerCount: 2
Fore
SplineSet
448 706 m 0,0,1
 497 724 497 724 535.5 728.5 c 128,-1,2
 574 733 574 733 601.5 733 c 128,-1,3
 629 733 629 733 649 732 c 1,4,5
 839 732 839 732 956 716 c 1,6,-1
 956 553 l 1,7,-1
 709 553 l 2,8,9
 685 553 685 553 672.5 543.5 c 128,-1,10
 660 534 660 534 658.5 524.5 c 128,-1,11
 657 515 657 515 657 497 c 2,12,-1
 657 453 l 1,13,-1
 906 442 l 1,14,-1
 906 281 l 1,15,-1
 657 272 l 1,16,-1
 657 228 l 2,17,18
 657 190 657 190 678 182 c 0,19,20
 694 176 694 176 719 176 c 2,21,-1
 956 176 l 1,22,-1
 956 14 l 1,23,24
 855 1 855 1 710 -2 c 2,25,-1
 659 -3 l 2,26,27
 649 -4 649 -4 633.5 -4 c 128,-1,28
 618 -4 618 -4 593 -0.5 c 128,-1,29
 568 3 568 3 535.5 14.5 c 128,-1,30
 503 26 503 26 483 53.5 c 128,-1,31
 463 81 463 81 463 121 c 2,32,-1
 463 167 l 1,33,-1
 316 167 l 1,34,-1
 232 0 l 1,35,-1
 17 0 l 1,36,-1
 288 552 l 2,37,38
 346 670 346 670 448 706 c 0,0,1
463 331 m 1,39,-1
 463 482 l 1,40,-1
 394 331 l 1,41,-1
 463 331 l 1,39,-1
EndSplineSet
EndChar

StartChar: Ccedilla
Encoding: 199 199 136
Width: 567
GlyphClass: 2
Flags: W
LayerCount: 2
Fore
SplineSet
548 549 m 1,0,1
 446 566 446 566 365.5 566 c 128,-1,2
 285 566 285 566 267 555 c 0,3,4
 225 530 225 530 225 366 c 0,5,6
 225 242 225 242 247.5 205 c 128,-1,7
 270 168 270 168 345 168 c 0,8,9
 449 168 449 168 520 174 c 1,10,-1
 548 177 l 1,11,-1
 548 26 l 1,12,13
 500 6 500 6 452 0 c 128,-1,14
 404 -6 404 -6 356 -6 c 128,-1,15
 308 -6 308 -6 284 -6 c 0,16,17
 148 -4 148 -4 89.5 87.5 c 128,-1,18
 31 179 31 179 31 367.5 c 128,-1,19
 31 556 31 556 86.5 648 c 128,-1,20
 142 740 142 740 284 740 c 0,21,22
 388 740 388 740 434.5 732.5 c 128,-1,23
 481 725 481 725 548 700 c 1,24,-1
 548 549 l 1,0,1
252 -36 m 1,25,-1
 369 -36 l 1,26,27
 369 -114 369 -114 342.5 -148 c 128,-1,28
 316 -182 316 -182 248 -182 c 2,29,-1
 187 -182 l 1,30,-1
 187 -103 l 1,31,-1
 224 -88 l 2,32,33
 245 -79 245 -79 248.5 -72 c 128,-1,34
 252 -65 252 -65 252 -36 c 1,25,-1
EndSplineSet
Substitution2: "'c2sc' Capitals to Small Capitals in Latin lookup 2 subtable" ccedilla.smcp
EndChar

StartChar: Egrave
Encoding: 200 200 137
Width: 567
GlyphClass: 2
Flags: W
LayerCount: 2
Fore
SplineSet
155 941 m 1,0,-1
 300 941 l 1,1,-1
 377 798 l 1,2,-1
 268 798 l 1,3,-1
 155 941 l 1,0,-1
40 161 m 2,4,-1
 40 562 l 2,5,6
 40 732 40 732 226 732 c 0,7,8
 436 732 436 732 553 716 c 1,9,-1
 553 553 l 1,10,-1
 286 553 l 2,11,12
 262 553 262 553 249.5 543.5 c 128,-1,13
 237 534 237 534 235.5 524.5 c 128,-1,14
 234 515 234 515 234 497 c 2,15,-1
 234 453 l 1,16,-1
 503 442 l 1,17,-1
 503 281 l 1,18,-1
 234 272 l 1,19,-1
 234 228 l 2,20,21
 234 190 234 190 255 182 c 0,22,23
 272 176 272 176 296 176 c 2,24,-1
 553 176 l 1,25,-1
 553 14 l 1,26,27
 452 1 452 1 292 -2 c 2,28,-1
 236 -3 l 2,29,30
 228 -3 228 -3 216.5 -3 c 128,-1,31
 205 -3 205 -3 186.5 -1.5 c 128,-1,32
 168 0 168 0 139.5 10 c 128,-1,33
 111 20 111 20 90 36.5 c 128,-1,34
 69 53 69 53 54.5 85 c 128,-1,35
 40 117 40 117 40 161 c 2,4,-1
EndSplineSet
Substitution2: "'c2sc' Capitals to Small Capitals in Latin lookup 2 subtable" egrave.smcp
EndChar

StartChar: Eacute
Encoding: 201 201 138
Width: 567
GlyphClass: 2
Flags: W
LayerCount: 2
Fore
SplineSet
266 797 m 1,0,-1
 343 940 l 1,1,-1
 488 940 l 1,2,-1
 375 797 l 1,3,-1
 266 797 l 1,0,-1
40 161 m 2,4,-1
 40 562 l 2,5,6
 40 732 40 732 226 732 c 0,7,8
 436 732 436 732 553 716 c 1,9,-1
 553 553 l 1,10,-1
 286 553 l 2,11,12
 262 553 262 553 249.5 543.5 c 128,-1,13
 237 534 237 534 235.5 524.5 c 128,-1,14
 234 515 234 515 234 497 c 2,15,-1
 234 453 l 1,16,-1
 503 442 l 1,17,-1
 503 281 l 1,18,-1
 234 272 l 1,19,-1
 234 228 l 2,20,21
 234 190 234 190 255 182 c 0,22,23
 272 176 272 176 296 176 c 2,24,-1
 553 176 l 1,25,-1
 553 14 l 1,26,27
 452 1 452 1 292 -2 c 2,28,-1
 236 -3 l 2,29,30
 228 -3 228 -3 216.5 -3 c 128,-1,31
 205 -3 205 -3 186.5 -1.5 c 128,-1,32
 168 0 168 0 139.5 10 c 128,-1,33
 111 20 111 20 90 36.5 c 128,-1,34
 69 53 69 53 54.5 85 c 128,-1,35
 40 117 40 117 40 161 c 2,4,-1
EndSplineSet
Substitution2: "'c2sc' Capitals to Small Capitals in Latin lookup 2 subtable" eacute.smcp
EndChar

StartChar: Ecircumflex
Encoding: 202 202 139
Width: 567
GlyphClass: 2
Flags: W
LayerCount: 2
Fore
SplineSet
158 797 m 1,0,-1
 258 937 l 1,1,-1
 389 937 l 1,2,-1
 480 797 l 1,3,-1
 369 797 l 1,4,-1
 320 848 l 1,5,-1
 270 797 l 1,6,-1
 158 797 l 1,0,-1
40 161 m 2,7,-1
 40 562 l 2,8,9
 40 732 40 732 226 732 c 0,10,11
 436 732 436 732 553 716 c 1,12,-1
 553 553 l 1,13,-1
 286 553 l 2,14,15
 262 553 262 553 249.5 543.5 c 128,-1,16
 237 534 237 534 235.5 524.5 c 128,-1,17
 234 515 234 515 234 497 c 2,18,-1
 234 453 l 1,19,-1
 503 442 l 1,20,-1
 503 281 l 1,21,-1
 234 272 l 1,22,-1
 234 228 l 2,23,24
 234 190 234 190 255 182 c 0,25,26
 272 176 272 176 296 176 c 2,27,-1
 553 176 l 1,28,-1
 553 14 l 1,29,30
 452 1 452 1 292 -2 c 2,31,-1
 236 -3 l 2,32,33
 228 -3 228 -3 216.5 -3 c 128,-1,34
 205 -3 205 -3 186.5 -1.5 c 128,-1,35
 168 0 168 0 139.5 10 c 128,-1,36
 111 20 111 20 90 36.5 c 128,-1,37
 69 53 69 53 54.5 85 c 128,-1,38
 40 117 40 117 40 161 c 2,7,-1
EndSplineSet
Substitution2: "'c2sc' Capitals to Small Capitals in Latin lookup 2 subtable" ecircumflex.smcp
EndChar

StartChar: Edieresis
Encoding: 203 203 140
Width: 567
GlyphClass: 2
Flags: W
LayerCount: 2
Fore
SplineSet
116 863 m 128,-1,1
 116 890 116 890 135.5 909 c 128,-1,2
 155 928 155 928 182 928 c 128,-1,3
 209 928 209 928 228 909 c 128,-1,4
 247 890 247 890 247 863 c 128,-1,5
 247 836 247 836 228 816.5 c 128,-1,6
 209 797 209 797 182 797 c 128,-1,7
 155 797 155 797 135.5 816.5 c 128,-1,0
 116 836 116 836 116 863 c 128,-1,1
371 863 m 128,-1,9
 371 890 371 890 390.5 909 c 128,-1,10
 410 928 410 928 437 928 c 128,-1,11
 464 928 464 928 483 909 c 128,-1,12
 502 890 502 890 502 863 c 128,-1,13
 502 836 502 836 483 816.5 c 128,-1,14
 464 797 464 797 437 797 c 128,-1,15
 410 797 410 797 390.5 816.5 c 128,-1,8
 371 836 371 836 371 863 c 128,-1,9
40 161 m 2,16,-1
 40 562 l 2,17,18
 40 732 40 732 226 732 c 0,19,20
 436 732 436 732 553 716 c 1,21,-1
 553 553 l 1,22,-1
 286 553 l 2,23,24
 262 553 262 553 249.5 543.5 c 128,-1,25
 237 534 237 534 235.5 524.5 c 128,-1,26
 234 515 234 515 234 497 c 2,27,-1
 234 453 l 1,28,-1
 503 442 l 1,29,-1
 503 281 l 1,30,-1
 234 272 l 1,31,-1
 234 228 l 2,32,33
 234 190 234 190 255 182 c 0,34,35
 272 176 272 176 296 176 c 2,36,-1
 553 176 l 1,37,-1
 553 14 l 1,38,39
 452 1 452 1 292 -2 c 2,40,-1
 236 -3 l 2,41,42
 228 -3 228 -3 216.5 -3 c 128,-1,43
 205 -3 205 -3 186.5 -1.5 c 128,-1,44
 168 0 168 0 139.5 10 c 128,-1,45
 111 20 111 20 90 36.5 c 128,-1,46
 69 53 69 53 54.5 85 c 128,-1,47
 40 117 40 117 40 161 c 2,16,-1
EndSplineSet
Substitution2: "'c2sc' Capitals to Small Capitals in Latin lookup 2 subtable" edieresis.smcp
EndChar

StartChar: Igrave
Encoding: 204 204 141
Width: 272
GlyphClass: 2
Flags: W
LayerCount: 2
Fore
SplineSet
-26 940 m 1,0,-1
 120 940 l 1,1,-1
 196 797 l 1,2,-1
 88 797 l 1,3,-1
 -26 940 l 1,0,-1
45 0 m 1,4,-1
 45 732 l 1,5,-1
 239 732 l 1,6,-1
 239 0 l 1,7,-1
 45 0 l 1,4,-1
EndSplineSet
Substitution2: "'c2sc' Capitals to Small Capitals in Latin lookup 2 subtable" igrave.smcp
EndChar

StartChar: Iacute
Encoding: 205 205 142
Width: 272
GlyphClass: 2
Flags: W
LayerCount: 2
Fore
SplineSet
88 797 m 1,0,-1
 164 940 l 1,1,-1
 310 940 l 1,2,-1
 196 797 l 1,3,-1
 88 797 l 1,0,-1
45 0 m 1,4,-1
 45 732 l 1,5,-1
 239 732 l 1,6,-1
 239 0 l 1,7,-1
 45 0 l 1,4,-1
EndSplineSet
Substitution2: "'c2sc' Capitals to Small Capitals in Latin lookup 2 subtable" iacute.smcp
EndChar

StartChar: Icircumflex
Encoding: 206 206 143
Width: 272
GlyphClass: 2
Flags: W
LayerCount: 2
Fore
SplineSet
-19 797 m 1,0,-1
 81 937 l 1,1,-1
 212 937 l 1,2,-1
 303 797 l 1,3,-1
 192 797 l 1,4,-1
 143 848 l 1,5,-1
 93 797 l 1,6,-1
 -19 797 l 1,0,-1
45 0 m 1,7,-1
 45 732 l 1,8,-1
 239 732 l 1,9,-1
 239 0 l 1,10,-1
 45 0 l 1,7,-1
EndSplineSet
Substitution2: "'c2sc' Capitals to Small Capitals in Latin lookup 2 subtable" icircumflex.smcp
EndChar

StartChar: Idieresis
Encoding: 207 207 144
Width: 272
GlyphClass: 2
Flags: W
LayerCount: 2
Fore
SplineSet
-51 863 m 128,-1,1
 -51 890 -51 890 -31.5 909 c 128,-1,2
 -12 928 -12 928 15 928 c 128,-1,3
 42 928 42 928 61 909 c 128,-1,4
 80 890 80 890 80 863 c 128,-1,5
 80 836 80 836 61 816.5 c 128,-1,6
 42 797 42 797 15 797 c 128,-1,7
 -12 797 -12 797 -31.5 816.5 c 128,-1,0
 -51 836 -51 836 -51 863 c 128,-1,1
204 863 m 128,-1,9
 204 890 204 890 223.5 909 c 128,-1,10
 243 928 243 928 270 928 c 128,-1,11
 297 928 297 928 316 909 c 128,-1,12
 335 890 335 890 335 863 c 128,-1,13
 335 836 335 836 316 816.5 c 128,-1,14
 297 797 297 797 270 797 c 128,-1,15
 243 797 243 797 223.5 816.5 c 128,-1,8
 204 836 204 836 204 863 c 128,-1,9
45 0 m 1,16,-1
 45 732 l 1,17,-1
 239 732 l 1,18,-1
 239 0 l 1,19,-1
 45 0 l 1,16,-1
EndSplineSet
Substitution2: "'c2sc' Capitals to Small Capitals in Latin lookup 2 subtable" idieresis.smcp
EndChar

StartChar: Eth
Encoding: 208 208 145
Width: 667
GlyphClass: 2
Flags: W
LayerCount: 2
Fore
SplineSet
-20 336 m 1,0,-1
 -20 410 l 1,1,-1
 45 410 l 1,2,-1
 45 732 l 1,3,-1
 388 732 l 2,4,5
 599 732 599 732 630 482 c 0,6,7
 637 429 637 429 637 363 c 0,8,9
 637 173 637 173 576 86.5 c 128,-1,10
 515 0 515 0 388 0 c 2,11,-1
 45 0 l 1,12,-1
 45 336 l 1,13,-1
 -20 336 l 1,0,-1
239 164 m 1,14,-1
 368 164 l 2,15,16
 410 164 410 164 426.5 210 c 128,-1,17
 443 256 443 256 443 353.5 c 128,-1,18
 443 451 443 451 433.5 497 c 128,-1,19
 424 543 424 543 409 555.5 c 128,-1,20
 394 568 394 568 368 568 c 2,21,-1
 239 568 l 1,22,-1
 239 410 l 1,23,-1
 328 410 l 1,24,-1
 328 336 l 1,25,-1
 239 336 l 1,26,-1
 239 164 l 1,14,-1
EndSplineSet
Substitution2: "'c2sc' Capitals to Small Capitals in Latin lookup 2 subtable" eth.smcp
EndChar

StartChar: Ntilde
Encoding: 209 209 146
Width: 677
GlyphClass: 2
Flags: W
LayerCount: 2
Fore
SplineSet
294 938 m 0,0,1
 316 938 316 938 348 920.5 c 128,-1,2
 380 903 380 903 400 903 c 0,3,4
 403 903 403 903 405 903 c 0,5,6
 454 903 454 903 492 943 c 1,7,-1
 518 869 l 1,8,9
 470 797 470 797 406 797 c 0,10,11
 384 797 384 797 347 814.5 c 128,-1,12
 310 832 310 832 286 832 c 0,13,14
 243 832 243 832 198 797 c 1,15,-1
 170 864 l 1,16,17
 222 938 222 938 294 938 c 0,0,1
45 0 m 1,18,-1
 45 732 l 1,19,-1
 241 732 l 1,20,-1
 450 358 l 1,21,-1
 450 732 l 1,22,-1
 644 732 l 1,23,-1
 644 0 l 1,24,-1
 450 0 l 1,25,-1
 240 364 l 1,26,-1
 240 0 l 1,27,-1
 45 0 l 1,18,-1
EndSplineSet
AlternateSubs2: "'salt' Stylistic Alternatives in Latin lookup 16 subtable" Ntilde.salt
Substitution2: "'c2sc' Capitals to Small Capitals in Latin lookup 2 subtable" ntilde.smcp
EndChar

StartChar: Ograve
Encoding: 210 210 147
Width: 667
GlyphClass: 2
Flags: W
LayerCount: 2
Fore
SplineSet
172 940 m 1,0,-1
 318 940 l 1,1,-1
 394 797 l 1,2,-1
 286 797 l 1,3,-1
 172 940 l 1,0,-1
46.5 218.5 m 128,-1,5
 37 279 37 279 37 356 c 128,-1,6
 37 433 37 433 45.5 489.5 c 128,-1,7
 54 546 54 546 67.5 585.5 c 128,-1,8
 81 625 81 625 103.5 653 c 128,-1,9
 126 681 126 681 149.5 697 c 128,-1,10
 173 713 173 713 206 722 c 0,11,12
 258 737 258 737 319.5 737 c 128,-1,13
 381 737 381 737 411.5 734 c 128,-1,14
 442 731 442 731 475.5 722 c 128,-1,15
 509 713 509 713 532.5 697 c 128,-1,16
 556 681 556 681 578 653 c 128,-1,17
 600 625 600 625 614 586 c 0,18,19
 643 499 643 499 643 382.5 c 128,-1,20
 643 266 643 266 628 199 c 128,-1,21
 613 132 613 132 589 93 c 128,-1,22
 565 54 565 54 524 32 c 128,-1,23
 483 10 483 10 441.5 3 c 128,-1,24
 400 -4 400 -4 344.5 -4 c 128,-1,25
 289 -4 289 -4 254.5 0 c 128,-1,26
 220 4 220 4 182 16.5 c 128,-1,27
 144 29 144 29 120 54 c 128,-1,28
 96 79 96 79 76 118.5 c 128,-1,4
 56 158 56 158 46.5 218.5 c 128,-1,5
240.5 494 m 128,-1,30
 231 452 231 452 231 347 c 128,-1,31
 231 242 231 242 250 206 c 128,-1,32
 269 170 269 170 337 170 c 128,-1,33
 405 170 405 170 427 208 c 128,-1,34
 449 246 449 246 449 337 c 128,-1,35
 449 428 449 428 445 465 c 128,-1,36
 441 502 441 502 428.5 525.5 c 128,-1,37
 416 549 416 549 396 556 c 128,-1,38
 376 563 376 563 334.5 563 c 128,-1,39
 293 563 293 563 271.5 549.5 c 128,-1,29
 250 536 250 536 240.5 494 c 128,-1,30
EndSplineSet
Substitution2: "'c2sc' Capitals to Small Capitals in Latin lookup 2 subtable" ograve.smcp
EndChar

StartChar: Oacute
Encoding: 211 211 148
Width: 667
GlyphClass: 2
Flags: W
LayerCount: 2
Fore
SplineSet
286 797 m 1,0,-1
 362 940 l 1,1,-1
 508 940 l 1,2,-1
 394 797 l 1,3,-1
 286 797 l 1,0,-1
46.5 218.5 m 128,-1,5
 37 279 37 279 37 356 c 128,-1,6
 37 433 37 433 45.5 489.5 c 128,-1,7
 54 546 54 546 67.5 585.5 c 128,-1,8
 81 625 81 625 103.5 653 c 128,-1,9
 126 681 126 681 149.5 697 c 128,-1,10
 173 713 173 713 206 722 c 0,11,12
 258 737 258 737 319.5 737 c 128,-1,13
 381 737 381 737 411.5 734 c 128,-1,14
 442 731 442 731 475.5 722 c 128,-1,15
 509 713 509 713 532.5 697 c 128,-1,16
 556 681 556 681 578 653 c 128,-1,17
 600 625 600 625 614 586 c 0,18,19
 643 499 643 499 643 382.5 c 128,-1,20
 643 266 643 266 628 199 c 128,-1,21
 613 132 613 132 589 93 c 128,-1,22
 565 54 565 54 524 32 c 128,-1,23
 483 10 483 10 441.5 3 c 128,-1,24
 400 -4 400 -4 344.5 -4 c 128,-1,25
 289 -4 289 -4 254.5 0 c 128,-1,26
 220 4 220 4 182 16.5 c 128,-1,27
 144 29 144 29 120 54 c 128,-1,28
 96 79 96 79 76 118.5 c 128,-1,4
 56 158 56 158 46.5 218.5 c 128,-1,5
240.5 494 m 128,-1,30
 231 452 231 452 231 347 c 128,-1,31
 231 242 231 242 250 206 c 128,-1,32
 269 170 269 170 337 170 c 128,-1,33
 405 170 405 170 427 208 c 128,-1,34
 449 246 449 246 449 337 c 128,-1,35
 449 428 449 428 445 465 c 128,-1,36
 441 502 441 502 428.5 525.5 c 128,-1,37
 416 549 416 549 396 556 c 128,-1,38
 376 563 376 563 334.5 563 c 128,-1,39
 293 563 293 563 271.5 549.5 c 128,-1,29
 250 536 250 536 240.5 494 c 128,-1,30
EndSplineSet
Substitution2: "'c2sc' Capitals to Small Capitals in Latin lookup 2 subtable" oacute.smcp
EndChar

StartChar: Ocircumflex
Encoding: 212 212 149
Width: 667
GlyphClass: 2
Flags: W
LayerCount: 2
Fore
SplineSet
179 797 m 1,0,-1
 279 937 l 1,1,-1
 410 937 l 1,2,-1
 501 797 l 1,3,-1
 390 797 l 1,4,-1
 341 848 l 1,5,-1
 291 797 l 1,6,-1
 179 797 l 1,0,-1
46.5 218.5 m 128,-1,8
 37 279 37 279 37 356 c 128,-1,9
 37 433 37 433 45.5 489.5 c 128,-1,10
 54 546 54 546 67.5 585.5 c 128,-1,11
 81 625 81 625 103.5 653 c 128,-1,12
 126 681 126 681 149.5 697 c 128,-1,13
 173 713 173 713 206 722 c 0,14,15
 258 737 258 737 319.5 737 c 128,-1,16
 381 737 381 737 411.5 734 c 128,-1,17
 442 731 442 731 475.5 722 c 128,-1,18
 509 713 509 713 532.5 697 c 128,-1,19
 556 681 556 681 578 653 c 128,-1,20
 600 625 600 625 614 586 c 0,21,22
 643 499 643 499 643 382.5 c 128,-1,23
 643 266 643 266 628 199 c 128,-1,24
 613 132 613 132 589 93 c 128,-1,25
 565 54 565 54 524 32 c 128,-1,26
 483 10 483 10 441.5 3 c 128,-1,27
 400 -4 400 -4 344.5 -4 c 128,-1,28
 289 -4 289 -4 254.5 0 c 128,-1,29
 220 4 220 4 182 16.5 c 128,-1,30
 144 29 144 29 120 54 c 128,-1,31
 96 79 96 79 76 118.5 c 128,-1,7
 56 158 56 158 46.5 218.5 c 128,-1,8
240.5 494 m 128,-1,33
 231 452 231 452 231 347 c 128,-1,34
 231 242 231 242 250 206 c 128,-1,35
 269 170 269 170 337 170 c 128,-1,36
 405 170 405 170 427 208 c 128,-1,37
 449 246 449 246 449 337 c 128,-1,38
 449 428 449 428 445 465 c 128,-1,39
 441 502 441 502 428.5 525.5 c 128,-1,40
 416 549 416 549 396 556 c 128,-1,41
 376 563 376 563 334.5 563 c 128,-1,42
 293 563 293 563 271.5 549.5 c 128,-1,32
 250 536 250 536 240.5 494 c 128,-1,33
EndSplineSet
Substitution2: "'c2sc' Capitals to Small Capitals in Latin lookup 2 subtable" ocircumflex.smcp
EndChar

StartChar: Otilde
Encoding: 213 213 150
Width: 667
GlyphClass: 2
Flags: W
LayerCount: 2
Fore
SplineSet
289 938 m 0,0,1
 312 938 312 938 344 920.5 c 128,-1,2
 376 903 376 903 395 903 c 0,3,4
 398 903 398 903 402 903 c 0,5,6
 450 903 450 903 488 943 c 1,7,-1
 514 869 l 1,8,9
 466 797 466 797 402 797 c 0,10,11
 380 797 380 797 342.5 814.5 c 128,-1,12
 305 832 305 832 286 832 c 0,13,14
 238 832 238 832 193 797 c 1,15,-1
 166 864 l 1,16,17
 217 938 217 938 289 938 c 0,0,1
46.5 218.5 m 128,-1,19
 37 279 37 279 37 356 c 128,-1,20
 37 433 37 433 45.5 489.5 c 128,-1,21
 54 546 54 546 67.5 585.5 c 128,-1,22
 81 625 81 625 103.5 653 c 128,-1,23
 126 681 126 681 149.5 697 c 128,-1,24
 173 713 173 713 206 722 c 0,25,26
 258 737 258 737 319.5 737 c 128,-1,27
 381 737 381 737 411.5 734 c 128,-1,28
 442 731 442 731 475.5 722 c 128,-1,29
 509 713 509 713 532.5 697 c 128,-1,30
 556 681 556 681 578 653 c 128,-1,31
 600 625 600 625 614 586 c 0,32,33
 643 499 643 499 643 382.5 c 128,-1,34
 643 266 643 266 628 199 c 128,-1,35
 613 132 613 132 589 93 c 128,-1,36
 565 54 565 54 524 32 c 128,-1,37
 483 10 483 10 441.5 3 c 128,-1,38
 400 -4 400 -4 344.5 -4 c 128,-1,39
 289 -4 289 -4 254.5 0 c 128,-1,40
 220 4 220 4 182 16.5 c 128,-1,41
 144 29 144 29 120 54 c 128,-1,42
 96 79 96 79 76 118.5 c 128,-1,18
 56 158 56 158 46.5 218.5 c 128,-1,19
240.5 494 m 128,-1,44
 231 452 231 452 231 347 c 128,-1,45
 231 242 231 242 250 206 c 128,-1,46
 269 170 269 170 337 170 c 128,-1,47
 405 170 405 170 427 208 c 128,-1,48
 449 246 449 246 449 337 c 128,-1,49
 449 428 449 428 445 465 c 128,-1,50
 441 502 441 502 428.5 525.5 c 128,-1,51
 416 549 416 549 396 556 c 128,-1,52
 376 563 376 563 334.5 563 c 128,-1,53
 293 563 293 563 271.5 549.5 c 128,-1,43
 250 536 250 536 240.5 494 c 128,-1,44
EndSplineSet
Substitution2: "'c2sc' Capitals to Small Capitals in Latin lookup 2 subtable" otilde.smcp
EndChar

StartChar: Odieresis
Encoding: 214 214 151
Width: 667
GlyphClass: 2
Flags: W
LayerCount: 2
Fore
SplineSet
147 863 m 128,-1,1
 147 890 147 890 166.5 909 c 128,-1,2
 186 928 186 928 213 928 c 128,-1,3
 240 928 240 928 259 909 c 128,-1,4
 278 890 278 890 278 863 c 128,-1,5
 278 836 278 836 259 816.5 c 128,-1,6
 240 797 240 797 213 797 c 128,-1,7
 186 797 186 797 166.5 816.5 c 128,-1,0
 147 836 147 836 147 863 c 128,-1,1
402 863 m 128,-1,9
 402 890 402 890 421.5 909 c 128,-1,10
 441 928 441 928 468 928 c 128,-1,11
 495 928 495 928 514 909 c 128,-1,12
 533 890 533 890 533 863 c 128,-1,13
 533 836 533 836 514 816.5 c 128,-1,14
 495 797 495 797 468 797 c 128,-1,15
 441 797 441 797 421.5 816.5 c 128,-1,8
 402 836 402 836 402 863 c 128,-1,9
46.5 218.5 m 128,-1,17
 37 279 37 279 37 356 c 128,-1,18
 37 433 37 433 45.5 489.5 c 128,-1,19
 54 546 54 546 67.5 585.5 c 128,-1,20
 81 625 81 625 103.5 653 c 128,-1,21
 126 681 126 681 149.5 697 c 128,-1,22
 173 713 173 713 206 722 c 0,23,24
 258 737 258 737 319.5 737 c 128,-1,25
 381 737 381 737 411.5 734 c 128,-1,26
 442 731 442 731 475.5 722 c 128,-1,27
 509 713 509 713 532.5 697 c 128,-1,28
 556 681 556 681 578 653 c 128,-1,29
 600 625 600 625 614 586 c 0,30,31
 643 499 643 499 643 382.5 c 128,-1,32
 643 266 643 266 628 199 c 128,-1,33
 613 132 613 132 589 93 c 128,-1,34
 565 54 565 54 524 32 c 128,-1,35
 483 10 483 10 441.5 3 c 128,-1,36
 400 -4 400 -4 344.5 -4 c 128,-1,37
 289 -4 289 -4 254.5 0 c 128,-1,38
 220 4 220 4 182 16.5 c 128,-1,39
 144 29 144 29 120 54 c 128,-1,40
 96 79 96 79 76 118.5 c 128,-1,16
 56 158 56 158 46.5 218.5 c 128,-1,17
240.5 494 m 128,-1,42
 231 452 231 452 231 347 c 128,-1,43
 231 242 231 242 250 206 c 128,-1,44
 269 170 269 170 337 170 c 128,-1,45
 405 170 405 170 427 208 c 128,-1,46
 449 246 449 246 449 337 c 128,-1,47
 449 428 449 428 445 465 c 128,-1,48
 441 502 441 502 428.5 525.5 c 128,-1,49
 416 549 416 549 396 556 c 128,-1,50
 376 563 376 563 334.5 563 c 128,-1,51
 293 563 293 563 271.5 549.5 c 128,-1,41
 250 536 250 536 240.5 494 c 128,-1,42
EndSplineSet
Substitution2: "'c2sc' Capitals to Small Capitals in Latin lookup 2 subtable" odieresis.smcp
EndChar

StartChar: multiply
Encoding: 215 215 152
Width: 465
GlyphClass: 2
Flags: W
LayerCount: 2
Fore
SplineSet
32 263 m 1,0,-1
 124 355 l 1,1,-1
 32 448 l 1,2,-1
 140 557 l 1,3,-1
 233 464 l 1,4,-1
 326 558 l 1,5,-1
 435 449 l 1,6,-1
 342 355 l 1,7,-1
 435 263 l 1,8,-1
 326 154 l 1,9,-1
 233 246 l 1,10,-1
 141 154 l 1,11,-1
 32 263 l 1,0,-1
EndSplineSet
EndChar

StartChar: Oslash
Encoding: 216 216 153
Width: 682
GlyphClass: 2
Flags: W
LayerCount: 2
Fore
SplineSet
112 653 m 0,0,1
 135 681 135 681 158.5 697 c 128,-1,2
 182 713 182 713 216 722 c 0,3,4
 267 737 267 737 349 737 c 0,5,6
 474 737 474 737 534 701 c 1,7,-1
 556 732 l 1,8,-1
 642 732 l 1,9,-1
 586 654 l 1,10,11
 652 565 652 565 652 361 c 0,12,13
 652 181 652 181 598 93 c 0,14,15
 574 54 574 54 533 32 c 128,-1,16
 492 10 492 10 450.5 3 c 128,-1,17
 409 -4 409 -4 349 -4 c 0,18,19
 206 -4 206 -4 146 40 c 1,20,-1
 117 0 l 1,21,-1
 31 0 l 1,22,-1
 98 93 l 1,23,24
 46 178 46 178 46 374 c 128,-1,25
 46 570 46 570 112 653 c 0,0,1
249.5 494 m 128,-1,27
 240 452 240 452 240 382.5 c 128,-1,28
 240 313 240 313 241 293 c 1,29,-1
 422 545 l 1,30,31
 401 563 401 563 351.5 563 c 128,-1,32
 302 563 302 563 280.5 549.5 c 128,-1,26
 259 536 259 536 249.5 494 c 128,-1,27
262 202 m 1,33,34
 283 170 283 170 348.5 170 c 128,-1,35
 414 170 414 170 436 208 c 128,-1,36
 458 246 458 246 458 340 c 128,-1,37
 458 434 458 434 453 469 c 1,38,-1
 262 202 l 1,33,34
EndSplineSet
Substitution2: "'c2sc' Capitals to Small Capitals in Latin lookup 2 subtable" oslash.smcp
EndChar

StartChar: Ugrave
Encoding: 217 217 154
Width: 655
GlyphClass: 2
Flags: W
LayerCount: 2
Fore
SplineSet
166 940 m 1,0,-1
 311 940 l 1,1,-1
 388 797 l 1,2,-1
 279 797 l 1,3,-1
 166 940 l 1,0,-1
45 320 m 2,4,-1
 45 732 l 1,5,-1
 239 732 l 1,6,-1
 239 320 l 2,7,8
 239 218 239 218 261 194 c 0,9,10
 285 169 285 169 336 169 c 0,11,12
 383 169 383 169 406 196 c 1,13,14
 427 218 427 218 427 320 c 2,15,-1
 427 732 l 1,16,-1
 622 732 l 1,17,-1
 622 320 l 2,18,19
 622 164 622 164 574 92 c 0,20,21
 558 67 558 67 543 51.5 c 128,-1,22
 528 36 528 36 504.5 24.5 c 128,-1,23
 481 13 481 13 464.5 7.5 c 128,-1,24
 448 2 448 2 420 -1 c 0,25,26
 384 -5 384 -5 358.5 -5 c 128,-1,27
 333 -5 333 -5 303 -5 c 128,-1,28
 273 -5 273 -5 244.5 -3 c 128,-1,29
 216 -1 216 -1 171.5 15.5 c 128,-1,30
 127 32 127 32 104 64.5 c 128,-1,31
 81 97 81 97 63 161.5 c 128,-1,32
 45 226 45 226 45 320 c 2,4,-1
EndSplineSet
Substitution2: "'c2sc' Capitals to Small Capitals in Latin lookup 2 subtable" ugrave.smcp
EndChar

StartChar: Uacute
Encoding: 218 218 155
Width: 655
GlyphClass: 2
Flags: W
LayerCount: 2
Fore
SplineSet
279 797 m 1,0,-1
 356 940 l 1,1,-1
 501 940 l 1,2,-1
 388 797 l 1,3,-1
 279 797 l 1,0,-1
45 320 m 2,4,-1
 45 732 l 1,5,-1
 239 732 l 1,6,-1
 239 320 l 2,7,8
 239 218 239 218 261 194 c 0,9,10
 285 169 285 169 336 169 c 0,11,12
 383 169 383 169 406 196 c 1,13,14
 427 218 427 218 427 320 c 2,15,-1
 427 732 l 1,16,-1
 622 732 l 1,17,-1
 622 320 l 2,18,19
 622 164 622 164 574 92 c 0,20,21
 558 67 558 67 543 51.5 c 128,-1,22
 528 36 528 36 504.5 24.5 c 128,-1,23
 481 13 481 13 464.5 7.5 c 128,-1,24
 448 2 448 2 420 -1 c 0,25,26
 384 -5 384 -5 358.5 -5 c 128,-1,27
 333 -5 333 -5 303 -5 c 128,-1,28
 273 -5 273 -5 244.5 -3 c 128,-1,29
 216 -1 216 -1 171.5 15.5 c 128,-1,30
 127 32 127 32 104 64.5 c 128,-1,31
 81 97 81 97 63 161.5 c 128,-1,32
 45 226 45 226 45 320 c 2,4,-1
EndSplineSet
Substitution2: "'c2sc' Capitals to Small Capitals in Latin lookup 2 subtable" uacute.smcp
EndChar

StartChar: Ucircumflex
Encoding: 219 219 156
Width: 655
GlyphClass: 2
Flags: W
LayerCount: 2
Fore
SplineSet
172 797 m 1,0,-1
 272 937 l 1,1,-1
 404 937 l 1,2,-1
 494 797 l 1,3,-1
 384 797 l 1,4,-1
 334 848 l 1,5,-1
 284 797 l 1,6,-1
 172 797 l 1,0,-1
45 320 m 2,7,-1
 45 732 l 1,8,-1
 239 732 l 1,9,-1
 239 320 l 2,10,11
 239 218 239 218 261 194 c 0,12,13
 285 169 285 169 336 169 c 0,14,15
 383 169 383 169 406 196 c 1,16,17
 427 218 427 218 427 320 c 2,18,-1
 427 732 l 1,19,-1
 622 732 l 1,20,-1
 622 320 l 2,21,22
 622 164 622 164 574 92 c 0,23,24
 558 67 558 67 543 51.5 c 128,-1,25
 528 36 528 36 504.5 24.5 c 128,-1,26
 481 13 481 13 464.5 7.5 c 128,-1,27
 448 2 448 2 420 -1 c 0,28,29
 384 -5 384 -5 358.5 -5 c 128,-1,30
 333 -5 333 -5 303 -5 c 128,-1,31
 273 -5 273 -5 244.5 -3 c 128,-1,32
 216 -1 216 -1 171.5 15.5 c 128,-1,33
 127 32 127 32 104 64.5 c 128,-1,34
 81 97 81 97 63 161.5 c 128,-1,35
 45 226 45 226 45 320 c 2,7,-1
EndSplineSet
Substitution2: "'c2sc' Capitals to Small Capitals in Latin lookup 2 subtable" ucircumflex.smcp
EndChar

StartChar: Udieresis
Encoding: 220 220 157
Width: 655
GlyphClass: 2
Flags: W
LayerCount: 2
Fore
SplineSet
140 863 m 128,-1,1
 140 890 140 890 159.5 909 c 128,-1,2
 179 928 179 928 206.5 928 c 128,-1,3
 234 928 234 928 253 909 c 128,-1,4
 272 890 272 890 272 863 c 128,-1,5
 272 836 272 836 252.5 816.5 c 128,-1,6
 233 797 233 797 206.5 797 c 128,-1,7
 180 797 180 797 160 816.5 c 128,-1,0
 140 836 140 836 140 863 c 128,-1,1
396 863 m 128,-1,9
 396 890 396 890 415 909 c 128,-1,10
 434 928 434 928 461 928 c 128,-1,11
 488 928 488 928 507 909 c 128,-1,12
 526 890 526 890 526 863 c 128,-1,13
 526 836 526 836 507 816.5 c 128,-1,14
 488 797 488 797 461 797 c 128,-1,15
 434 797 434 797 415 816.5 c 128,-1,8
 396 836 396 836 396 863 c 128,-1,9
45 320 m 2,16,-1
 45 732 l 1,17,-1
 239 732 l 1,18,-1
 239 320 l 2,19,20
 239 218 239 218 261 194 c 0,21,22
 285 169 285 169 336 169 c 0,23,24
 383 169 383 169 406 196 c 1,25,26
 427 218 427 218 427 320 c 2,27,-1
 427 732 l 1,28,-1
 622 732 l 1,29,-1
 622 320 l 2,30,31
 622 164 622 164 574 92 c 0,32,33
 558 67 558 67 543 51.5 c 128,-1,34
 528 36 528 36 504.5 24.5 c 128,-1,35
 481 13 481 13 464.5 7.5 c 128,-1,36
 448 2 448 2 420 -1 c 0,37,38
 384 -5 384 -5 358.5 -5 c 128,-1,39
 333 -5 333 -5 303 -5 c 128,-1,40
 273 -5 273 -5 244.5 -3 c 128,-1,41
 216 -1 216 -1 171.5 15.5 c 128,-1,42
 127 32 127 32 104 64.5 c 128,-1,43
 81 97 81 97 63 161.5 c 128,-1,44
 45 226 45 226 45 320 c 2,16,-1
EndSplineSet
Substitution2: "'c2sc' Capitals to Small Capitals in Latin lookup 2 subtable" udieresis.smcp
EndChar

StartChar: Yacute
Encoding: 221 221 158
Width: 679
GlyphClass: 2
Flags: W
LayerCount: 2
Fore
SplineSet
290 797 m 1,0,-1
 368 940 l 1,1,-1
 512 940 l 1,2,-1
 400 797 l 1,3,-1
 290 797 l 1,0,-1
434 0 m 1,4,-1
 240 0 l 1,5,-1
 240 200 l 1,6,-1
 25 732 l 1,7,-1
 236 732 l 1,8,-1
 341 408 l 1,9,-1
 454 732 l 1,10,-1
 665 732 l 1,11,-1
 434 200 l 1,12,-1
 434 0 l 1,4,-1
EndSplineSet
Substitution2: "'c2sc' Capitals to Small Capitals in Latin lookup 2 subtable" yacute.smcp
EndChar

StartChar: Thorn
Encoding: 222 222 159
Width: 538
GlyphClass: 2
Flags: W
LayerCount: 2
Fore
SplineSet
34 0 m 1,0,-1
 34 729 l 1,1,-1
 228 729 l 1,2,-1
 228 588 l 1,3,-1
 335 588 l 2,4,5
 511 588 511 588 511 375 c 0,6,7
 511 215 511 215 428 172 c 0,8,9
 383 148 383 148 308 148 c 0,10,11
 289 148 289 148 273.5 150.5 c 128,-1,12
 258 153 258 153 228 168 c 1,13,-1
 228 0 l 1,14,-1
 34 0 l 1,0,-1
228 313 m 1,15,-1
 255 313 l 2,16,17
 295 313 295 313 305.5 322.5 c 128,-1,18
 316 332 316 332 316 364.5 c 128,-1,19
 316 397 316 397 308 408.5 c 128,-1,20
 300 420 300 420 289.5 422 c 128,-1,21
 279 424 279 424 255 424 c 2,22,-1
 228 424 l 1,23,-1
 228 313 l 1,15,-1
EndSplineSet
Substitution2: "'c2sc' Capitals to Small Capitals in Latin lookup 2 subtable" thorn.smcp
EndChar

StartChar: germandbls
Encoding: 223 223 160
Width: 574
GlyphClass: 2
Flags: W
LayerCount: 2
Fore
SplineSet
34 0 m 1,0,-1
 34 566 l 2,1,2
 34 659 34 659 98.5 721.5 c 128,-1,3
 163 784 163 784 287 784 c 0,4,5
 387 784 387 784 451.5 749 c 128,-1,6
 516 714 516 714 536 660 c 0,7,8
 550 624 550 624 550 594 c 0,9,10
 550 503 550 503 501 432 c 0,11,12
 492 418 492 418 476 402 c 128,-1,13
 460 386 460 386 452.5 374 c 128,-1,14
 445 362 445 362 445 348 c 128,-1,15
 445 334 445 334 463.5 317 c 128,-1,16
 482 300 482 300 504.5 284 c 128,-1,17
 527 268 527 268 545.5 237 c 128,-1,18
 564 206 564 206 564 169 c 2,19,-1
 564 152 l 2,20,21
 564 62 564 62 516 27 c 128,-1,22
 468 -8 468 -8 391.5 -8 c 128,-1,23
 315 -8 315 -8 258 11 c 1,24,-1
 258 142 l 1,25,26
 306 136 306 136 320 136 c 0,27,28
 370 136 370 136 370 184 c 2,29,-1
 370 190 l 2,30,31
 370 209 370 209 353 226.5 c 128,-1,32
 336 244 336 244 315.5 256 c 128,-1,33
 295 268 295 268 278 293 c 128,-1,34
 261 318 261 318 261 349.5 c 128,-1,35
 261 381 261 381 271 405.5 c 128,-1,36
 281 430 281 430 291 442 c 128,-1,37
 301 454 301 454 329 482 c 128,-1,38
 357 510 357 510 357 548 c 128,-1,39
 357 586 357 586 342.5 599.5 c 128,-1,40
 328 613 328 613 290.5 613 c 128,-1,41
 253 613 253 613 240.5 585 c 128,-1,42
 228 557 228 557 228 476 c 2,43,-1
 228 0 l 1,44,-1
 34 0 l 1,0,-1
EndSplineSet
Substitution2: "'smcp' Lowercase to Small Capitals lookup 1 subtable" germandbls.smcp
EndChar

StartChar: agrave
Encoding: 224 224 161
Width: 519
GlyphClass: 2
Flags: W
LayerCount: 2
Fore
SplineSet
100 744 m 1,0,-1
 246 744 l 1,1,-1
 322 601 l 1,2,-1
 214 601 l 1,3,-1
 100 744 l 1,0,-1
22 143 m 2,4,-1
 22 184 l 2,5,6
 22 251 22 251 61.5 295.5 c 128,-1,7
 101 340 101 340 196 340 c 0,8,9
 247 340 247 340 272.5 340 c 128,-1,10
 298 340 298 340 298 340 c 1,11,12
 299 346 299 346 298.5 354.5 c 128,-1,13
 298 363 298 363 295 373 c 128,-1,14
 292 383 292 383 288.5 388.5 c 128,-1,15
 285 394 285 394 275 396 c 0,16,17
 260 399 260 399 236 399 c 1,18,-1
 40 388 l 1,19,-1
 40 501 l 1,20,21
 90 525 90 525 139.5 533 c 128,-1,22
 189 541 189 541 268 541 c 0,23,24
 382 541 382 541 437 502 c 128,-1,25
 492 463 492 463 492 357 c 2,26,-1
 492 0 l 1,27,-1
 336 0 l 1,28,-1
 298 54 l 1,29,30
 288 31 288 31 262.5 12.5 c 128,-1,31
 237 -6 237 -6 195 -6 c 0,32,33
 146 -6 146 -6 110 10.5 c 128,-1,34
 74 27 74 27 56 50 c 0,35,36
 22 95 22 95 22 143 c 2,4,-1
248 138 m 2,37,-1
 258 138 l 2,38,39
 276 138 276 138 286 146 c 128,-1,40
 296 154 296 154 297 162 c 2,41,-1
 298 171 l 1,42,-1
 298 231 l 1,43,-1
 246 226 l 2,44,45
 231 225 231 225 224 215.5 c 128,-1,46
 217 206 217 206 216.5 200 c 128,-1,47
 216 194 216 194 216 181 c 2,48,-1
 216 175 l 2,49,50
 216 147 216 147 228 142 c 0,51,52
 231 141 231 141 232 140 c 0,53,54
 236 138 236 138 248 138 c 2,37,-1
EndSplineSet
AlternateSubs2: "'salt' Stylistic Alternatives in Latin lookup 16 subtable" agrave.salt
Substitution2: "'smcp' Lowercase to Small Capitals lookup 1 subtable" agrave.smcp
EndChar

StartChar: aacute
Encoding: 225 225 162
Width: 519
GlyphClass: 2
Flags: W
LayerCount: 2
Fore
SplineSet
214 601 m 1,0,-1
 290 744 l 1,1,-1
 436 744 l 1,2,-1
 322 601 l 1,3,-1
 214 601 l 1,0,-1
22 143 m 2,4,-1
 22 184 l 2,5,6
 22 251 22 251 61.5 295.5 c 128,-1,7
 101 340 101 340 196 340 c 0,8,9
 247 340 247 340 272.5 340 c 128,-1,10
 298 340 298 340 298 340 c 1,11,12
 299 346 299 346 298.5 354.5 c 128,-1,13
 298 363 298 363 295 373 c 128,-1,14
 292 383 292 383 288.5 388.5 c 128,-1,15
 285 394 285 394 275 396 c 0,16,17
 260 399 260 399 236 399 c 1,18,-1
 40 388 l 1,19,-1
 40 501 l 1,20,21
 90 525 90 525 139.5 533 c 128,-1,22
 189 541 189 541 268 541 c 0,23,24
 382 541 382 541 437 502 c 128,-1,25
 492 463 492 463 492 357 c 2,26,-1
 492 0 l 1,27,-1
 336 0 l 1,28,-1
 298 54 l 1,29,30
 288 31 288 31 262.5 12.5 c 128,-1,31
 237 -6 237 -6 195 -6 c 0,32,33
 146 -6 146 -6 110 10.5 c 128,-1,34
 74 27 74 27 56 50 c 0,35,36
 22 95 22 95 22 143 c 2,4,-1
248 138 m 2,37,-1
 258 138 l 2,38,39
 276 138 276 138 286 146 c 128,-1,40
 296 154 296 154 297 162 c 2,41,-1
 298 171 l 1,42,-1
 298 231 l 1,43,-1
 246 226 l 2,44,45
 231 225 231 225 224 215.5 c 128,-1,46
 217 206 217 206 216.5 200 c 128,-1,47
 216 194 216 194 216 181 c 2,48,-1
 216 175 l 2,49,50
 216 147 216 147 228 142 c 0,51,52
 231 141 231 141 232 140 c 0,53,54
 236 138 236 138 248 138 c 2,37,-1
EndSplineSet
AlternateSubs2: "'salt' Stylistic Alternatives in Latin lookup 16 subtable" aacute.salt
Substitution2: "'smcp' Lowercase to Small Capitals lookup 1 subtable" aacute.smcp
EndChar

StartChar: acircumflex
Encoding: 226 226 163
Width: 519
GlyphClass: 2
Flags: W
LayerCount: 2
Fore
SplineSet
107 601 m 1,0,-1
 207 741 l 1,1,-1
 338 741 l 1,2,-1
 429 601 l 1,3,-1
 318 601 l 1,4,-1
 269 652 l 1,5,-1
 219 601 l 1,6,-1
 107 601 l 1,0,-1
22 143 m 2,7,-1
 22 184 l 2,8,9
 22 251 22 251 61.5 295.5 c 128,-1,10
 101 340 101 340 196 340 c 0,11,12
 247 340 247 340 272.5 340 c 128,-1,13
 298 340 298 340 298 340 c 1,14,15
 299 346 299 346 298.5 354.5 c 128,-1,16
 298 363 298 363 295 373 c 128,-1,17
 292 383 292 383 288.5 388.5 c 128,-1,18
 285 394 285 394 275 396 c 0,19,20
 260 399 260 399 236 399 c 1,21,-1
 40 388 l 1,22,-1
 40 501 l 1,23,24
 90 525 90 525 139.5 533 c 128,-1,25
 189 541 189 541 268 541 c 0,26,27
 382 541 382 541 437 502 c 128,-1,28
 492 463 492 463 492 357 c 2,29,-1
 492 0 l 1,30,-1
 336 0 l 1,31,-1
 298 54 l 1,32,33
 288 31 288 31 262.5 12.5 c 128,-1,34
 237 -6 237 -6 195 -6 c 0,35,36
 146 -6 146 -6 110 10.5 c 128,-1,37
 74 27 74 27 56 50 c 0,38,39
 22 95 22 95 22 143 c 2,7,-1
248 138 m 2,40,-1
 258 138 l 2,41,42
 276 138 276 138 286 146 c 128,-1,43
 296 154 296 154 297 162 c 2,44,-1
 298 171 l 1,45,-1
 298 231 l 1,46,-1
 246 226 l 2,47,48
 231 225 231 225 224 215.5 c 128,-1,49
 217 206 217 206 216.5 200 c 128,-1,50
 216 194 216 194 216 181 c 2,51,-1
 216 175 l 2,52,53
 216 147 216 147 228 142 c 0,54,55
 231 141 231 141 232 140 c 0,56,57
 236 138 236 138 248 138 c 2,40,-1
EndSplineSet
AlternateSubs2: "'salt' Stylistic Alternatives in Latin lookup 16 subtable" acircumflex.salt
Substitution2: "'smcp' Lowercase to Small Capitals lookup 1 subtable" acircumflex.smcp
EndChar

StartChar: atilde
Encoding: 227 227 164
Width: 519
GlyphClass: 2
Flags: W
LayerCount: 2
Fore
SplineSet
217 742 m 0,0,1
 240 742 240 742 272 724.5 c 128,-1,2
 304 707 304 707 323 707 c 0,3,4
 326 707 326 707 330 707 c 0,5,6
 378 707 378 707 416 747 c 1,7,-1
 442 673 l 1,8,9
 394 601 394 601 330 601 c 0,10,11
 308 601 308 601 270.5 618.5 c 128,-1,12
 233 636 233 636 214 636 c 0,13,14
 166 636 166 636 121 601 c 1,15,-1
 94 668 l 1,16,17
 145 742 145 742 217 742 c 0,0,1
22 143 m 2,18,-1
 22 184 l 2,19,20
 22 251 22 251 61.5 295.5 c 128,-1,21
 101 340 101 340 196 340 c 0,22,23
 247 340 247 340 272.5 340 c 128,-1,24
 298 340 298 340 298 340 c 1,25,26
 299 346 299 346 298.5 354.5 c 128,-1,27
 298 363 298 363 295 373 c 128,-1,28
 292 383 292 383 288.5 388.5 c 128,-1,29
 285 394 285 394 275 396 c 0,30,31
 260 399 260 399 236 399 c 1,32,-1
 40 388 l 1,33,-1
 40 501 l 1,34,35
 90 525 90 525 139.5 533 c 128,-1,36
 189 541 189 541 268 541 c 0,37,38
 382 541 382 541 437 502 c 128,-1,39
 492 463 492 463 492 357 c 2,40,-1
 492 0 l 1,41,-1
 336 0 l 1,42,-1
 298 54 l 1,43,44
 288 31 288 31 262.5 12.5 c 128,-1,45
 237 -6 237 -6 195 -6 c 0,46,47
 146 -6 146 -6 110 10.5 c 128,-1,48
 74 27 74 27 56 50 c 0,49,50
 22 95 22 95 22 143 c 2,18,-1
248 138 m 2,51,-1
 258 138 l 2,52,53
 276 138 276 138 286 146 c 128,-1,54
 296 154 296 154 297 162 c 2,55,-1
 298 171 l 1,56,-1
 298 231 l 1,57,-1
 246 226 l 2,58,59
 231 225 231 225 224 215.5 c 128,-1,60
 217 206 217 206 216.5 200 c 128,-1,61
 216 194 216 194 216 181 c 2,62,-1
 216 175 l 2,63,64
 216 147 216 147 228 142 c 0,65,66
 231 141 231 141 232 140 c 0,67,68
 236 138 236 138 248 138 c 2,51,-1
EndSplineSet
AlternateSubs2: "'salt' Stylistic Alternatives in Latin lookup 16 subtable" atilde.salt
Substitution2: "'smcp' Lowercase to Small Capitals lookup 1 subtable" atilde.smcp
EndChar

StartChar: adieresis
Encoding: 228 228 165
Width: 519
GlyphClass: 2
Flags: W
LayerCount: 2
Fore
SplineSet
75 667 m 128,-1,1
 75 694 75 694 94.5 713 c 128,-1,2
 114 732 114 732 141 732 c 128,-1,3
 168 732 168 732 187 713 c 128,-1,4
 206 694 206 694 206 667 c 128,-1,5
 206 640 206 640 187 620.5 c 128,-1,6
 168 601 168 601 141 601 c 128,-1,7
 114 601 114 601 94.5 620.5 c 128,-1,0
 75 640 75 640 75 667 c 128,-1,1
330 667 m 128,-1,9
 330 694 330 694 349.5 713 c 128,-1,10
 369 732 369 732 396 732 c 128,-1,11
 423 732 423 732 442 713 c 128,-1,12
 461 694 461 694 461 667 c 128,-1,13
 461 640 461 640 442 620.5 c 128,-1,14
 423 601 423 601 396 601 c 128,-1,15
 369 601 369 601 349.5 620.5 c 128,-1,8
 330 640 330 640 330 667 c 128,-1,9
22 143 m 2,16,-1
 22 184 l 2,17,18
 22 251 22 251 61.5 295.5 c 128,-1,19
 101 340 101 340 196 340 c 0,20,21
 247 340 247 340 272.5 340 c 128,-1,22
 298 340 298 340 298 340 c 1,23,24
 299 346 299 346 298.5 354.5 c 128,-1,25
 298 363 298 363 295 373 c 128,-1,26
 292 383 292 383 288.5 388.5 c 128,-1,27
 285 394 285 394 275 396 c 0,28,29
 260 399 260 399 236 399 c 1,30,-1
 40 388 l 1,31,-1
 40 501 l 1,32,33
 90 525 90 525 139.5 533 c 128,-1,34
 189 541 189 541 268 541 c 0,35,36
 382 541 382 541 437 502 c 128,-1,37
 492 463 492 463 492 357 c 2,38,-1
 492 0 l 1,39,-1
 336 0 l 1,40,-1
 298 54 l 1,41,42
 288 31 288 31 262.5 12.5 c 128,-1,43
 237 -6 237 -6 195 -6 c 0,44,45
 146 -6 146 -6 110 10.5 c 128,-1,46
 74 27 74 27 56 50 c 0,47,48
 22 95 22 95 22 143 c 2,16,-1
248 138 m 2,49,-1
 258 138 l 2,50,51
 276 138 276 138 286 146 c 128,-1,52
 296 154 296 154 297 162 c 2,53,-1
 298 171 l 1,54,-1
 298 231 l 1,55,-1
 246 226 l 2,56,57
 231 225 231 225 224 215.5 c 128,-1,58
 217 206 217 206 216.5 200 c 128,-1,59
 216 194 216 194 216 181 c 2,60,-1
 216 175 l 2,61,62
 216 147 216 147 228 142 c 0,63,64
 231 141 231 141 232 140 c 0,65,66
 236 138 236 138 248 138 c 2,49,-1
EndSplineSet
AlternateSubs2: "'salt' Stylistic Alternatives in Latin lookup 16 subtable" adieresis.salt
Substitution2: "'smcp' Lowercase to Small Capitals lookup 1 subtable" adieresis.smcp
EndChar

StartChar: aring
Encoding: 229 229 166
Width: 519
GlyphClass: 2
Flags: W
LayerCount: 2
Fore
SplineSet
176.5 663 m 128,-1,1
 168 682 168 682 168 706.5 c 128,-1,2
 168 731 168 731 182 754.5 c 128,-1,3
 196 778 196 778 219.5 792 c 128,-1,4
 243 806 243 806 277.5 806 c 128,-1,5
 312 806 312 806 342 776 c 128,-1,6
 372 746 372 746 372 710.5 c 128,-1,7
 372 675 372 675 358.5 651.5 c 128,-1,8
 345 628 345 628 321.5 614.5 c 128,-1,9
 298 601 298 601 274 601 c 128,-1,10
 250 601 250 601 231 609 c 128,-1,11
 212 617 212 617 198.5 630.5 c 128,-1,0
 185 644 185 644 176.5 663 c 128,-1,1
246 727 m 128,-1,13
 236 717 236 717 236 705.5 c 128,-1,14
 236 694 236 694 241 686 c 0,15,16
 251 670 251 670 268 670 c 128,-1,17
 285 670 285 670 294.5 679.5 c 128,-1,18
 304 689 304 689 304 703 c 128,-1,19
 304 717 304 717 294.5 727 c 128,-1,20
 285 737 285 737 270.5 737 c 128,-1,12
 256 737 256 737 246 727 c 128,-1,13
22 143 m 2,21,-1
 22 184 l 2,22,23
 22 251 22 251 61.5 295.5 c 128,-1,24
 101 340 101 340 196 340 c 0,25,26
 247 340 247 340 272.5 340 c 128,-1,27
 298 340 298 340 298 340 c 1,28,29
 299 346 299 346 298.5 354.5 c 128,-1,30
 298 363 298 363 295 373 c 128,-1,31
 292 383 292 383 288.5 388.5 c 128,-1,32
 285 394 285 394 275 396 c 0,33,34
 260 399 260 399 236 399 c 1,35,-1
 40 388 l 1,36,-1
 40 501 l 1,37,38
 90 525 90 525 139.5 533 c 128,-1,39
 189 541 189 541 268 541 c 0,40,41
 382 541 382 541 437 502 c 128,-1,42
 492 463 492 463 492 357 c 2,43,-1
 492 0 l 1,44,-1
 336 0 l 1,45,-1
 298 54 l 1,46,47
 288 31 288 31 262.5 12.5 c 128,-1,48
 237 -6 237 -6 195 -6 c 0,49,50
 146 -6 146 -6 110 10.5 c 128,-1,51
 74 27 74 27 56 50 c 0,52,53
 22 95 22 95 22 143 c 2,21,-1
248 138 m 2,54,-1
 258 138 l 2,55,56
 276 138 276 138 286 146 c 128,-1,57
 296 154 296 154 297 162 c 2,58,-1
 298 171 l 1,59,-1
 298 231 l 1,60,-1
 246 226 l 2,61,62
 231 225 231 225 224 215.5 c 128,-1,63
 217 206 217 206 216.5 200 c 128,-1,64
 216 194 216 194 216 181 c 2,65,-1
 216 175 l 2,66,67
 216 147 216 147 228 142 c 0,68,69
 231 141 231 141 232 140 c 0,70,71
 236 138 236 138 248 138 c 2,54,-1
EndSplineSet
AlternateSubs2: "'salt' Stylistic Alternatives in Latin lookup 16 subtable" aring.salt
Substitution2: "'smcp' Lowercase to Small Capitals lookup 1 subtable" aring.smcp
EndChar

StartChar: ae
Encoding: 230 230 167
Width: 820
GlyphClass: 2
Flags: W
LayerCount: 2
Fore
SplineSet
788 23 m 1,0,1
 732 -5 732 -5 581 -5 c 0,2,3
 540 -5 540 -5 498 -5 c 0,4,5
 401 -5 401 -5 360 63 c 1,6,7
 347 34 347 34 294.5 14 c 128,-1,8
 242 -6 242 -6 195 -6 c 0,9,10
 146 -6 146 -6 110 10.5 c 128,-1,11
 74 27 74 27 56 50 c 0,12,13
 22 95 22 95 22 143 c 2,14,-1
 22 174 l 2,15,16
 22 241 22 241 61.5 285.5 c 128,-1,17
 101 330 101 330 196 330 c 0,18,19
 247 330 247 330 272.5 330 c 128,-1,20
 298 330 298 330 298 330 c 1,21,22
 299 346 299 346 298.5 354.5 c 128,-1,23
 298 363 298 363 295 373 c 128,-1,24
 292 383 292 383 288.5 388.5 c 128,-1,25
 285 394 285 394 275 396 c 0,26,27
 260 399 260 399 236 399 c 1,28,-1
 40 387 l 1,29,-1
 40 501 l 1,30,31
 90 525 90 525 139.5 533 c 128,-1,32
 189 541 189 541 268 541 c 1,33,34
 378 537 378 537 418 511 c 1,35,36
 471 535 471 535 554 535 c 0,37,38
 693 535 693 535 745.5 499 c 128,-1,39
 798 463 798 463 798 349 c 0,40,41
 798 272 798 272 758.5 244.5 c 128,-1,42
 719 217 719 217 640 217 c 2,43,-1
 517 217 l 1,44,45
 517 167 517 167 545.5 152.5 c 128,-1,46
 574 138 574 138 643.5 138 c 128,-1,47
 713 138 713 138 788 149 c 1,48,-1
 788 23 l 1,0,1
239 137 m 2,49,-1
 258 138 l 2,50,51
 276 138 276 138 286 146 c 128,-1,52
 296 154 296 154 297 162 c 2,53,-1
 298 171 l 1,54,-1
 298 221 l 1,55,-1
 246 216 l 2,56,57
 231 215 231 215 224 205.5 c 128,-1,58
 217 196 217 196 216.5 190 c 128,-1,59
 216 184 216 184 216 171 c 2,60,-1
 216 170 l 2,61,62
 216 146 216 146 224 142 c 0,63,64
 232 137 232 137 239 137 c 2,49,-1
574 330 m 2,65,66
 587 330 587 330 595.5 339 c 128,-1,67
 604 348 604 348 604 368.5 c 128,-1,68
 604 389 604 389 598.5 395 c 128,-1,69
 593 401 593 401 579 401 c 128,-1,70
 565 401 565 401 554.5 401 c 128,-1,71
 544 401 544 401 538 400 c 128,-1,72
 532 399 532 399 526 392 c 1,73,74
 517 384 517 384 517 362.5 c 128,-1,75
 517 341 517 341 517 330 c 1,76,-1
 574 330 l 2,65,66
EndSplineSet
Substitution2: "'smcp' Lowercase to Small Capitals lookup 1 subtable" ae.smcp
EndChar

StartChar: ccedilla
Encoding: 231 231 168
Width: 490
GlyphClass: 2
Flags: W
LayerCount: 2
Fore
SplineSet
303 -6 m 1,0,-1
 203 -5 l 1,1,2
 28 -5 28 -5 28 266 c 0,3,4
 28 413 28 413 74 474.5 c 128,-1,5
 120 536 120 536 203 536 c 0,6,7
 227 536 227 536 252 536 c 0,8,9
 368 536 368 536 461 500 c 1,10,-1
 461 386 l 1,11,12
 401 392 401 392 340.5 392 c 128,-1,13
 280 392 280 392 268 390.5 c 128,-1,14
 256 389 256 389 242.5 377 c 128,-1,15
 229 365 229 365 225.5 339 c 128,-1,16
 222 313 222 313 222 265 c 128,-1,17
 222 217 222 217 225 192.5 c 128,-1,18
 228 168 228 168 240.5 155.5 c 128,-1,19
 253 143 253 143 266.5 141 c 128,-1,20
 280 139 280 139 316 139 c 0,21,22
 394 139 394 139 450 145 c 2,23,-1
 468 147 l 1,24,-1
 468 33 l 1,25,26
 414 -6 414 -6 303 -6 c 1,0,-1
209 -38 m 1,27,-1
 326 -38 l 1,28,29
 326 -116 326 -116 299.5 -150 c 128,-1,30
 273 -184 273 -184 205 -184 c 2,31,-1
 144 -184 l 1,32,-1
 144 -105 l 1,33,-1
 181 -90 l 2,34,35
 202 -81 202 -81 205.5 -74 c 128,-1,36
 209 -67 209 -67 209 -38 c 1,27,-1
EndSplineSet
Substitution2: "'smcp' Lowercase to Small Capitals lookup 1 subtable" ccedilla.smcp
EndChar

StartChar: egrave
Encoding: 232 232 169
Width: 525
GlyphClass: 2
Flags: W
LayerCount: 2
Fore
SplineSet
100 739 m 1,0,-1
 244 739 l 1,1,-1
 322 596 l 1,2,-1
 212 596 l 1,3,-1
 100 739 l 1,0,-1
493 23 m 1,4,5
 437 -5 437 -5 286 -5 c 0,6,7
 244 -5 244 -5 203 -5 c 0,8,9
 105 -5 105 -5 66.5 60 c 128,-1,10
 28 125 28 125 28 252 c 128,-1,11
 28 379 28 379 51.5 436.5 c 128,-1,12
 75 494 75 494 122 514.5 c 128,-1,13
 169 535 169 535 251 535 c 128,-1,14
 333 535 333 535 374 529 c 128,-1,15
 415 523 415 523 447 502 c 128,-1,16
 479 481 479 481 491 442 c 128,-1,17
 503 403 503 403 503 331 c 128,-1,18
 503 259 503 259 463 227 c 128,-1,19
 423 195 423 195 346 195 c 2,20,-1
 222 195 l 1,21,22
 222 165 222 165 236 148 c 0,23,24
 245 137 245 137 278 137 c 2,25,-1
 343 138 l 1,26,27
 418 138 418 138 493 149 c 1,28,-1
 493 23 l 1,4,5
280 318 m 2,29,30
 293 318 293 318 301 327 c 128,-1,31
 309 336 309 336 309 358 c 128,-1,32
 309 380 309 380 303.5 390.5 c 128,-1,33
 298 401 298 401 269.5 401 c 128,-1,34
 241 401 241 401 231.5 387.5 c 128,-1,35
 222 374 222 374 222 328 c 0,36,37
 222 323 222 323 222 318 c 1,38,-1
 280 318 l 2,29,30
EndSplineSet
Substitution2: "'smcp' Lowercase to Small Capitals lookup 1 subtable" egrave.smcp
EndChar

StartChar: eacute
Encoding: 233 233 170
Width: 525
GlyphClass: 2
Flags: W
LayerCount: 2
Fore
SplineSet
212 596 m 1,0,-1
 290 739 l 1,1,-1
 434 739 l 1,2,-1
 322 596 l 1,3,-1
 212 596 l 1,0,-1
493 23 m 1,4,5
 437 -5 437 -5 286 -5 c 0,6,7
 244 -5 244 -5 203 -5 c 0,8,9
 105 -5 105 -5 66.5 60 c 128,-1,10
 28 125 28 125 28 252 c 128,-1,11
 28 379 28 379 51.5 436.5 c 128,-1,12
 75 494 75 494 122 514.5 c 128,-1,13
 169 535 169 535 251 535 c 128,-1,14
 333 535 333 535 374 529 c 128,-1,15
 415 523 415 523 447 502 c 128,-1,16
 479 481 479 481 491 442 c 128,-1,17
 503 403 503 403 503 331 c 128,-1,18
 503 259 503 259 463 227 c 128,-1,19
 423 195 423 195 346 195 c 2,20,-1
 222 195 l 1,21,22
 222 165 222 165 236 148 c 0,23,24
 245 137 245 137 278 137 c 2,25,-1
 343 138 l 1,26,27
 418 138 418 138 493 149 c 1,28,-1
 493 23 l 1,4,5
280 318 m 2,29,30
 293 318 293 318 301 327 c 128,-1,31
 309 336 309 336 309 358 c 128,-1,32
 309 380 309 380 303.5 390.5 c 128,-1,33
 298 401 298 401 269.5 401 c 128,-1,34
 241 401 241 401 231.5 387.5 c 128,-1,35
 222 374 222 374 222 328 c 0,36,37
 222 323 222 323 222 318 c 1,38,-1
 280 318 l 2,29,30
EndSplineSet
Substitution2: "'smcp' Lowercase to Small Capitals lookup 1 subtable" eacute.smcp
EndChar

StartChar: ecircumflex
Encoding: 234 234 171
Width: 525
GlyphClass: 2
Flags: W
LayerCount: 2
Fore
SplineSet
99 596 m 1,0,-1
 199 736 l 1,1,-1
 330 736 l 1,2,-1
 421 596 l 1,3,-1
 310 596 l 1,4,-1
 261 647 l 1,5,-1
 211 596 l 1,6,-1
 99 596 l 1,0,-1
493 23 m 1,7,8
 437 -5 437 -5 286 -5 c 0,9,10
 244 -5 244 -5 203 -5 c 0,11,12
 105 -5 105 -5 66.5 60 c 128,-1,13
 28 125 28 125 28 252 c 128,-1,14
 28 379 28 379 51.5 436.5 c 128,-1,15
 75 494 75 494 122 514.5 c 128,-1,16
 169 535 169 535 251 535 c 128,-1,17
 333 535 333 535 374 529 c 128,-1,18
 415 523 415 523 447 502 c 128,-1,19
 479 481 479 481 491 442 c 128,-1,20
 503 403 503 403 503 331 c 128,-1,21
 503 259 503 259 463 227 c 128,-1,22
 423 195 423 195 346 195 c 2,23,-1
 222 195 l 1,24,25
 222 165 222 165 236 148 c 0,26,27
 245 137 245 137 278 137 c 2,28,-1
 343 138 l 1,29,30
 418 138 418 138 493 149 c 1,31,-1
 493 23 l 1,7,8
280 318 m 2,32,33
 293 318 293 318 301 327 c 128,-1,34
 309 336 309 336 309 358 c 128,-1,35
 309 380 309 380 303.5 390.5 c 128,-1,36
 298 401 298 401 269.5 401 c 128,-1,37
 241 401 241 401 231.5 387.5 c 128,-1,38
 222 374 222 374 222 328 c 0,39,40
 222 323 222 323 222 318 c 1,41,-1
 280 318 l 2,32,33
EndSplineSet
Substitution2: "'smcp' Lowercase to Small Capitals lookup 1 subtable" ecircumflex.smcp
EndChar

StartChar: edieresis
Encoding: 235 235 172
Width: 525
GlyphClass: 2
Flags: W
LayerCount: 2
Fore
SplineSet
67 662 m 128,-1,1
 67 689 67 689 86.5 708 c 128,-1,2
 106 727 106 727 133 727 c 128,-1,3
 160 727 160 727 179 708 c 128,-1,4
 198 689 198 689 198 662 c 128,-1,5
 198 635 198 635 179 615.5 c 128,-1,6
 160 596 160 596 133 596 c 128,-1,7
 106 596 106 596 86.5 615.5 c 128,-1,0
 67 635 67 635 67 662 c 128,-1,1
322 662 m 128,-1,9
 322 689 322 689 341.5 708 c 128,-1,10
 361 727 361 727 388 727 c 128,-1,11
 415 727 415 727 434 708 c 128,-1,12
 453 689 453 689 453 662 c 128,-1,13
 453 635 453 635 434 615.5 c 128,-1,14
 415 596 415 596 388 596 c 128,-1,15
 361 596 361 596 341.5 615.5 c 128,-1,8
 322 635 322 635 322 662 c 128,-1,9
493 23 m 1,16,17
 437 -5 437 -5 286 -5 c 0,18,19
 244 -5 244 -5 203 -5 c 0,20,21
 105 -5 105 -5 66.5 60 c 128,-1,22
 28 125 28 125 28 252 c 128,-1,23
 28 379 28 379 51.5 436.5 c 128,-1,24
 75 494 75 494 122 514.5 c 128,-1,25
 169 535 169 535 251 535 c 128,-1,26
 333 535 333 535 374 529 c 128,-1,27
 415 523 415 523 447 502 c 128,-1,28
 479 481 479 481 491 442 c 128,-1,29
 503 403 503 403 503 331 c 128,-1,30
 503 259 503 259 463 227 c 128,-1,31
 423 195 423 195 346 195 c 2,32,-1
 222 195 l 1,33,34
 222 165 222 165 236 148 c 0,35,36
 245 137 245 137 278 137 c 2,37,-1
 343 138 l 1,38,39
 418 138 418 138 493 149 c 1,40,-1
 493 23 l 1,16,17
280 318 m 2,41,42
 293 318 293 318 301 327 c 128,-1,43
 309 336 309 336 309 358 c 128,-1,44
 309 380 309 380 303.5 390.5 c 128,-1,45
 298 401 298 401 269.5 401 c 128,-1,46
 241 401 241 401 231.5 387.5 c 128,-1,47
 222 374 222 374 222 328 c 0,48,49
 222 323 222 323 222 318 c 1,50,-1
 280 318 l 2,41,42
EndSplineSet
Substitution2: "'smcp' Lowercase to Small Capitals lookup 1 subtable" edieresis.smcp
EndChar

StartChar: igrave
Encoding: 236 236 173
Width: 261
GlyphClass: 2
Flags: W
LayerCount: 2
Fore
SplineSet
-36 739 m 1,0,-1
 108 739 l 1,1,-1
 186 596 l 1,2,-1
 76 596 l 1,3,-1
 -36 739 l 1,0,-1
34 0 m 1,4,-1
 34 531 l 1,5,-1
 228 531 l 1,6,-1
 228 0 l 1,7,-1
 34 0 l 1,4,-1
EndSplineSet
Substitution2: "'smcp' Lowercase to Small Capitals lookup 1 subtable" igrave.smcp
EndChar

StartChar: iacute
Encoding: 237 237 174
Width: 261
GlyphClass: 2
Flags: W
LayerCount: 2
Fore
SplineSet
76 596 m 1,0,-1
 154 739 l 1,1,-1
 298 739 l 1,2,-1
 186 596 l 1,3,-1
 76 596 l 1,0,-1
34 0 m 1,4,-1
 34 531 l 1,5,-1
 228 531 l 1,6,-1
 228 0 l 1,7,-1
 34 0 l 1,4,-1
EndSplineSet
Substitution2: "'smcp' Lowercase to Small Capitals lookup 1 subtable" iacute.smcp
EndChar

StartChar: icircumflex
Encoding: 238 238 175
Width: 261
GlyphClass: 2
Flags: W
LayerCount: 2
Fore
SplineSet
-30 596 m 1,0,-1
 70 736 l 1,1,-1
 201 736 l 1,2,-1
 292 596 l 1,3,-1
 181 596 l 1,4,-1
 132 647 l 1,5,-1
 82 596 l 1,6,-1
 -30 596 l 1,0,-1
34 0 m 1,7,-1
 34 531 l 1,8,-1
 228 531 l 1,9,-1
 228 0 l 1,10,-1
 34 0 l 1,7,-1
EndSplineSet
Substitution2: "'smcp' Lowercase to Small Capitals lookup 1 subtable" icircumflex.smcp
EndChar

StartChar: idieresis
Encoding: 239 239 176
Width: 261
GlyphClass: 2
Flags: W
LayerCount: 2
Fore
SplineSet
-62 662 m 128,-1,1
 -62 689 -62 689 -42.5 708 c 128,-1,2
 -23 727 -23 727 4 727 c 128,-1,3
 31 727 31 727 50 708 c 128,-1,4
 69 689 69 689 69 662 c 128,-1,5
 69 635 69 635 50 615.5 c 128,-1,6
 31 596 31 596 4 596 c 128,-1,7
 -23 596 -23 596 -42.5 615.5 c 128,-1,0
 -62 635 -62 635 -62 662 c 128,-1,1
193 662 m 128,-1,9
 193 689 193 689 212.5 708 c 128,-1,10
 232 727 232 727 259 727 c 128,-1,11
 286 727 286 727 305 708 c 128,-1,12
 324 689 324 689 324 662 c 128,-1,13
 324 635 324 635 305 615.5 c 128,-1,14
 286 596 286 596 259 596 c 128,-1,15
 232 596 232 596 212.5 615.5 c 128,-1,8
 193 635 193 635 193 662 c 128,-1,9
34 0 m 1,16,-1
 34 531 l 1,17,-1
 228 531 l 1,18,-1
 228 0 l 1,19,-1
 34 0 l 1,16,-1
EndSplineSet
Substitution2: "'smcp' Lowercase to Small Capitals lookup 1 subtable" idieresis.smcp
EndChar

StartChar: eth
Encoding: 240 240 177
Width: 543
GlyphClass: 2
Flags: W
LayerCount: 2
Fore
SplineSet
22 264 m 0,0,1
 22 531 22 531 216 531 c 2,2,-1
 236 531 l 2,3,4
 296 531 296 531 316 526 c 1,5,6
 304 569 304 569 272 594 c 1,7,-1
 184 544 l 1,8,-1
 152 600 l 1,9,-1
 194 624 l 1,10,11
 166 628 166 628 129.5 628 c 128,-1,12
 93 628 93 628 72 628 c 1,13,-1
 72 783 l 1,14,15
 264 783 264 783 366 722 c 1,16,-1
 438 762 l 1,17,-1
 470 706 l 1,18,-1
 422 679 l 1,19,20
 479 619 479 619 499.5 521 c 128,-1,21
 520 423 520 423 520 273.5 c 128,-1,22
 520 124 520 124 467 62 c 128,-1,23
 414 0 414 0 326 0 c 2,24,-1
 216 0 l 2,25,26
 114 0 114 0 68 64 c 128,-1,27
 22 128 22 128 22 264 c 0,0,1
216 264 m 128,-1,29
 216 206 216 206 222 191 c 128,-1,30
 228 176 228 176 258 176 c 2,31,-1
 286 176 l 2,32,33
 315 176 315 176 320.5 189 c 128,-1,34
 326 202 326 202 326 266.5 c 128,-1,35
 326 331 326 331 320.5 344 c 128,-1,36
 315 357 315 357 286 357 c 2,37,-1
 258 357 l 2,38,39
 232 357 232 357 224 339.5 c 128,-1,28
 216 322 216 322 216 264 c 128,-1,29
EndSplineSet
Substitution2: "'smcp' Lowercase to Small Capitals lookup 1 subtable" eth.smcp
EndChar

StartChar: ntilde
Encoding: 241 241 178
Width: 555
GlyphClass: 2
Flags: W
LayerCount: 2
Fore
SplineSet
230 741 m 0,0,1
 252 741 252 741 284 723.5 c 128,-1,2
 316 706 316 706 336 706 c 0,3,4
 339 706 339 706 343 706 c 0,5,6
 391 706 391 706 429 746 c 1,7,-1
 455 672 l 1,8,9
 407 600 407 600 343 600 c 0,10,11
 321 600 321 600 283.5 617.5 c 128,-1,12
 246 635 246 635 227 635 c 0,13,14
 179 635 179 635 134 600 c 1,15,-1
 107 667 l 1,16,17
 158 741 158 741 230 741 c 0,0,1
34 0 m 1,18,-1
 34 531 l 1,19,-1
 196 531 l 1,20,-1
 228 479 l 1,21,22
 250 500 250 500 263.5 510 c 128,-1,23
 277 520 277 520 306.5 530 c 128,-1,24
 336 540 336 540 380 540 c 128,-1,25
 424 540 424 540 456 525.5 c 128,-1,26
 488 511 488 511 503 481 c 128,-1,27
 518 451 518 451 523 419.5 c 128,-1,28
 528 388 528 388 528 340 c 2,29,-1
 528 0 l 1,30,-1
 334 0 l 1,31,-1
 334 344 l 2,32,33
 334 374 334 374 326 385 c 128,-1,34
 318 396 318 396 301 396 c 0,35,36
 244 396 244 396 228 359 c 1,37,-1
 228 0 l 1,38,-1
 34 0 l 1,18,-1
EndSplineSet
AlternateSubs2: "'salt' Stylistic Alternatives in Latin lookup 16 subtable" ntilde.salt
Substitution2: "'smcp' Lowercase to Small Capitals lookup 1 subtable" ntilde.smcp
EndChar

StartChar: ograve
Encoding: 242 242 179
Width: 554
GlyphClass: 2
Flags: W
LayerCount: 2
Fore
SplineSet
110 739 m 1,0,-1
 254 739 l 1,1,-1
 332 596 l 1,2,-1
 222 596 l 1,3,-1
 110 739 l 1,0,-1
83 54.5 m 128,-1,5
 28 114 28 114 28 266 c 128,-1,6
 28 418 28 418 82.5 477 c 128,-1,7
 137 536 137 536 277 536 c 128,-1,8
 417 536 417 536 471.5 476 c 128,-1,9
 526 416 526 416 526 262.5 c 128,-1,10
 526 109 526 109 472.5 52 c 128,-1,11
 419 -5 419 -5 278.5 -5 c 128,-1,4
 138 -5 138 -5 83 54.5 c 128,-1,5
228.5 372 m 128,-1,13
 222 352 222 352 222 265 c 128,-1,14
 222 178 222 178 230.5 158.5 c 128,-1,15
 239 139 239 139 278 139 c 128,-1,16
 317 139 317 139 324.5 156 c 128,-1,17
 332 173 332 173 332 261.5 c 128,-1,18
 332 350 332 350 324.5 371 c 128,-1,19
 317 392 317 392 276 392 c 128,-1,12
 235 392 235 392 228.5 372 c 128,-1,13
EndSplineSet
Substitution2: "'smcp' Lowercase to Small Capitals lookup 1 subtable" ograve.smcp
EndChar

StartChar: oacute
Encoding: 243 243 180
Width: 554
GlyphClass: 2
Flags: W
LayerCount: 2
Fore
SplineSet
222 596 m 1,0,-1
 300 739 l 1,1,-1
 444 739 l 1,2,-1
 332 596 l 1,3,-1
 222 596 l 1,0,-1
83 54.5 m 128,-1,5
 28 114 28 114 28 266 c 128,-1,6
 28 418 28 418 82.5 477 c 128,-1,7
 137 536 137 536 277 536 c 128,-1,8
 417 536 417 536 471.5 476 c 128,-1,9
 526 416 526 416 526 262.5 c 128,-1,10
 526 109 526 109 472.5 52 c 128,-1,11
 419 -5 419 -5 278.5 -5 c 128,-1,4
 138 -5 138 -5 83 54.5 c 128,-1,5
228.5 372 m 128,-1,13
 222 352 222 352 222 265 c 128,-1,14
 222 178 222 178 230.5 158.5 c 128,-1,15
 239 139 239 139 278 139 c 128,-1,16
 317 139 317 139 324.5 156 c 128,-1,17
 332 173 332 173 332 261.5 c 128,-1,18
 332 350 332 350 324.5 371 c 128,-1,19
 317 392 317 392 276 392 c 128,-1,12
 235 392 235 392 228.5 372 c 128,-1,13
EndSplineSet
Substitution2: "'smcp' Lowercase to Small Capitals lookup 1 subtable" oacute.smcp
EndChar

StartChar: ocircumflex
Encoding: 244 244 181
Width: 554
GlyphClass: 2
Flags: W
LayerCount: 2
Fore
SplineSet
116 596 m 1,0,-1
 216 736 l 1,1,-1
 347 736 l 1,2,-1
 438 596 l 1,3,-1
 327 596 l 1,4,-1
 278 647 l 1,5,-1
 228 596 l 1,6,-1
 116 596 l 1,0,-1
83 54.5 m 128,-1,8
 28 114 28 114 28 266 c 128,-1,9
 28 418 28 418 82.5 477 c 128,-1,10
 137 536 137 536 277 536 c 128,-1,11
 417 536 417 536 471.5 476 c 128,-1,12
 526 416 526 416 526 262.5 c 128,-1,13
 526 109 526 109 472.5 52 c 128,-1,14
 419 -5 419 -5 278.5 -5 c 128,-1,7
 138 -5 138 -5 83 54.5 c 128,-1,8
228.5 372 m 128,-1,16
 222 352 222 352 222 265 c 128,-1,17
 222 178 222 178 230.5 158.5 c 128,-1,18
 239 139 239 139 278 139 c 128,-1,19
 317 139 317 139 324.5 156 c 128,-1,20
 332 173 332 173 332 261.5 c 128,-1,21
 332 350 332 350 324.5 371 c 128,-1,22
 317 392 317 392 276 392 c 128,-1,15
 235 392 235 392 228.5 372 c 128,-1,16
EndSplineSet
Substitution2: "'smcp' Lowercase to Small Capitals lookup 1 subtable" ocircumflex.smcp
EndChar

StartChar: otilde
Encoding: 245 245 182
Width: 554
GlyphClass: 2
Flags: W
LayerCount: 2
Fore
SplineSet
226 737 m 0,0,1
 248 737 248 737 280 719.5 c 128,-1,2
 312 702 312 702 332 702 c 0,3,4
 335 702 335 702 339 702 c 0,5,6
 387 702 387 702 425 742 c 1,7,-1
 451 668 l 1,8,9
 403 596 403 596 339 596 c 0,10,11
 317 596 317 596 279.5 613.5 c 128,-1,12
 242 631 242 631 223 631 c 0,13,14
 175 631 175 631 130 596 c 1,15,-1
 103 663 l 1,16,17
 154 737 154 737 226 737 c 0,0,1
83 54.5 m 128,-1,19
 28 114 28 114 28 266 c 128,-1,20
 28 418 28 418 82.5 477 c 128,-1,21
 137 536 137 536 277 536 c 128,-1,22
 417 536 417 536 471.5 476 c 128,-1,23
 526 416 526 416 526 262.5 c 128,-1,24
 526 109 526 109 472.5 52 c 128,-1,25
 419 -5 419 -5 278.5 -5 c 128,-1,18
 138 -5 138 -5 83 54.5 c 128,-1,19
228.5 372 m 128,-1,27
 222 352 222 352 222 265 c 128,-1,28
 222 178 222 178 230.5 158.5 c 128,-1,29
 239 139 239 139 278 139 c 128,-1,30
 317 139 317 139 324.5 156 c 128,-1,31
 332 173 332 173 332 261.5 c 128,-1,32
 332 350 332 350 324.5 371 c 128,-1,33
 317 392 317 392 276 392 c 128,-1,26
 235 392 235 392 228.5 372 c 128,-1,27
EndSplineSet
Substitution2: "'smcp' Lowercase to Small Capitals lookup 1 subtable" otilde.smcp
EndChar

StartChar: odieresis
Encoding: 246 246 183
Width: 554
GlyphClass: 2
Flags: W
LayerCount: 2
Fore
SplineSet
84 662 m 128,-1,1
 84 689 84 689 103.5 708 c 128,-1,2
 123 727 123 727 150 727 c 128,-1,3
 177 727 177 727 196 708 c 128,-1,4
 215 689 215 689 215 662 c 128,-1,5
 215 635 215 635 196 615.5 c 128,-1,6
 177 596 177 596 150 596 c 128,-1,7
 123 596 123 596 103.5 615.5 c 128,-1,0
 84 635 84 635 84 662 c 128,-1,1
339 662 m 128,-1,9
 339 689 339 689 358.5 708 c 128,-1,10
 378 727 378 727 405 727 c 128,-1,11
 432 727 432 727 451 708 c 128,-1,12
 470 689 470 689 470 662 c 128,-1,13
 470 635 470 635 451 615.5 c 128,-1,14
 432 596 432 596 405 596 c 128,-1,15
 378 596 378 596 358.5 615.5 c 128,-1,8
 339 635 339 635 339 662 c 128,-1,9
83 54.5 m 128,-1,17
 28 114 28 114 28 266 c 128,-1,18
 28 418 28 418 82.5 477 c 128,-1,19
 137 536 137 536 277 536 c 128,-1,20
 417 536 417 536 471.5 476 c 128,-1,21
 526 416 526 416 526 262.5 c 128,-1,22
 526 109 526 109 472.5 52 c 128,-1,23
 419 -5 419 -5 278.5 -5 c 128,-1,16
 138 -5 138 -5 83 54.5 c 128,-1,17
228.5 372 m 128,-1,25
 222 352 222 352 222 265 c 128,-1,26
 222 178 222 178 230.5 158.5 c 128,-1,27
 239 139 239 139 278 139 c 128,-1,28
 317 139 317 139 324.5 156 c 128,-1,29
 332 173 332 173 332 261.5 c 128,-1,30
 332 350 332 350 324.5 371 c 128,-1,31
 317 392 317 392 276 392 c 128,-1,24
 235 392 235 392 228.5 372 c 128,-1,25
EndSplineSet
Substitution2: "'smcp' Lowercase to Small Capitals lookup 1 subtable" odieresis.smcp
EndChar

StartChar: divide
Encoding: 247 247 184
Width: 483
GlyphClass: 2
Flags: W
LayerCount: 2
Fore
SplineSet
28 276 m 1,0,-1
 28 430 l 1,1,-1
 455 430 l 1,2,-1
 455 276 l 1,3,-1
 28 276 l 1,0,-1
165 140 m 2,4,-1
 165 217 l 2,5,6
 165 242 165 242 189 242 c 2,7,-1
 282 242 l 2,8,9
 307 242 307 242 307 217 c 2,10,-1
 307 140 l 2,11,12
 307 117 307 117 282 117 c 2,13,-1
 189 117 l 2,14,15
 165 117 165 117 165 140 c 2,4,-1
165 483 m 2,16,-1
 165 560 l 2,17,18
 165 585 165 585 189 585 c 2,19,-1
 282 585 l 2,20,21
 307 585 307 585 307 560 c 2,22,-1
 307 483 l 2,23,24
 307 460 307 460 282 460 c 2,25,-1
 189 460 l 2,26,27
 165 460 165 460 165 483 c 2,16,-1
EndSplineSet
EndChar

StartChar: oslash
Encoding: 248 248 185
Width: 592
GlyphClass: 2
Flags: W
LayerCount: 2
Fore
SplineSet
48 258 m 0,0,1
 48 418 48 418 102.5 477 c 128,-1,2
 157 536 157 536 297 536 c 0,3,4
 402 536 402 536 456 505 c 1,5,-1
 478 531 l 1,6,-1
 564 531 l 1,7,-1
 504 460 l 1,8,9
 546 398 546 398 546 253.5 c 128,-1,10
 546 109 546 109 492.5 52 c 128,-1,11
 439 -5 439 -5 297 -5 c 0,12,13
 192 -5 192 -5 137 27 c 1,14,-1
 114 0 l 1,15,-1
 28 0 l 1,16,-1
 89 72 l 1,17,18
 48 131 48 131 48 258 c 0,0,1
242 258 m 2,19,-1
 242 252 l 1,20,-1
 344 372 l 1,21,22
 335 392 335 392 295 392 c 128,-1,23
 255 392 255 392 248.5 372 c 128,-1,24
 242 352 242 352 242 258 c 2,19,-1
250 160 m 1,25,26
 258 139 258 139 297.5 139 c 128,-1,27
 337 139 337 139 344.5 156 c 128,-1,28
 352 173 352 173 352 258 c 2,29,-1
 352 281 l 1,30,-1
 250 160 l 1,25,26
EndSplineSet
Substitution2: "'smcp' Lowercase to Small Capitals lookup 1 subtable" oslash.smcp
EndChar

StartChar: ugrave
Encoding: 249 249 186
Width: 555
GlyphClass: 2
Flags: W
LayerCount: 2
Fore
SplineSet
108 739 m 1,0,-1
 252 739 l 1,1,-1
 330 596 l 1,2,-1
 220 596 l 1,3,-1
 108 739 l 1,0,-1
28 191 m 2,4,-1
 28 531 l 1,5,-1
 222 531 l 1,6,-1
 222 187 l 2,7,8
 222 157 222 157 230 146 c 128,-1,9
 238 135 238 135 255 135 c 0,10,11
 312 135 312 135 328 172 c 1,12,-1
 328 531 l 1,13,-1
 522 531 l 1,14,-1
 522 0 l 1,15,-1
 360 0 l 1,16,-1
 328 52 l 1,17,18
 318 46 318 46 298 31 c 128,-1,19
 278 16 278 16 267 10 c 0,20,21
 236 -9 236 -9 184 -9 c 128,-1,22
 132 -9 132 -9 100 5.5 c 128,-1,23
 68 20 68 20 53 50 c 128,-1,24
 38 80 38 80 33 111.5 c 128,-1,25
 28 143 28 143 28 191 c 2,4,-1
EndSplineSet
AlternateSubs2: "'salt' Stylistic Alternatives in Latin lookup 16 subtable" ugrave.salt
Substitution2: "'smcp' Lowercase to Small Capitals lookup 1 subtable" ugrave.smcp
EndChar

StartChar: uacute
Encoding: 250 250 187
Width: 555
GlyphClass: 2
Flags: W
LayerCount: 2
Fore
SplineSet
220 596 m 1,0,-1
 298 739 l 1,1,-1
 442 739 l 1,2,-1
 330 596 l 1,3,-1
 220 596 l 1,0,-1
28 191 m 2,4,-1
 28 531 l 1,5,-1
 222 531 l 1,6,-1
 222 187 l 2,7,8
 222 157 222 157 230 146 c 128,-1,9
 238 135 238 135 255 135 c 0,10,11
 312 135 312 135 328 172 c 1,12,-1
 328 531 l 1,13,-1
 522 531 l 1,14,-1
 522 0 l 1,15,-1
 360 0 l 1,16,-1
 328 52 l 1,17,18
 318 46 318 46 298 31 c 128,-1,19
 278 16 278 16 267 10 c 0,20,21
 236 -9 236 -9 184 -9 c 128,-1,22
 132 -9 132 -9 100 5.5 c 128,-1,23
 68 20 68 20 53 50 c 128,-1,24
 38 80 38 80 33 111.5 c 128,-1,25
 28 143 28 143 28 191 c 2,4,-1
EndSplineSet
AlternateSubs2: "'salt' Stylistic Alternatives in Latin lookup 16 subtable" uacute.salt
Substitution2: "'smcp' Lowercase to Small Capitals lookup 1 subtable" uacute.smcp
EndChar

StartChar: ucircumflex
Encoding: 251 251 188
Width: 555
GlyphClass: 2
Flags: W
LayerCount: 2
Fore
SplineSet
114 596 m 1,0,-1
 214 736 l 1,1,-1
 345 736 l 1,2,-1
 436 596 l 1,3,-1
 325 596 l 1,4,-1
 276 647 l 1,5,-1
 226 596 l 1,6,-1
 114 596 l 1,0,-1
28 191 m 2,7,-1
 28 531 l 1,8,-1
 222 531 l 1,9,-1
 222 187 l 2,10,11
 222 157 222 157 230 146 c 128,-1,12
 238 135 238 135 255 135 c 0,13,14
 312 135 312 135 328 172 c 1,15,-1
 328 531 l 1,16,-1
 522 531 l 1,17,-1
 522 0 l 1,18,-1
 360 0 l 1,19,-1
 328 52 l 1,20,21
 318 46 318 46 298 31 c 128,-1,22
 278 16 278 16 267 10 c 0,23,24
 236 -9 236 -9 184 -9 c 128,-1,25
 132 -9 132 -9 100 5.5 c 128,-1,26
 68 20 68 20 53 50 c 128,-1,27
 38 80 38 80 33 111.5 c 128,-1,28
 28 143 28 143 28 191 c 2,7,-1
EndSplineSet
AlternateSubs2: "'salt' Stylistic Alternatives in Latin lookup 16 subtable" ucircumflex.salt
Substitution2: "'smcp' Lowercase to Small Capitals lookup 1 subtable" ucircumflex.smcp
EndChar

StartChar: udieresis
Encoding: 252 252 189
Width: 555
GlyphClass: 2
Flags: W
LayerCount: 2
Fore
SplineSet
82 662 m 128,-1,1
 82 689 82 689 101.5 708 c 128,-1,2
 121 727 121 727 148 727 c 128,-1,3
 175 727 175 727 194 708 c 128,-1,4
 213 689 213 689 213 662 c 128,-1,5
 213 635 213 635 194 615.5 c 128,-1,6
 175 596 175 596 148 596 c 128,-1,7
 121 596 121 596 101.5 615.5 c 128,-1,0
 82 635 82 635 82 662 c 128,-1,1
337 662 m 128,-1,9
 337 689 337 689 356.5 708 c 128,-1,10
 376 727 376 727 403 727 c 128,-1,11
 430 727 430 727 449 708 c 128,-1,12
 468 689 468 689 468 662 c 128,-1,13
 468 635 468 635 449 615.5 c 128,-1,14
 430 596 430 596 403 596 c 128,-1,15
 376 596 376 596 356.5 615.5 c 128,-1,8
 337 635 337 635 337 662 c 128,-1,9
28 191 m 2,16,-1
 28 531 l 1,17,-1
 222 531 l 1,18,-1
 222 187 l 2,19,20
 222 157 222 157 230 146 c 128,-1,21
 238 135 238 135 255 135 c 0,22,23
 312 135 312 135 328 172 c 1,24,-1
 328 531 l 1,25,-1
 522 531 l 1,26,-1
 522 0 l 1,27,-1
 360 0 l 1,28,-1
 328 52 l 1,29,30
 318 46 318 46 298 31 c 128,-1,31
 278 16 278 16 267 10 c 0,32,33
 236 -9 236 -9 184 -9 c 128,-1,34
 132 -9 132 -9 100 5.5 c 128,-1,35
 68 20 68 20 53 50 c 128,-1,36
 38 80 38 80 33 111.5 c 128,-1,37
 28 143 28 143 28 191 c 2,16,-1
EndSplineSet
AlternateSubs2: "'salt' Stylistic Alternatives in Latin lookup 16 subtable" udieresis.salt
Substitution2: "'smcp' Lowercase to Small Capitals lookup 1 subtable" udieresis.smcp
EndChar

StartChar: yacute
Encoding: 253 253 190
Width: 599
GlyphClass: 2
Flags: W
LayerCount: 2
Fore
SplineSet
243 596 m 1,0,-1
 320 739 l 1,1,-1
 465 739 l 1,2,-1
 352 596 l 1,3,-1
 243 596 l 1,0,-1
12 531 m 1,4,-1
 213 531 l 1,5,-1
 274 195 l 2,6,7
 281 158 281 158 317 156 c 1,8,-1
 386 531 l 1,9,-1
 583 531 l 1,10,-1
 440 -168 l 1,11,-1
 369 -270 l 1,12,-1
 225 -270 l 1,13,-1
 284 0 l 1,14,15
 130 0 130 0 95 156 c 2,16,-1
 12 531 l 1,4,-1
EndSplineSet
Substitution2: "'smcp' Lowercase to Small Capitals lookup 1 subtable" yacute.smcp
EndChar

StartChar: thorn
Encoding: 254 254 191
Width: 558
GlyphClass: 2
Flags: W
LayerCount: 2
Fore
SplineSet
39 -270 m 1,0,-1
 39 782 l 1,1,-1
 233 782 l 1,2,-1
 233 475 l 1,3,4
 267 503 267 503 295 516.5 c 128,-1,5
 323 530 323 530 364 530 c 0,6,7
 454 530 454 530 495 466.5 c 128,-1,8
 536 403 536 403 536 261 c 0,9,10
 536 154 536 154 521 105 c 128,-1,11
 506 56 506 56 487 34 c 0,12,13
 446 -15 446 -15 365.5 -15 c 128,-1,14
 285 -15 285 -15 233 19 c 1,15,-1
 233 -270 l 1,16,-1
 39 -270 l 1,0,-1
298 124 m 0,17,18
 322 124 322 124 332 148 c 128,-1,19
 342 172 342 172 342 249.5 c 128,-1,20
 342 327 342 327 332 350 c 128,-1,21
 322 373 322 373 298 373 c 0,22,23
 246 373 246 373 233 351 c 1,24,-1
 233 139 l 1,25,26
 247 124 247 124 298 124 c 0,17,18
EndSplineSet
Substitution2: "'smcp' Lowercase to Small Capitals lookup 1 subtable" thorn.smcp
EndChar

StartChar: ydieresis
Encoding: 255 255 192
Width: 599
GlyphClass: 2
Flags: W
LayerCount: 2
Fore
SplineSet
104 662 m 128,-1,1
 104 689 104 689 123.5 708 c 128,-1,2
 143 727 143 727 170.5 727 c 128,-1,3
 198 727 198 727 217 708 c 128,-1,4
 236 689 236 689 236 662 c 128,-1,5
 236 635 236 635 216.5 615.5 c 128,-1,6
 197 596 197 596 170.5 596 c 128,-1,7
 144 596 144 596 124 615.5 c 128,-1,0
 104 635 104 635 104 662 c 128,-1,1
360 662 m 128,-1,9
 360 689 360 689 379 708 c 128,-1,10
 398 727 398 727 425 727 c 128,-1,11
 452 727 452 727 471 708 c 128,-1,12
 490 689 490 689 490 662 c 128,-1,13
 490 635 490 635 471 615.5 c 128,-1,14
 452 596 452 596 425 596 c 128,-1,15
 398 596 398 596 379 615.5 c 128,-1,8
 360 635 360 635 360 662 c 128,-1,9
12 531 m 1,16,-1
 213 531 l 1,17,-1
 274 195 l 2,18,19
 281 158 281 158 317 156 c 1,20,-1
 386 531 l 1,21,-1
 583 531 l 1,22,-1
 440 -168 l 1,23,-1
 369 -270 l 1,24,-1
 225 -270 l 1,25,-1
 284 0 l 1,26,27
 130 0 130 0 95 156 c 2,28,-1
 12 531 l 1,16,-1
EndSplineSet
Substitution2: "'smcp' Lowercase to Small Capitals lookup 1 subtable" ydieresis.smcp
EndChar

StartChar: Amacron
Encoding: 256 256 193
Width: 711
GlyphClass: 2
Flags: W
LayerCount: 2
Fore
SplineSet
222 797 m 1,0,-1
 222 890 l 1,1,-1
 514 890 l 1,2,-1
 514 797 l 1,3,-1
 222 797 l 1,0,-1
25 0 m 1,4,-1
 254 732 l 1,5,-1
 483 732 l 1,6,-1
 705 0 l 1,7,-1
 506 0 l 1,8,-1
 463 128 l 1,9,-1
 266 128 l 1,10,-1
 224 0 l 1,11,-1
 25 0 l 1,4,-1
310 293 m 1,12,-1
 424 293 l 1,13,-1
 371 489 l 1,14,-1
 310 293 l 1,12,-1
EndSplineSet
Substitution2: "'c2sc' Capitals to Small Capitals in Latin lookup 2 subtable" amacron.smcp
EndChar

StartChar: amacron
Encoding: 257 257 194
Width: 519
GlyphClass: 2
Flags: W
LayerCount: 2
Fore
SplineSet
122 601 m 1,0,-1
 122 694 l 1,1,-1
 414 694 l 1,2,-1
 414 601 l 1,3,-1
 122 601 l 1,0,-1
22 143 m 2,4,-1
 22 184 l 2,5,6
 22 251 22 251 61.5 295.5 c 128,-1,7
 101 340 101 340 196 340 c 0,8,9
 247 340 247 340 272.5 340 c 128,-1,10
 298 340 298 340 298 340 c 1,11,12
 299 346 299 346 298.5 354.5 c 128,-1,13
 298 363 298 363 295 373 c 128,-1,14
 292 383 292 383 288.5 388.5 c 128,-1,15
 285 394 285 394 275 396 c 0,16,17
 260 399 260 399 236 399 c 1,18,-1
 40 388 l 1,19,-1
 40 501 l 1,20,21
 90 525 90 525 139.5 533 c 128,-1,22
 189 541 189 541 268 541 c 0,23,24
 382 541 382 541 437 502 c 128,-1,25
 492 463 492 463 492 357 c 2,26,-1
 492 0 l 1,27,-1
 336 0 l 1,28,-1
 298 54 l 1,29,30
 288 31 288 31 262.5 12.5 c 128,-1,31
 237 -6 237 -6 195 -6 c 0,32,33
 146 -6 146 -6 110 10.5 c 128,-1,34
 74 27 74 27 56 50 c 0,35,36
 22 95 22 95 22 143 c 2,4,-1
248 138 m 2,37,-1
 258 138 l 2,38,39
 276 138 276 138 286 146 c 128,-1,40
 296 154 296 154 297 162 c 2,41,-1
 298 171 l 1,42,-1
 298 231 l 1,43,-1
 246 226 l 2,44,45
 231 225 231 225 224 215.5 c 128,-1,46
 217 206 217 206 216.5 200 c 128,-1,47
 216 194 216 194 216 181 c 2,48,-1
 216 175 l 2,49,50
 216 147 216 147 228 142 c 0,51,52
 231 141 231 141 232 140 c 0,53,54
 236 138 236 138 248 138 c 2,37,-1
EndSplineSet
AlternateSubs2: "'salt' Stylistic Alternatives in Latin lookup 16 subtable" amacron.salt
Substitution2: "'smcp' Lowercase to Small Capitals lookup 1 subtable" amacron.smcp
EndChar

StartChar: Abreve
Encoding: 258 258 195
Width: 711
GlyphClass: 2
Flags: W
LayerCount: 2
Fore
SplineSet
320 911 m 1,0,1
 320 864 320 864 368 864 c 128,-1,2
 416 864 416 864 416 911 c 1,3,-1
 484 911 l 1,4,5
 484 841 484 841 429 811 c 0,6,7
 403 797 403 797 372.5 797 c 128,-1,8
 342 797 342 797 320.5 805.5 c 128,-1,9
 299 814 299 814 285 828 c 0,10,11
 254 860 254 860 254 911 c 1,12,-1
 320 911 l 1,0,1
25 0 m 1,13,-1
 254 732 l 1,14,-1
 483 732 l 1,15,-1
 705 0 l 1,16,-1
 506 0 l 1,17,-1
 463 128 l 1,18,-1
 266 128 l 1,19,-1
 224 0 l 1,20,-1
 25 0 l 1,13,-1
310 293 m 1,21,-1
 424 293 l 1,22,-1
 371 489 l 1,23,-1
 310 293 l 1,21,-1
EndSplineSet
Substitution2: "'c2sc' Capitals to Small Capitals in Latin lookup 2 subtable" abreve.smcp
EndChar

StartChar: abreve
Encoding: 259 259 196
Width: 519
GlyphClass: 2
Flags: W
LayerCount: 2
Fore
SplineSet
153 715 m 1,0,-1
 220 715 l 1,1,2
 220 668 220 668 268 668 c 128,-1,3
 316 668 316 668 316 715 c 1,4,-1
 383 715 l 1,5,6
 383 664 383 664 351.5 632.5 c 128,-1,7
 320 601 320 601 267.5 601 c 128,-1,8
 215 601 215 601 184 632.5 c 128,-1,9
 153 664 153 664 153 715 c 1,0,-1
22 143 m 2,10,-1
 22 184 l 2,11,12
 22 251 22 251 61.5 295.5 c 128,-1,13
 101 340 101 340 196 340 c 0,14,15
 247 340 247 340 272.5 340 c 128,-1,16
 298 340 298 340 298 340 c 1,17,18
 299 346 299 346 298.5 354.5 c 128,-1,19
 298 363 298 363 295 373 c 128,-1,20
 292 383 292 383 288.5 388.5 c 128,-1,21
 285 394 285 394 275 396 c 0,22,23
 260 399 260 399 236 399 c 1,24,-1
 40 388 l 1,25,-1
 40 501 l 1,26,27
 90 525 90 525 139.5 533 c 128,-1,28
 189 541 189 541 268 541 c 0,29,30
 382 541 382 541 437 502 c 128,-1,31
 492 463 492 463 492 357 c 2,32,-1
 492 0 l 1,33,-1
 336 0 l 1,34,-1
 298 54 l 1,35,36
 288 31 288 31 262.5 12.5 c 128,-1,37
 237 -6 237 -6 195 -6 c 0,38,39
 146 -6 146 -6 110 10.5 c 128,-1,40
 74 27 74 27 56 50 c 0,41,42
 22 95 22 95 22 143 c 2,10,-1
248 138 m 2,43,-1
 258 138 l 2,44,45
 276 138 276 138 286 146 c 128,-1,46
 296 154 296 154 297 162 c 2,47,-1
 298 171 l 1,48,-1
 298 231 l 1,49,-1
 246 226 l 2,50,51
 231 225 231 225 224 215.5 c 128,-1,52
 217 206 217 206 216.5 200 c 128,-1,53
 216 194 216 194 216 181 c 2,54,-1
 216 175 l 2,55,56
 216 147 216 147 228 142 c 0,57,58
 231 141 231 141 232 140 c 0,59,60
 236 138 236 138 248 138 c 2,43,-1
EndSplineSet
Substitution2: "'smcp' Lowercase to Small Capitals lookup 1 subtable" abreve.smcp
EndChar

StartChar: Aogonek
Encoding: 260 260 197
Width: 711
GlyphClass: 2
Flags: W
LayerCount: 2
Fore
SplineSet
575 2 m 1,0,-1
 644 2 l 1,1,2
 583 -40 583 -40 615 -82 c 0,3,4
 632 -104 632 -104 657 -99 c 1,5,-1
 657 -189 l 1,6,7
 642 -194 642 -194 631 -194 c 128,-1,8
 620 -194 620 -194 606 -193 c 128,-1,9
 592 -192 592 -192 574 -180 c 0,10,11
 514 -142 514 -142 514 -87.5 c 128,-1,12
 514 -33 514 -33 575 2 c 1,0,-1
25 0 m 1,13,-1
 254 732 l 1,14,-1
 483 732 l 1,15,-1
 705 0 l 1,16,-1
 506 0 l 1,17,-1
 463 128 l 1,18,-1
 266 128 l 1,19,-1
 224 0 l 1,20,-1
 25 0 l 1,13,-1
310 293 m 1,21,-1
 424 293 l 1,22,-1
 371 489 l 1,23,-1
 310 293 l 1,21,-1
EndSplineSet
Substitution2: "'c2sc' Capitals to Small Capitals in Latin lookup 2 subtable" aogonek.smcp
EndChar

StartChar: aogonek
Encoding: 261 261 198
Width: 519
GlyphClass: 2
Flags: W
LayerCount: 2
Fore
SplineSet
384 0 m 1,0,-1
 453 0 l 1,1,2
 392 -41 392 -41 424 -83 c 0,3,4
 441 -105 441 -105 466 -101 c 1,5,-1
 466 -191 l 1,6,7
 451 -195 451 -195 440 -195 c 128,-1,8
 429 -195 429 -195 415 -194 c 128,-1,9
 401 -193 401 -193 383 -181 c 0,10,11
 323 -143 323 -143 323 -89 c 128,-1,12
 323 -35 323 -35 384 0 c 1,0,-1
22 143 m 2,13,-1
 22 184 l 2,14,15
 22 251 22 251 61.5 295.5 c 128,-1,16
 101 340 101 340 196 340 c 0,17,18
 247 340 247 340 272.5 340 c 128,-1,19
 298 340 298 340 298 340 c 1,20,21
 299 346 299 346 298.5 354.5 c 128,-1,22
 298 363 298 363 295 373 c 128,-1,23
 292 383 292 383 288.5 388.5 c 128,-1,24
 285 394 285 394 275 396 c 0,25,26
 260 399 260 399 236 399 c 1,27,-1
 40 388 l 1,28,-1
 40 501 l 1,29,30
 90 525 90 525 139.5 533 c 128,-1,31
 189 541 189 541 268 541 c 0,32,33
 382 541 382 541 437 502 c 128,-1,34
 492 463 492 463 492 357 c 2,35,-1
 492 0 l 1,36,-1
 336 0 l 1,37,-1
 298 54 l 1,38,39
 288 31 288 31 262.5 12.5 c 128,-1,40
 237 -6 237 -6 195 -6 c 0,41,42
 146 -6 146 -6 110 10.5 c 128,-1,43
 74 27 74 27 56 50 c 0,44,45
 22 95 22 95 22 143 c 2,13,-1
248 138 m 2,46,-1
 258 138 l 2,47,48
 276 138 276 138 286 146 c 128,-1,49
 296 154 296 154 297 162 c 2,50,-1
 298 171 l 1,51,-1
 298 231 l 1,52,-1
 246 226 l 2,53,54
 231 225 231 225 224 215.5 c 128,-1,55
 217 206 217 206 216.5 200 c 128,-1,56
 216 194 216 194 216 181 c 2,57,-1
 216 175 l 2,58,59
 216 147 216 147 228 142 c 0,60,61
 231 141 231 141 232 140 c 0,62,63
 236 138 236 138 248 138 c 2,46,-1
EndSplineSet
AlternateSubs2: "'salt' Stylistic Alternatives in Latin lookup 16 subtable" aogonek.salt
Substitution2: "'smcp' Lowercase to Small Capitals lookup 1 subtable" aogonek.smcp
EndChar

StartChar: Cacute
Encoding: 262 262 199
Width: 567
GlyphClass: 2
Flags: W
LayerCount: 2
Fore
SplineSet
280 800 m 1,0,-1
 356 943 l 1,1,-1
 502 943 l 1,2,-1
 388 800 l 1,3,-1
 280 800 l 1,0,-1
548 549 m 1,4,5
 446 566 446 566 365.5 566 c 128,-1,6
 285 566 285 566 267 555 c 0,7,8
 225 530 225 530 225 366 c 0,9,10
 225 242 225 242 247.5 205 c 128,-1,11
 270 168 270 168 345 168 c 0,12,13
 449 168 449 168 520 174 c 1,14,-1
 548 177 l 1,15,-1
 548 26 l 1,16,17
 500 6 500 6 452 0 c 128,-1,18
 404 -6 404 -6 356 -6 c 128,-1,19
 308 -6 308 -6 284 -6 c 0,20,21
 148 -4 148 -4 89.5 87.5 c 128,-1,22
 31 179 31 179 31 367.5 c 128,-1,23
 31 556 31 556 86.5 648 c 128,-1,24
 142 740 142 740 284 740 c 0,25,26
 388 740 388 740 434.5 732.5 c 128,-1,27
 481 725 481 725 548 700 c 1,28,-1
 548 549 l 1,4,5
EndSplineSet
Substitution2: "'c2sc' Capitals to Small Capitals in Latin lookup 2 subtable" cacute.smcp
EndChar

StartChar: cacute
Encoding: 263 263 200
Width: 490
GlyphClass: 2
Flags: W
LayerCount: 2
Fore
SplineSet
225 596 m 1,0,-1
 302 739 l 1,1,-1
 447 739 l 1,2,-1
 334 596 l 1,3,-1
 225 596 l 1,0,-1
303 -6 m 1,4,-1
 203 -5 l 1,5,6
 28 -5 28 -5 28 266 c 0,7,8
 28 413 28 413 74 474.5 c 128,-1,9
 120 536 120 536 203 536 c 0,10,11
 227 536 227 536 252 536 c 0,12,13
 368 536 368 536 461 500 c 1,14,-1
 461 386 l 1,15,16
 401 392 401 392 340.5 392 c 128,-1,17
 280 392 280 392 268 390.5 c 128,-1,18
 256 389 256 389 242.5 377 c 128,-1,19
 229 365 229 365 225.5 339 c 128,-1,20
 222 313 222 313 222 265 c 128,-1,21
 222 217 222 217 225 192.5 c 128,-1,22
 228 168 228 168 240.5 155.5 c 128,-1,23
 253 143 253 143 266.5 141 c 128,-1,24
 280 139 280 139 316 139 c 0,25,26
 394 139 394 139 450 145 c 2,27,-1
 468 147 l 1,28,-1
 468 33 l 1,29,30
 414 -6 414 -6 303 -6 c 1,4,-1
EndSplineSet
Substitution2: "'smcp' Lowercase to Small Capitals lookup 1 subtable" cacute.smcp
EndChar

StartChar: Ccircumflex
Encoding: 264 264 201
Width: 567
GlyphClass: 2
Flags: W
LayerCount: 2
Fore
SplineSet
171 800 m 1,0,-1
 271 940 l 1,1,-1
 402 940 l 1,2,-1
 493 800 l 1,3,-1
 382 800 l 1,4,-1
 333 851 l 1,5,-1
 283 800 l 1,6,-1
 171 800 l 1,0,-1
548 549 m 1,7,8
 446 566 446 566 365.5 566 c 128,-1,9
 285 566 285 566 267 555 c 0,10,11
 225 530 225 530 225 366 c 0,12,13
 225 242 225 242 247.5 205 c 128,-1,14
 270 168 270 168 345 168 c 0,15,16
 449 168 449 168 520 174 c 1,17,-1
 548 177 l 1,18,-1
 548 26 l 1,19,20
 500 6 500 6 452 0 c 128,-1,21
 404 -6 404 -6 356 -6 c 128,-1,22
 308 -6 308 -6 284 -6 c 0,23,24
 148 -4 148 -4 89.5 87.5 c 128,-1,25
 31 179 31 179 31 367.5 c 128,-1,26
 31 556 31 556 86.5 648 c 128,-1,27
 142 740 142 740 284 740 c 0,28,29
 388 740 388 740 434.5 732.5 c 128,-1,30
 481 725 481 725 548 700 c 1,31,-1
 548 549 l 1,7,8
EndSplineSet
Substitution2: "'c2sc' Capitals to Small Capitals in Latin lookup 2 subtable" ccircumflex.smcp
EndChar

StartChar: ccircumflex
Encoding: 265 265 202
Width: 490
GlyphClass: 2
Flags: W
LayerCount: 2
Fore
SplineSet
98 596 m 1,0,-1
 198 736 l 1,1,-1
 329 736 l 1,2,-1
 420 596 l 1,3,-1
 309 596 l 1,4,-1
 260 647 l 1,5,-1
 210 596 l 1,6,-1
 98 596 l 1,0,-1
303 -6 m 1,7,-1
 203 -5 l 1,8,9
 28 -5 28 -5 28 266 c 0,10,11
 28 413 28 413 74 474.5 c 128,-1,12
 120 536 120 536 203 536 c 0,13,14
 227 536 227 536 252 536 c 0,15,16
 368 536 368 536 461 500 c 1,17,-1
 461 386 l 1,18,19
 401 392 401 392 340.5 392 c 128,-1,20
 280 392 280 392 268 390.5 c 128,-1,21
 256 389 256 389 242.5 377 c 128,-1,22
 229 365 229 365 225.5 339 c 128,-1,23
 222 313 222 313 222 265 c 128,-1,24
 222 217 222 217 225 192.5 c 128,-1,25
 228 168 228 168 240.5 155.5 c 128,-1,26
 253 143 253 143 266.5 141 c 128,-1,27
 280 139 280 139 316 139 c 0,28,29
 394 139 394 139 450 145 c 2,30,-1
 468 147 l 1,31,-1
 468 33 l 1,32,33
 414 -6 414 -6 303 -6 c 1,7,-1
EndSplineSet
Substitution2: "'smcp' Lowercase to Small Capitals lookup 1 subtable" ccircumflex.smcp
EndChar

StartChar: Cdotaccent
Encoding: 266 266 203
Width: 567
GlyphClass: 2
Flags: W
LayerCount: 2
Fore
SplineSet
256 823 m 2,0,-1
 256 917 l 2,1,2
 256 942 256 942 280 942 c 2,3,-1
 370 942 l 2,4,5
 393 942 393 942 393 917 c 2,6,-1
 393 823 l 2,7,8
 393 800 393 800 370 800 c 2,9,-1
 280 800 l 2,10,11
 256 800 256 800 256 823 c 2,0,-1
548 549 m 1,12,13
 446 566 446 566 365.5 566 c 128,-1,14
 285 566 285 566 267 555 c 0,15,16
 225 530 225 530 225 366 c 0,17,18
 225 242 225 242 247.5 205 c 128,-1,19
 270 168 270 168 345 168 c 0,20,21
 449 168 449 168 520 174 c 1,22,-1
 548 177 l 1,23,-1
 548 26 l 1,24,25
 500 6 500 6 452 0 c 128,-1,26
 404 -6 404 -6 356 -6 c 128,-1,27
 308 -6 308 -6 284 -6 c 0,28,29
 148 -4 148 -4 89.5 87.5 c 128,-1,30
 31 179 31 179 31 367.5 c 128,-1,31
 31 556 31 556 86.5 648 c 128,-1,32
 142 740 142 740 284 740 c 0,33,34
 388 740 388 740 434.5 732.5 c 128,-1,35
 481 725 481 725 548 700 c 1,36,-1
 548 549 l 1,12,13
EndSplineSet
Substitution2: "'c2sc' Capitals to Small Capitals in Latin lookup 2 subtable" cdotaccent.smcp
EndChar

StartChar: cdotaccent
Encoding: 267 267 204
Width: 490
GlyphClass: 2
Flags: W
LayerCount: 2
Fore
SplineSet
208 619 m 2,0,-1
 208 713 l 2,1,2
 208 738 208 738 232 738 c 2,3,-1
 322 738 l 2,4,5
 345 738 345 738 345 713 c 2,6,-1
 345 619 l 2,7,8
 345 596 345 596 322 596 c 2,9,-1
 232 596 l 2,10,11
 208 596 208 596 208 619 c 2,0,-1
303 -6 m 1,12,-1
 203 -5 l 1,13,14
 28 -5 28 -5 28 266 c 0,15,16
 28 413 28 413 74 474.5 c 128,-1,17
 120 536 120 536 203 536 c 0,18,19
 227 536 227 536 252 536 c 0,20,21
 368 536 368 536 461 500 c 1,22,-1
 461 386 l 1,23,24
 401 392 401 392 340.5 392 c 128,-1,25
 280 392 280 392 268 390.5 c 128,-1,26
 256 389 256 389 242.5 377 c 128,-1,27
 229 365 229 365 225.5 339 c 128,-1,28
 222 313 222 313 222 265 c 128,-1,29
 222 217 222 217 225 192.5 c 128,-1,30
 228 168 228 168 240.5 155.5 c 128,-1,31
 253 143 253 143 266.5 141 c 128,-1,32
 280 139 280 139 316 139 c 0,33,34
 394 139 394 139 450 145 c 2,35,-1
 468 147 l 1,36,-1
 468 33 l 1,37,38
 414 -6 414 -6 303 -6 c 1,12,-1
EndSplineSet
Substitution2: "'smcp' Lowercase to Small Capitals lookup 1 subtable" cdotaccent.smcp
EndChar

StartChar: Ccaron
Encoding: 268 268 205
Width: 567
GlyphClass: 2
Flags: W
LayerCount: 2
Fore
SplineSet
181 940 m 1,0,-1
 292 940 l 1,1,-1
 341 889 l 1,2,-1
 391 940 l 1,3,-1
 503 940 l 1,4,-1
 403 800 l 1,5,-1
 272 800 l 1,6,-1
 181 940 l 1,0,-1
548 549 m 1,7,8
 446 566 446 566 365.5 566 c 128,-1,9
 285 566 285 566 267 555 c 0,10,11
 225 530 225 530 225 366 c 0,12,13
 225 242 225 242 247.5 205 c 128,-1,14
 270 168 270 168 345 168 c 0,15,16
 449 168 449 168 520 174 c 1,17,-1
 548 177 l 1,18,-1
 548 26 l 1,19,20
 500 6 500 6 452 0 c 128,-1,21
 404 -6 404 -6 356 -6 c 128,-1,22
 308 -6 308 -6 284 -6 c 0,23,24
 148 -4 148 -4 89.5 87.5 c 128,-1,25
 31 179 31 179 31 367.5 c 128,-1,26
 31 556 31 556 86.5 648 c 128,-1,27
 142 740 142 740 284 740 c 0,28,29
 388 740 388 740 434.5 732.5 c 128,-1,30
 481 725 481 725 548 700 c 1,31,-1
 548 549 l 1,7,8
EndSplineSet
Substitution2: "'c2sc' Capitals to Small Capitals in Latin lookup 2 subtable" ccaron.smcp
EndChar

StartChar: ccaron
Encoding: 269 269 206
Width: 490
GlyphClass: 2
Flags: W
LayerCount: 2
Fore
SplineSet
112 736 m 1,0,-1
 223 736 l 1,1,-1
 272 685 l 1,2,-1
 322 736 l 1,3,-1
 434 736 l 1,4,-1
 334 596 l 1,5,-1
 203 596 l 1,6,-1
 112 736 l 1,0,-1
303 -6 m 1,7,-1
 203 -5 l 1,8,9
 28 -5 28 -5 28 266 c 0,10,11
 28 413 28 413 74 474.5 c 128,-1,12
 120 536 120 536 203 536 c 0,13,14
 227 536 227 536 252 536 c 0,15,16
 368 536 368 536 461 500 c 1,17,-1
 461 386 l 1,18,19
 401 392 401 392 340.5 392 c 128,-1,20
 280 392 280 392 268 390.5 c 128,-1,21
 256 389 256 389 242.5 377 c 128,-1,22
 229 365 229 365 225.5 339 c 128,-1,23
 222 313 222 313 222 265 c 128,-1,24
 222 217 222 217 225 192.5 c 128,-1,25
 228 168 228 168 240.5 155.5 c 128,-1,26
 253 143 253 143 266.5 141 c 128,-1,27
 280 139 280 139 316 139 c 0,28,29
 394 139 394 139 450 145 c 2,30,-1
 468 147 l 1,31,-1
 468 33 l 1,32,33
 414 -6 414 -6 303 -6 c 1,7,-1
EndSplineSet
Substitution2: "'smcp' Lowercase to Small Capitals lookup 1 subtable" ccaron.smcp
EndChar

StartChar: Dcaron
Encoding: 270 270 207
Width: 667
GlyphClass: 2
Flags: W
LayerCount: 2
Fore
SplineSet
157 937 m 1,0,-1
 268 937 l 1,1,-1
 317 886 l 1,2,-1
 367 937 l 1,3,-1
 479 937 l 1,4,-1
 379 797 l 1,5,-1
 248 797 l 1,6,-1
 157 937 l 1,0,-1
45 0 m 1,7,-1
 45 732 l 1,8,-1
 388 732 l 2,9,10
 599 732 599 732 630 482 c 0,11,12
 637 429 637 429 637 363 c 0,13,14
 637 173 637 173 576 86.5 c 128,-1,15
 515 0 515 0 388 0 c 2,16,-1
 45 0 l 1,7,-1
239 164 m 1,17,-1
 368 164 l 2,18,19
 410 164 410 164 426.5 210 c 128,-1,20
 443 256 443 256 443 353.5 c 128,-1,21
 443 451 443 451 433.5 497 c 128,-1,22
 424 543 424 543 409 555.5 c 128,-1,23
 394 568 394 568 368 568 c 2,24,-1
 239 568 l 1,25,-1
 239 164 l 1,17,-1
EndSplineSet
Substitution2: "'c2sc' Capitals to Small Capitals in Latin lookup 2 subtable" dcaron.smcp
EndChar

StartChar: dcaron
Encoding: 271 271 208
Width: 652
GlyphClass: 2
Flags: W
LayerCount: 2
Fore
SplineSet
68.5 54.5 m 128,-1,1
 28 115 28 115 28 266.5 c 128,-1,2
 28 418 28 418 62 478.5 c 128,-1,3
 96 539 96 539 200 539 c 0,4,5
 275 539 275 539 332 509 c 1,6,-1
 332 785 l 1,7,-1
 526 785 l 1,8,-1
 526 0 l 1,9,-1
 360 0 l 1,10,-1
 332 49 l 1,11,12
 299 21 299 21 270 7.5 c 128,-1,13
 241 -6 241 -6 200 -6 c 0,14,0
 109 -6 109 -6 68.5 54.5 c 128,-1,1
232 376 m 128,-1,16
 222 352 222 352 222 274.5 c 128,-1,17
 222 197 222 197 232 174 c 128,-1,18
 242 151 242 151 266 151 c 0,19,20
 319 151 319 151 332 173 c 1,21,-1
 332 385 l 1,22,23
 318 400 318 400 266 400 c 0,24,15
 242 400 242 400 232 376 c 128,-1,16
580 782 m 1,25,-1
 694 782 l 1,26,-1
 694 715 l 1,27,-1
 684 581 l 1,28,-1
 590 581 l 1,29,-1
 580 715 l 1,30,-1
 580 782 l 1,25,-1
EndSplineSet
AlternateSubs2: "'salt' Stylistic Alternatives in Latin lookup 16 subtable" dcaron.salt
Substitution2: "'smcp' Lowercase to Small Capitals lookup 1 subtable" dcaron.smcp
EndChar

StartChar: Dcroat
Encoding: 272 272 209
Width: 667
GlyphClass: 2
Flags: W
LayerCount: 2
Fore
SplineSet
-20 336 m 1,0,-1
 -20 410 l 1,1,-1
 45 410 l 1,2,-1
 45 732 l 1,3,-1
 388 732 l 2,4,5
 599 732 599 732 630 482 c 0,6,7
 637 429 637 429 637 363 c 0,8,9
 637 173 637 173 576 86.5 c 128,-1,10
 515 0 515 0 388 0 c 2,11,-1
 45 0 l 1,12,-1
 45 336 l 1,13,-1
 -20 336 l 1,0,-1
239 164 m 1,14,-1
 368 164 l 2,15,16
 410 164 410 164 426.5 210 c 128,-1,17
 443 256 443 256 443 353.5 c 128,-1,18
 443 451 443 451 433.5 497 c 128,-1,19
 424 543 424 543 409 555.5 c 128,-1,20
 394 568 394 568 368 568 c 2,21,-1
 239 568 l 1,22,-1
 239 410 l 1,23,-1
 328 410 l 1,24,-1
 328 336 l 1,25,-1
 239 336 l 1,26,-1
 239 164 l 1,14,-1
EndSplineSet
Substitution2: "'c2sc' Capitals to Small Capitals in Latin lookup 2 subtable" dcroat.smcp
EndChar

StartChar: dcroat
Encoding: 273 273 210
Width: 572
GlyphClass: 2
Flags: W
LayerCount: 2
Fore
SplineSet
62.5 54.5 m 128,-1,1
 22 115 22 115 22 266.5 c 128,-1,2
 22 418 22 418 56 478.5 c 128,-1,3
 90 539 90 539 194 539 c 0,4,5
 269 539 269 539 326 509 c 1,6,-1
 326 596 l 1,7,-1
 232 596 l 1,8,-1
 232 670 l 1,9,-1
 326 670 l 1,10,-1
 326 785 l 1,11,-1
 520 785 l 1,12,-1
 520 670 l 1,13,-1
 580 670 l 1,14,-1
 580 596 l 1,15,-1
 520 596 l 1,16,-1
 520 0 l 1,17,-1
 354 0 l 1,18,-1
 326 49 l 1,19,20
 293 21 293 21 264 7.5 c 128,-1,21
 235 -6 235 -6 194 -6 c 0,22,0
 103 -6 103 -6 62.5 54.5 c 128,-1,1
226 376 m 128,-1,24
 216 352 216 352 216 274.5 c 128,-1,25
 216 197 216 197 226 174 c 128,-1,26
 236 151 236 151 260 151 c 0,27,28
 313 151 313 151 326 173 c 1,29,-1
 326 385 l 1,30,31
 312 400 312 400 260 400 c 0,32,23
 236 400 236 400 226 376 c 128,-1,24
EndSplineSet
AlternateSubs2: "'salt' Stylistic Alternatives in Latin lookup 16 subtable" dcroat.salt
Substitution2: "'smcp' Lowercase to Small Capitals lookup 1 subtable" dcroat.smcp
EndChar

StartChar: Emacron
Encoding: 274 274 211
Width: 567
GlyphClass: 2
Flags: W
LayerCount: 2
Fore
SplineSet
160 797 m 1,0,-1
 160 890 l 1,1,-1
 452 890 l 1,2,-1
 452 797 l 1,3,-1
 160 797 l 1,0,-1
40 161 m 2,4,-1
 40 562 l 2,5,6
 40 732 40 732 226 732 c 0,7,8
 436 732 436 732 553 716 c 1,9,-1
 553 553 l 1,10,-1
 286 553 l 2,11,12
 262 553 262 553 249.5 543.5 c 128,-1,13
 237 534 237 534 235.5 524.5 c 128,-1,14
 234 515 234 515 234 497 c 2,15,-1
 234 453 l 1,16,-1
 503 442 l 1,17,-1
 503 281 l 1,18,-1
 234 272 l 1,19,-1
 234 228 l 2,20,21
 234 190 234 190 255 182 c 0,22,23
 272 176 272 176 296 176 c 2,24,-1
 553 176 l 1,25,-1
 553 14 l 1,26,27
 452 1 452 1 292 -2 c 2,28,-1
 236 -3 l 2,29,30
 228 -3 228 -3 216.5 -3 c 128,-1,31
 205 -3 205 -3 186.5 -1.5 c 128,-1,32
 168 0 168 0 139.5 10 c 128,-1,33
 111 20 111 20 90 36.5 c 128,-1,34
 69 53 69 53 54.5 85 c 128,-1,35
 40 117 40 117 40 161 c 2,4,-1
EndSplineSet
Substitution2: "'c2sc' Capitals to Small Capitals in Latin lookup 2 subtable" emacron.smcp
EndChar

StartChar: emacron
Encoding: 275 275 212
Width: 525
GlyphClass: 2
Flags: W
LayerCount: 2
Fore
SplineSet
124 596 m 1,0,-1
 124 689 l 1,1,-1
 416 689 l 1,2,-1
 416 596 l 1,3,-1
 124 596 l 1,0,-1
493 23 m 1,4,5
 437 -5 437 -5 286 -5 c 0,6,7
 244 -5 244 -5 203 -5 c 0,8,9
 105 -5 105 -5 66.5 60 c 128,-1,10
 28 125 28 125 28 252 c 128,-1,11
 28 379 28 379 51.5 436.5 c 128,-1,12
 75 494 75 494 122 514.5 c 128,-1,13
 169 535 169 535 251 535 c 128,-1,14
 333 535 333 535 374 529 c 128,-1,15
 415 523 415 523 447 502 c 128,-1,16
 479 481 479 481 491 442 c 128,-1,17
 503 403 503 403 503 331 c 128,-1,18
 503 259 503 259 463 227 c 128,-1,19
 423 195 423 195 346 195 c 2,20,-1
 222 195 l 1,21,22
 222 165 222 165 236 148 c 0,23,24
 245 137 245 137 278 137 c 2,25,-1
 343 138 l 1,26,27
 418 138 418 138 493 149 c 1,28,-1
 493 23 l 1,4,5
280 318 m 2,29,30
 293 318 293 318 301 327 c 128,-1,31
 309 336 309 336 309 358 c 128,-1,32
 309 380 309 380 303.5 390.5 c 128,-1,33
 298 401 298 401 269.5 401 c 128,-1,34
 241 401 241 401 231.5 387.5 c 128,-1,35
 222 374 222 374 222 328 c 0,36,37
 222 323 222 323 222 318 c 1,38,-1
 280 318 l 2,29,30
EndSplineSet
Substitution2: "'smcp' Lowercase to Small Capitals lookup 1 subtable" emacron.smcp
EndChar

StartChar: Edotaccent
Encoding: 278 278 213
Width: 567
GlyphClass: 2
Flags: W
LayerCount: 2
Fore
SplineSet
260 820 m 2,0,-1
 260 914 l 2,1,2
 260 939 260 939 284 939 c 2,3,-1
 374 939 l 2,4,5
 397 939 397 939 397 914 c 2,6,-1
 397 820 l 2,7,8
 397 797 397 797 374 797 c 2,9,-1
 284 797 l 2,10,11
 260 797 260 797 260 820 c 2,0,-1
40 161 m 2,12,-1
 40 562 l 2,13,14
 40 732 40 732 226 732 c 0,15,16
 436 732 436 732 553 716 c 1,17,-1
 553 553 l 1,18,-1
 286 553 l 2,19,20
 262 553 262 553 249.5 543.5 c 128,-1,21
 237 534 237 534 235.5 524.5 c 128,-1,22
 234 515 234 515 234 497 c 2,23,-1
 234 453 l 1,24,-1
 503 442 l 1,25,-1
 503 281 l 1,26,-1
 234 272 l 1,27,-1
 234 228 l 2,28,29
 234 190 234 190 255 182 c 0,30,31
 272 176 272 176 296 176 c 2,32,-1
 553 176 l 1,33,-1
 553 14 l 1,34,35
 452 1 452 1 292 -2 c 2,36,-1
 236 -3 l 2,37,38
 228 -3 228 -3 216.5 -3 c 128,-1,39
 205 -3 205 -3 186.5 -1.5 c 128,-1,40
 168 0 168 0 139.5 10 c 128,-1,41
 111 20 111 20 90 36.5 c 128,-1,42
 69 53 69 53 54.5 85 c 128,-1,43
 40 117 40 117 40 161 c 2,12,-1
EndSplineSet
Substitution2: "'c2sc' Capitals to Small Capitals in Latin lookup 2 subtable" edotaccent.smcp
EndChar

StartChar: edotaccent
Encoding: 279 279 214
Width: 525
GlyphClass: 2
Flags: W
LayerCount: 2
Fore
SplineSet
202 619 m 2,0,-1
 202 713 l 2,1,2
 202 738 202 738 226 738 c 2,3,-1
 316 738 l 2,4,5
 326 738 326 738 332 731 c 128,-1,6
 338 724 338 724 338 713 c 2,7,-1
 338 619 l 2,8,9
 338 596 338 596 316 596 c 2,10,-1
 226 596 l 2,11,12
 215 596 215 596 208.5 602.5 c 128,-1,13
 202 609 202 609 202 619 c 2,0,-1
493 23 m 1,14,15
 437 -5 437 -5 286 -5 c 0,16,17
 244 -5 244 -5 203 -5 c 0,18,19
 105 -5 105 -5 66.5 60 c 128,-1,20
 28 125 28 125 28 252 c 128,-1,21
 28 379 28 379 51.5 436.5 c 128,-1,22
 75 494 75 494 122 514.5 c 128,-1,23
 169 535 169 535 251 535 c 128,-1,24
 333 535 333 535 374 529 c 128,-1,25
 415 523 415 523 447 502 c 128,-1,26
 479 481 479 481 491 442 c 128,-1,27
 503 403 503 403 503 331 c 128,-1,28
 503 259 503 259 463 227 c 128,-1,29
 423 195 423 195 346 195 c 2,30,-1
 222 195 l 1,31,32
 222 165 222 165 236 148 c 0,33,34
 245 137 245 137 278 137 c 2,35,-1
 343 138 l 1,36,37
 418 138 418 138 493 149 c 1,38,-1
 493 23 l 1,14,15
280 318 m 2,39,40
 293 318 293 318 301 327 c 128,-1,41
 309 336 309 336 309 358 c 128,-1,42
 309 380 309 380 303.5 390.5 c 128,-1,43
 298 401 298 401 269.5 401 c 128,-1,44
 241 401 241 401 231.5 387.5 c 128,-1,45
 222 374 222 374 222 328 c 0,46,47
 222 323 222 323 222 318 c 1,48,-1
 280 318 l 2,39,40
EndSplineSet
Substitution2: "'smcp' Lowercase to Small Capitals lookup 1 subtable" edotaccent.smcp
EndChar

StartChar: Eogonek
Encoding: 280 280 215
Width: 567
GlyphClass: 2
Flags: W
LayerCount: 2
Fore
SplineSet
484 15 m 1,0,-1
 553 15 l 1,1,2
 492 -27 492 -27 524 -68 c 0,3,4
 541 -90 541 -90 566 -86 c 1,5,-1
 566 -176 l 1,6,7
 551 -181 551 -181 540 -181 c 128,-1,8
 529 -181 529 -181 515 -179.5 c 128,-1,9
 501 -178 501 -178 483 -167 c 0,10,11
 423 -129 423 -129 423 -74.5 c 128,-1,12
 423 -20 423 -20 484 15 c 1,0,-1
40 161 m 2,13,-1
 40 562 l 2,14,15
 40 732 40 732 226 732 c 0,16,17
 436 732 436 732 553 716 c 1,18,-1
 553 553 l 1,19,-1
 286 553 l 2,20,21
 262 553 262 553 249.5 543.5 c 128,-1,22
 237 534 237 534 235.5 524.5 c 128,-1,23
 234 515 234 515 234 497 c 2,24,-1
 234 453 l 1,25,-1
 503 442 l 1,26,-1
 503 281 l 1,27,-1
 234 272 l 1,28,-1
 234 228 l 2,29,30
 234 190 234 190 255 182 c 0,31,32
 272 176 272 176 296 176 c 2,33,-1
 553 176 l 1,34,-1
 553 14 l 1,35,36
 452 1 452 1 292 -2 c 2,37,-1
 236 -3 l 2,38,39
 228 -3 228 -3 216.5 -3 c 128,-1,40
 205 -3 205 -3 186.5 -1.5 c 128,-1,41
 168 0 168 0 139.5 10 c 128,-1,42
 111 20 111 20 90 36.5 c 128,-1,43
 69 53 69 53 54.5 85 c 128,-1,44
 40 117 40 117 40 161 c 2,13,-1
EndSplineSet
Substitution2: "'c2sc' Capitals to Small Capitals in Latin lookup 2 subtable" eogonek.smcp
EndChar

StartChar: eogonek
Encoding: 281 281 216
Width: 525
GlyphClass: 2
Flags: W
LayerCount: 2
Fore
SplineSet
506 -168 m 1,0,1
 490 -173 490 -173 478 -173 c 128,-1,2
 466 -173 466 -173 449.5 -169 c 128,-1,3
 433 -165 433 -165 411 -151 c 0,4,5
 368 -124 368 -124 362 -69 c 0,6,7
 362 -66 362 -66 362 -54.5 c 128,-1,8
 362 -43 362 -43 377 -19.5 c 128,-1,9
 392 4 392 4 424 23 c 1,10,-1
 493 23 l 1,11,12
 471 8 471 8 461.5 -8.5 c 128,-1,13
 452 -25 452 -25 454 -37.5 c 128,-1,14
 456 -50 456 -50 464 -60 c 0,15,16
 482 -82 482 -82 506 -78 c 1,17,-1
 506 -168 l 1,0,1
493 23 m 1,18,19
 437 -5 437 -5 286 -5 c 0,20,21
 244 -5 244 -5 203 -5 c 0,22,23
 105 -5 105 -5 66.5 60 c 128,-1,24
 28 125 28 125 28 252 c 128,-1,25
 28 379 28 379 51.5 436.5 c 128,-1,26
 75 494 75 494 122 514.5 c 128,-1,27
 169 535 169 535 251 535 c 128,-1,28
 333 535 333 535 374 529 c 128,-1,29
 415 523 415 523 447 502 c 128,-1,30
 479 481 479 481 491 442 c 128,-1,31
 503 403 503 403 503 331 c 128,-1,32
 503 259 503 259 463 227 c 128,-1,33
 423 195 423 195 346 195 c 2,34,-1
 222 195 l 1,35,36
 222 165 222 165 236 148 c 0,37,38
 245 137 245 137 278 137 c 2,39,-1
 343 138 l 1,40,41
 418 138 418 138 493 149 c 1,42,-1
 493 23 l 1,18,19
280 318 m 2,43,44
 293 318 293 318 301 327 c 128,-1,45
 309 336 309 336 309 358 c 128,-1,46
 309 380 309 380 303.5 390.5 c 128,-1,47
 298 401 298 401 269.5 401 c 128,-1,48
 241 401 241 401 231.5 387.5 c 128,-1,49
 222 374 222 374 222 328 c 0,50,51
 222 323 222 323 222 318 c 1,52,-1
 280 318 l 2,43,44
EndSplineSet
Substitution2: "'smcp' Lowercase to Small Capitals lookup 1 subtable" eogonek.smcp
EndChar

StartChar: Ecaron
Encoding: 282 282 217
Width: 567
GlyphClass: 2
Flags: W
LayerCount: 2
Fore
SplineSet
162 937 m 1,0,-1
 273 937 l 1,1,-1
 322 886 l 1,2,-1
 372 937 l 1,3,-1
 484 937 l 1,4,-1
 384 797 l 1,5,-1
 253 797 l 1,6,-1
 162 937 l 1,0,-1
40 161 m 2,7,-1
 40 562 l 2,8,9
 40 732 40 732 226 732 c 0,10,11
 436 732 436 732 553 716 c 1,12,-1
 553 553 l 1,13,-1
 286 553 l 2,14,15
 262 553 262 553 249.5 543.5 c 128,-1,16
 237 534 237 534 235.5 524.5 c 128,-1,17
 234 515 234 515 234 497 c 2,18,-1
 234 453 l 1,19,-1
 503 442 l 1,20,-1
 503 281 l 1,21,-1
 234 272 l 1,22,-1
 234 228 l 2,23,24
 234 190 234 190 255 182 c 0,25,26
 272 176 272 176 296 176 c 2,27,-1
 553 176 l 1,28,-1
 553 14 l 1,29,30
 452 1 452 1 292 -2 c 2,31,-1
 236 -3 l 2,32,33
 228 -3 228 -3 216.5 -3 c 128,-1,34
 205 -3 205 -3 186.5 -1.5 c 128,-1,35
 168 0 168 0 139.5 10 c 128,-1,36
 111 20 111 20 90 36.5 c 128,-1,37
 69 53 69 53 54.5 85 c 128,-1,38
 40 117 40 117 40 161 c 2,7,-1
EndSplineSet
Substitution2: "'c2sc' Capitals to Small Capitals in Latin lookup 2 subtable" ecaron.smcp
EndChar

StartChar: ecaron
Encoding: 283 283 218
Width: 525
GlyphClass: 2
Flags: W
LayerCount: 2
Fore
SplineSet
114 736 m 1,0,-1
 225 736 l 1,1,-1
 274 685 l 1,2,-1
 324 736 l 1,3,-1
 436 736 l 1,4,-1
 336 596 l 1,5,-1
 205 596 l 1,6,-1
 114 736 l 1,0,-1
493 23 m 1,7,8
 437 -5 437 -5 286 -5 c 0,9,10
 244 -5 244 -5 203 -5 c 0,11,12
 105 -5 105 -5 66.5 60 c 128,-1,13
 28 125 28 125 28 252 c 128,-1,14
 28 379 28 379 51.5 436.5 c 128,-1,15
 75 494 75 494 122 514.5 c 128,-1,16
 169 535 169 535 251 535 c 128,-1,17
 333 535 333 535 374 529 c 128,-1,18
 415 523 415 523 447 502 c 128,-1,19
 479 481 479 481 491 442 c 128,-1,20
 503 403 503 403 503 331 c 128,-1,21
 503 259 503 259 463 227 c 128,-1,22
 423 195 423 195 346 195 c 2,23,-1
 222 195 l 1,24,25
 222 165 222 165 236 148 c 0,26,27
 245 137 245 137 278 137 c 2,28,-1
 343 138 l 1,29,30
 418 138 418 138 493 149 c 1,31,-1
 493 23 l 1,7,8
280 318 m 2,32,33
 293 318 293 318 301 327 c 128,-1,34
 309 336 309 336 309 358 c 128,-1,35
 309 380 309 380 303.5 390.5 c 128,-1,36
 298 401 298 401 269.5 401 c 128,-1,37
 241 401 241 401 231.5 387.5 c 128,-1,38
 222 374 222 374 222 328 c 0,39,40
 222 323 222 323 222 318 c 1,41,-1
 280 318 l 2,32,33
EndSplineSet
Substitution2: "'smcp' Lowercase to Small Capitals lookup 1 subtable" ecaron.smcp
EndChar

StartChar: Gcircumflex
Encoding: 284 284 219
Width: 615
GlyphClass: 2
Flags: W
LayerCount: 2
Fore
SplineSet
171 800 m 1,0,-1
 271 940 l 1,1,-1
 402 940 l 1,2,-1
 493 800 l 1,3,-1
 382 800 l 1,4,-1
 333 851 l 1,5,-1
 283 800 l 1,6,-1
 171 800 l 1,0,-1
35.5 249.5 m 128,-1,8
 31 301 31 301 31 380.5 c 128,-1,9
 31 460 31 460 41.5 523 c 128,-1,10
 52 586 52 586 78 638 c 0,11,12
 130 740 130 740 274 740 c 0,13,14
 396 740 396 740 437.5 735 c 128,-1,15
 479 730 479 730 578 703 c 1,16,-1
 578 554 l 1,17,18
 577 554 577 554 563 556.5 c 128,-1,19
 549 559 549 559 525.5 562 c 128,-1,20
 502 565 502 565 474 568 c 0,21,22
 398 576 398 576 332 576 c 128,-1,23
 266 576 266 576 245.5 534.5 c 128,-1,24
 225 493 225 493 225 367 c 128,-1,25
 225 241 225 241 240 207 c 128,-1,26
 255 173 255 173 319 173 c 0,27,28
 347 173 347 173 365 184.5 c 128,-1,29
 383 196 383 196 387 208 c 2,30,-1
 391 219 l 1,31,-1
 391 294 l 1,32,-1
 342 294 l 1,33,-1
 342 414 l 1,34,35
 389 439 389 439 517 439 c 0,36,37
 549 439 549 439 585 436 c 1,38,-1
 585 0 l 1,39,-1
 448 0 l 1,40,-1
 393 49 l 1,41,42
 371 20 371 20 348 10 c 1,43,44
 316 -6 316 -6 258.5 -6 c 128,-1,45
 201 -6 201 -6 161 11.5 c 128,-1,46
 121 29 121 29 95.5 61.5 c 128,-1,47
 70 94 70 94 55 146 c 128,-1,7
 40 198 40 198 35.5 249.5 c 128,-1,8
EndSplineSet
Substitution2: "'c2sc' Capitals to Small Capitals in Latin lookup 2 subtable" gcircumflex.smcp
EndChar

